<svg width="323" height="221" viewBox="0 0 323 221" fill="none" xmlns="http://www.w3.org/2000/svg">
<g clip-path="url(#clip0_631_12644)">
<path d="M190.099 196.159C193.211 201.662 190.572 220.246 190.572 220.246C190.572 220.246 173.296 212.929 170.185 207.429C169.444 206.121 168.967 204.679 168.783 203.186C168.599 201.694 168.711 200.179 169.112 198.73C169.514 197.281 170.196 195.924 171.122 194.739C172.047 193.554 173.197 192.563 174.505 191.822C175.813 191.082 177.255 190.607 178.747 190.424C180.239 190.241 181.752 190.355 183.2 190.757C184.649 191.16 186.003 191.845 187.187 192.771C188.371 193.698 189.36 194.85 190.099 196.159V196.159Z" fill="#F1F1F1"/>
<path d="M190.823 220.222L190.456 220.3C186.921 203.496 174.576 192.101 174.452 191.987L174.704 191.71C174.829 191.824 187.262 203.296 190.823 220.222Z" fill="white"/>
<path d="M218.369 202.425C214.147 210.087 190.344 220.468 190.344 220.468C190.344 220.468 186.42 194.787 190.64 187.127C191.644 185.305 192.996 183.699 194.621 182.401C196.245 181.102 198.109 180.136 200.106 179.558C202.104 178.981 204.195 178.802 206.261 179.033C208.328 179.264 210.328 179.899 212.149 180.904C213.97 181.908 215.575 183.262 216.873 184.887C218.171 186.512 219.136 188.377 219.714 190.376C220.291 192.374 220.47 194.467 220.239 196.534C220.008 198.601 219.373 200.603 218.369 202.425Z" fill="#F1F1F1"/>
<path d="M190.554 220.746L190.197 220.37C207.421 204.003 211.88 181.177 211.923 180.948L212.433 181.044C212.39 181.274 207.904 204.261 190.554 220.746Z" fill="white"/>
<path d="M305.582 8.37863H0.130371V149.398C0.130371 151.607 1.92123 153.398 4.13037 153.398H301.582C303.791 153.398 305.582 151.607 305.582 149.398V8.37863Z" fill="#E6E6E6"/>
<path d="M296.848 20.8143H8.86475V141.809H296.848V20.8143Z" fill="white"/>
<path d="M301.451 0H4C1.79086 0 0 1.79086 0 4V12.9834H305.451V4C305.451 1.79086 303.661 0 301.451 0Z" fill="#4487F5"/>
<path d="M9.64294 9.17849C10.9713 9.17849 12.0481 8.10109 12.0481 6.77206C12.0481 5.44303 10.9713 4.36563 9.64294 4.36563C8.31461 4.36563 7.23779 5.44303 7.23779 6.77206C7.23779 8.10109 8.31461 9.17849 9.64294 9.17849Z" fill="white"/>
<path d="M18.7723 9.17849C20.1007 9.17849 21.1775 8.10109 21.1775 6.77206C21.1775 5.44303 20.1007 4.36563 18.7723 4.36563C17.444 4.36563 16.3672 5.44303 16.3672 6.77206C16.3672 8.10109 17.444 9.17849 18.7723 9.17849Z" fill="white"/>
<path d="M27.9017 9.17849C29.2301 9.17849 30.3069 8.10109 30.3069 6.77206C30.3069 5.44303 29.2301 4.36563 27.9017 4.36563C26.5734 4.36563 25.4966 5.44303 25.4966 6.77206C25.4966 8.10109 26.5734 9.17849 27.9017 9.17849Z" fill="white"/>
<path d="M121.815 57.3399C121.168 57.3421 120.644 58.2294 120.645 59.3218C120.646 60.4111 121.169 61.2936 121.815 61.2958H242.409C243.056 61.2936 243.58 60.4063 243.579 59.3139C243.577 58.2246 243.054 57.342 242.409 57.3399H121.815Z" fill="#E6E6E6"/>
<path d="M121.815 69.2086C121.168 69.2108 120.644 70.0981 120.645 71.1904C120.646 72.2798 121.169 73.1623 121.815 73.1645H210.927C211.574 73.1623 212.098 72.275 212.097 71.1826C212.096 70.0933 211.573 69.2107 210.927 69.2086H121.815Z" fill="#E6E6E6"/>
<path d="M121.815 80.8087C121.168 80.8109 120.644 81.6982 120.645 82.7906C120.646 83.8799 121.169 84.7625 121.815 84.7646H242.409C243.056 84.7625 243.58 83.8751 243.579 82.7828C243.577 81.6934 243.054 80.8109 242.409 80.8087H121.815Z" fill="#E6E6E6"/>
<path d="M121.815 92.6775C121.168 92.6797 120.644 93.567 120.645 94.6593C120.646 95.7487 121.169 96.6312 121.815 96.6334H210.927C211.574 96.6312 212.098 95.7439 212.097 94.6515C212.096 93.5622 211.573 92.6796 210.927 92.6775H121.815Z" fill="#E6E6E6"/>
<path d="M28.2328 101.107C27.5855 101.109 27.0617 101.996 27.063 103.088C27.0643 104.178 27.5873 105.06 28.2328 105.062H87.7593C88.4066 105.06 88.9304 104.173 88.9291 103.081C88.9278 101.991 88.4048 101.109 87.7593 101.107H28.2328Z" fill="#E6E6E6"/>
<path d="M28.2328 112.975C27.5855 112.977 27.0617 113.865 27.063 114.957C27.0643 116.046 27.5873 116.929 28.2328 116.931H56.2776C56.925 116.929 57.4487 116.042 57.4475 114.949C57.4462 113.86 56.9232 112.977 56.2776 112.975H28.2328Z" fill="#E6E6E6"/>
<path d="M80.9145 51.2046C79.7609 47.8886 77.8982 44.8644 75.4564 42.3427C73.0145 39.8211 70.0523 37.8627 66.7763 36.6041C63.5003 35.3456 59.9893 34.8172 56.4882 35.0558C52.9871 35.2944 49.5802 36.2942 46.505 37.9856C43.4297 39.6769 40.7603 42.0191 38.6828 44.8488C36.6052 47.6784 35.1696 50.9274 34.476 54.3692C33.7824 57.8111 33.8475 61.3628 34.6668 64.7769C35.4861 68.1909 37.0399 71.3851 39.2198 74.1366C39.4363 74.4096 39.6615 74.6826 39.891 74.9469C39.9083 74.9642 39.9212 74.9816 39.9386 74.9989C40.5033 75.6497 41.1034 76.2689 41.7361 76.8536C41.9007 77.0052 42.0739 77.1612 42.2471 77.3086C42.5763 77.6032 42.914 77.8849 43.2649 78.1536C43.9499 78.6938 44.6641 79.1958 45.4044 79.6572L45.4304 79.6702C45.9111 79.9692 46.4004 80.2466 46.8987 80.5109L47.1021 80.6149C47.5699 80.8576 48.0463 81.0872 48.5357 81.2996C48.6353 81.3429 48.7436 81.3862 48.8432 81.4296C48.8519 81.4339 48.8563 81.4339 48.865 81.4382C49.8538 81.8497 50.8696 82.1928 51.9054 82.4652C53.9356 83.0066 56.0278 83.2805 58.1289 83.2799C58.8955 83.2799 59.6534 83.2452 60.4027 83.1716C62.1147 83.0135 63.8048 82.6721 65.444 82.1532C65.4485 82.1532 65.4527 82.1489 65.4569 82.1489C66.4924 81.8189 67.504 81.4178 68.4844 80.9486C68.4886 80.9442 68.4975 80.9442 68.5017 80.9399C68.7225 80.8359 68.9348 80.7232 69.1514 80.6149L69.2554 80.5629C69.4286 80.4719 69.6018 80.3809 69.775 80.2856C70.2081 80.0472 70.6326 79.7959 71.0528 79.5272C71.1697 79.4579 71.2822 79.3843 71.3992 79.3063C71.7802 79.0549 72.1571 78.7862 72.5208 78.5132C72.586 78.4656 72.6551 78.4179 72.7202 78.3659C76.7777 75.2843 79.7559 70.9966 81.2279 66.1173C82.6999 61.238 82.5902 56.0177 80.9145 51.2046Z" fill="white"/>
<path d="M53.5368 62.8151L41.944 56.1322C41.4325 55.8254 40.887 55.689 40.3074 55.689C38.4661 55.689 37 57.1892 37 58.9963C37 60.1556 37.6137 61.2126 38.6366 61.8263L50.2294 68.5092C51.7638 69.4639 53.8095 68.9866 54.7642 67.4181C55.7189 65.8497 55.2416 63.838 53.6732 62.8833C53.6391 62.8492 53.5709 62.8492 53.5368 62.8151Z" fill="#4487F5"/>
<path d="M76.6205 56.1312L65.0277 49.4483C63.4592 48.5277 61.4476 49.0733 60.527 50.6417C59.6063 52.2101 60.1519 54.2218 61.7203 55.1424L73.3131 61.8253C74.8815 62.7459 76.8932 62.2004 77.8138 60.632C78.7344 59.0635 78.1889 57.0518 76.6205 56.1312Z" fill="#4487F5"/>
<path d="M72.8695 62.6436L67.4822 59.5067L61.754 62.8141C60.1856 63.7347 59.64 65.7464 60.5606 67.3148C61.4812 68.8833 63.4929 69.4288 65.0614 68.5082L74.3697 63.121C73.8242 63.0869 73.3127 62.9164 72.8695 62.6436Z" fill="#4487F5"/>
<path d="M42.4207 55.347L47.842 58.4839L53.5702 55.1765C55.1386 54.2559 55.6842 52.2442 54.7636 50.6758C53.843 49.1074 51.8313 48.5618 50.2628 49.4824L40.9204 54.8356C41.4319 54.9038 41.9433 55.0742 42.4207 55.347Z" fill="#4487F5"/>
<path d="M80.9145 51.2046C79.7609 47.8886 77.8982 44.8644 75.4564 42.3427C73.0145 39.8211 70.0523 37.8627 66.7763 36.6041C63.5003 35.3456 59.9893 34.8172 56.4882 35.0558C52.9871 35.2944 49.5802 36.2942 46.505 37.9856C43.4297 39.6769 40.7603 42.0191 38.6828 44.8488C36.6052 47.6784 35.1696 50.9274 34.476 54.3692C33.7824 57.8111 33.8475 61.3628 34.6668 64.7769C35.4861 68.1909 37.0399 71.3851 39.2198 74.1366C39.4363 74.4096 39.6615 74.6826 39.891 74.9469C39.9083 74.9642 39.9212 74.9816 39.9386 74.9989C40.5033 75.6497 41.1034 76.2689 41.7361 76.8536C41.9007 77.0052 42.0739 77.1612 42.2471 77.3086C42.5763 77.6032 42.914 77.8849 43.2649 78.1536C43.9499 78.6938 44.6641 79.1958 45.4044 79.6572L45.4304 79.6702C45.9111 79.9692 46.4004 80.2466 46.8987 80.5109L47.1021 80.6149C47.5699 80.8576 48.0463 81.0872 48.5357 81.2996C48.6353 81.3429 48.7436 81.3862 48.8432 81.4296C48.8519 81.4339 48.8563 81.4339 48.865 81.4382C49.8538 81.8497 50.8696 82.1928 51.9054 82.4652C53.9356 83.0066 56.0278 83.2805 58.1289 83.2799C58.8955 83.2799 59.6534 83.2452 60.4027 83.1716C62.1147 83.0135 63.8048 82.6721 65.444 82.1532C65.4485 82.1532 65.4527 82.1489 65.4569 82.1489C66.4924 81.8189 67.504 81.4178 68.4844 80.9486C68.4886 80.9442 68.4975 80.9442 68.5017 80.9399C68.7225 80.8359 68.9348 80.7232 69.1514 80.6149L69.2554 80.5629C69.4286 80.4719 69.6018 80.3809 69.775 80.2856C70.2081 80.0472 70.6326 79.7959 71.0528 79.5272C71.1697 79.4579 71.2822 79.3843 71.3992 79.3063C71.7802 79.0549 72.1571 78.7862 72.5208 78.5132C72.586 78.4656 72.6551 78.4179 72.7202 78.3659C76.7777 75.2843 79.7559 70.9966 81.2279 66.1173C82.6999 61.238 82.5902 56.0177 80.9145 51.2046ZM71.9232 77.3129C71.7802 77.4256 71.633 77.5339 71.4859 77.6336C71.3429 77.7419 71.1999 77.8459 71.0528 77.9412C70.9272 78.0322 70.8015 78.1189 70.6715 78.2012C70.5632 78.2749 70.4549 78.3442 70.3466 78.4136C69.9873 78.6389 69.6236 78.8556 69.2554 79.0636C69.2163 79.0853 69.1774 79.1069 69.1383 79.1286C68.9737 79.2196 68.8092 79.3062 68.6447 79.3929C68.6229 79.4059 68.5969 79.4146 68.5753 79.4276L68.5493 79.4406C68.3414 79.5489 68.1293 79.6529 67.917 79.7526C67.0981 80.1472 66.2547 80.4888 65.392 80.7752C65.2795 80.8142 65.1668 80.8532 65.0542 80.8879C63.5027 81.3816 61.9025 81.7071 60.2815 81.8586C59.5711 81.9236 58.8521 81.9582 58.1288 81.9582C56.1415 81.9623 54.1623 81.703 52.2431 81.1869C51.2581 80.9297 50.2927 80.6024 49.3543 80.2076C49.2547 80.1686 49.1551 80.1252 49.0597 80.0862C49.0079 80.0646 48.9601 80.0429 48.9081 80.0169C48.501 79.8392 48.0983 79.6442 47.7042 79.4406L47.5136 79.3409C47.0329 79.0896 46.5607 78.8209 46.1016 78.5349C45.9328 78.4309 45.7639 78.3226 45.5993 78.2099C45.0795 77.8676 44.5728 77.4993 44.079 77.1136C43.7456 76.8623 43.4252 76.5936 43.1132 76.3162C42.9487 76.1776 42.7884 76.0259 42.6325 75.8829C42.0185 75.3155 41.4372 74.7137 40.8915 74.0802C40.7096 73.8722 40.532 73.6642 40.363 73.4476C40.3246 73.4047 40.2884 73.3599 40.2547 73.3132C37.4407 69.7604 35.7481 65.4495 35.3928 60.9303C35.0375 56.4111 36.0355 51.8884 38.2597 47.939C40.4838 43.9896 43.8332 40.7925 47.8807 38.7555C51.9283 36.7184 56.4905 35.9337 60.9856 36.5014C65.4806 37.0692 69.7048 38.9636 73.1195 41.9431C76.5341 44.9226 78.9844 48.8522 80.1578 53.2307C81.3313 57.6091 81.1747 62.2381 79.7081 66.5272C78.2415 70.8163 75.5313 74.5712 71.9232 77.3129H71.9232Z" fill="#CBCBCB"/>
<path d="M229.217 87.1633C229.431 87.3191 229.632 87.4917 229.819 87.6792L253.1 83.0848L254.97 77.629L263.569 79.3773L261.196 89.3576C261.004 90.1639 260.556 90.8862 259.919 91.4161C259.282 91.946 258.49 92.2548 257.663 92.2963L230.7 93.6479C230.213 94.5443 229.464 95.271 228.554 95.7313C227.644 96.1917 226.615 96.3638 225.604 96.2248C224.594 96.0858 223.65 95.6423 222.897 94.9533C222.145 94.2643 221.62 93.3625 221.392 92.3677C221.165 91.3729 221.245 90.3324 221.623 89.3845C222.001 88.4366 222.658 87.6263 223.508 87.0613C224.357 86.4963 225.358 86.2035 226.378 86.2217C227.398 86.2399 228.388 86.5683 229.217 87.1633Z" fill="#FFB7B7"/>
<path d="M252.533 82.0058C252.38 81.7366 252.287 81.4376 252.26 81.1292C252.233 80.8208 252.273 80.5102 252.377 80.2187L256.011 70.0358C256.319 68.4821 257.23 67.1139 258.544 66.231C259.858 65.3482 261.469 65.0227 263.022 65.326C264.576 65.6294 265.946 66.5367 266.832 67.8491C267.718 69.1615 268.048 70.772 267.749 72.3273L267.223 83.1621C267.208 83.4713 267.127 83.7737 266.984 84.0486C266.842 84.3234 266.642 84.5644 266.398 84.755C266.155 84.9456 265.873 85.0814 265.572 85.1531C265.271 85.2249 264.958 85.2308 264.654 85.1707L253.987 83.0557C253.683 82.9957 253.396 82.8708 253.145 82.6896C252.894 82.5084 252.685 82.2751 252.533 82.0058Z" fill="#4487F5"/>
<path d="M246.694 214.074L239.849 214.073L236.593 187.659L246.695 187.659L246.694 214.074Z" fill="#FFB7B7"/>
<path d="M248.44 220.712L226.371 220.711V220.432C226.371 218.152 227.276 215.966 228.887 214.354C230.498 212.743 232.682 211.837 234.961 211.837H234.961L248.44 211.838L248.44 220.712Z" fill="#2F2E41"/>
<path d="M311.509 206.896L305.17 209.479L292.199 186.243L301.555 182.432L311.509 206.896Z" fill="#FFB7B7"/>
<path d="M315.627 212.386L295.186 220.712L295.081 220.453C294.222 218.342 294.237 215.976 295.121 213.875C296.006 211.775 297.688 210.112 299.798 209.252L299.798 209.252L312.283 204.167L315.627 212.386Z" fill="#2F2E41"/>
<path d="M252.921 104.391L249.772 87.7193C249.088 85.2646 248.966 82.6869 249.417 80.1786C249.867 77.6704 250.878 75.2964 252.374 73.2339L263.887 57.8328L274.884 58.1564C280.083 70.7638 281.041 84.7218 277.611 97.9217L275.59 105.702C284.655 113.882 290.732 136.819 296.264 162.45L311.43 196.008L285.339 203.933L268.434 154.719L253.333 204.3L231.222 203.45L248.04 126.758L252.921 104.391Z" fill="#2F2E41"/>
<path d="M270.442 54.72C276.367 54.72 281.169 49.9147 281.169 43.9871C281.169 38.0594 276.367 33.2541 270.442 33.2541C264.518 33.2541 259.715 38.0594 259.715 43.9871C259.715 49.9147 264.518 54.72 270.442 54.72Z" fill="#FFB7B7"/>
<path d="M312.784 68.3648C310.791 64.4698 310.111 60.047 308.577 55.9493C307.043 51.8515 304.257 47.7858 300.031 46.6565C297.635 46.0159 295.088 46.4069 292.626 46.1019C290.462 45.8338 288.131 44.728 287.302 42.8045C287.469 40.8977 287.231 38.9772 286.604 37.1689C285.059 32.7789 281.377 29.3133 277.084 27.5217C273.597 26.0664 269.581 25.6554 266.019 26.9192C262.458 28.183 259.469 31.2717 258.829 34.9976C258.188 38.7235 260.241 42.8839 263.781 44.2074C266.322 45.1577 269.594 44.8413 271.254 46.9887C272.935 49.1642 271.73 52.3347 270.203 54.6212L270.307 54.7272C275.294 54.7857 280.684 53.8217 284.119 50.2041C284.492 49.8091 284.835 49.387 285.145 48.9411C285.25 49.1099 285.36 49.2746 285.479 49.4319C287.208 51.7298 289.916 53.0334 292.496 54.3033C295.075 55.5733 297.751 56.9987 299.3 59.4218C302.1 63.8007 300.262 69.6983 301.863 74.6437C302.576 76.8452 303.95 78.7731 305.799 80.1643C307.647 81.5555 309.879 82.3423 312.191 82.4173C314.502 82.4923 316.781 81.8519 318.715 80.5834C320.65 79.3149 322.146 77.4802 323 75.3295C318.642 75.6938 314.777 72.2599 312.784 68.3648Z" fill="#2F2E41"/>
<path d="M208.826 95.8296L209.28 84.8008L224.848 53.8308C225.287 52.9503 226.003 52.2383 226.886 51.8042C227.426 51.5345 228.015 51.3753 228.618 51.3359C229.22 51.2966 229.825 51.3778 230.396 51.5749C231.057 51.8031 231.657 52.181 232.148 52.6791C232.639 53.1773 233.009 53.7823 233.228 54.4469C233.322 54.7339 233.388 55.0292 233.425 55.3289C233.536 56.2182 233.379 57.1203 232.974 57.9197L217.384 88.9317L208.826 95.8296Z" fill="#4487F5"/>
<path d="M228.825 51.5438L211.925 85.1618L210.637 84.5134L226.982 51.9987C227.554 51.7118 228.184 51.5564 228.825 51.5438Z" fill="#3F3D56"/>
<path d="M233.21 55.3564L216.955 87.693L215.667 87.0446L232.531 53.4963C232.739 53.8129 232.904 54.1553 233.022 54.5148C233.112 54.7887 233.175 55.0705 233.21 55.3564Z" fill="#3F3D56"/>
<path d="M231.592 52.4708L214.506 86.4605L213.217 85.8121L230.325 51.7798C230.507 51.8422 230.685 51.9171 230.857 52.004C231.117 52.135 231.363 52.2914 231.592 52.4708Z" fill="#3F3D56"/>
<path d="M210.781 93.9766L209.062 95.3621L209.206 91.7094C209.796 91.9143 210.435 92.8034 210.781 93.9766Z" fill="#3F3D56"/>
<path d="M228.508 59.2569C228.567 59.5152 228.605 59.7777 228.622 60.0421L249.177 71.9062L254.173 69.0285L259.499 76.0048L251.149 81.9591C250.475 82.4401 249.662 82.6893 248.834 82.6691C248.006 82.6489 247.207 82.3605 246.557 81.8472L225.361 65.1173C224.405 65.4715 223.363 65.526 222.375 65.2735C221.387 65.021 220.499 64.4734 219.829 63.7037C219.16 62.9339 218.74 61.9784 218.626 60.9642C218.513 59.9501 218.711 58.9253 219.193 58.0263C219.676 57.1273 220.421 56.3966 221.328 55.9315C222.236 55.4663 223.264 55.2887 224.275 55.4223C225.287 55.5559 226.233 55.9943 226.989 56.6793C227.745 57.3643 228.275 58.2633 228.508 59.2569Z" fill="#FFB7B7"/>
<path d="M249.459 70.7203C249.521 70.417 249.648 70.1306 249.83 69.8806C250.013 69.6307 250.247 69.4231 250.517 69.2721L259.95 63.9951C261.203 63.0273 262.789 62.5962 264.359 62.7963C265.929 62.9964 267.356 63.8114 268.327 65.0626C269.298 66.3138 269.733 67.8991 269.537 69.4709C269.342 71.0426 268.531 72.4727 267.283 73.4474L259.763 81.2609C259.548 81.4839 259.288 81.658 259 81.7713C258.712 81.8846 258.403 81.9345 258.094 81.9176C257.785 81.9007 257.484 81.8173 257.21 81.6732C256.936 81.5291 256.696 81.3276 256.507 81.0825L249.864 72.4681C249.675 72.2231 249.541 71.9401 249.471 71.6384C249.401 71.3368 249.397 71.0236 249.459 70.7203Z" fill="#4487F5"/>
<path d="M321.633 221H156.622C156.507 221 156.397 220.954 156.315 220.873C156.234 220.792 156.188 220.682 156.188 220.567C156.188 220.452 156.234 220.342 156.315 220.26C156.397 220.179 156.507 220.133 156.622 220.133H321.633C321.748 220.133 321.858 220.179 321.94 220.26C322.021 220.342 322.067 220.452 322.067 220.567C322.067 220.682 322.021 220.792 321.94 220.873C321.858 220.954 321.748 221 321.633 221Z" fill="#CBCBCB"/>
</g>
<defs>
<clipPath id="clip0_631_12644">
<rect width="323" height="221" fill="white"/>
</clipPath>
</defs>
</svg>
