<svg width="24" height="24" viewBox="0 0 24 24" fill="none" xmlns="http://www.w3.org/2000/svg">
<path d="M9.81586 12.2385L9.81579 12.2385V12.2481C9.81579 13.04 9.25476 13.5666 8.68341 13.5666C8.12414 13.5666 7.55099 13.036 7.55099 12.2482C7.55099 11.4564 8.112 10.9296 8.68341 10.9296C9.26732 10.9296 9.82705 11.4676 9.81586 12.2385ZM16.4615 12.2385L16.4614 12.2385V12.2481C16.4614 13.0419 15.9065 13.5666 15.329 13.5666C14.7698 13.5666 14.1966 13.036 14.1966 12.2482C14.1966 11.4564 14.7576 10.9296 15.329 10.9296C15.913 10.9296 16.4727 11.4676 16.4615 12.2385Z" fill="white" stroke="white" stroke-width="1.33"/>
<path d="M16.278 20.3653C15.8787 19.8199 15.5204 19.2462 15.2061 18.649L15.2054 18.6477C15.1861 18.6108 15.1701 18.5724 15.1574 18.5329C13.0769 19.0727 10.9254 19.071 8.83304 18.5288C8.82063 18.5683 8.80486 18.6067 8.78586 18.6437L21.8878 17.5133L22.2796 18.0507C22.2789 18.0511 22.2783 18.0516 22.2777 18.052C20.7057 19.1978 18.947 20.0708 17.0775 20.634M16.278 20.3653C16.2777 20.3649 16.2774 20.3644 16.277 20.364L16.8155 19.9738L16.279 20.3667C16.2787 20.3662 16.2783 20.3658 16.278 20.3653ZM16.278 20.3653C16.3679 20.4888 16.4935 20.5798 16.6361 20.6274C16.7791 20.6751 16.9333 20.6774 17.0775 20.634M17.0775 20.634L16.8857 19.9972L17.0775 20.634ZM17.3895 17.521C17.3492 17.5442 17.3088 17.5671 17.2682 17.5897M17.3895 17.521C17.3986 17.5157 17.4061 17.5083 17.4116 17.4994C17.417 17.4905 17.4201 17.4805 17.4207 17.4701C17.4212 17.4598 17.4192 17.4495 17.4147 17.4401C17.4102 17.4307 17.4035 17.4225 17.395 17.4163L17.2682 17.5897M17.3895 17.521L17.3579 17.4671L17.2682 17.5897M17.3895 17.521L17.3584 17.4669L17.3584 17.4669L17.3584 17.4668L17.3583 17.4666L17.2682 17.5897M7.70577 20.3725C8.11333 19.8266 8.47454 19.2485 8.78569 18.644L14.214 4.70704C14.0993 4.91216 13.9906 5.12053 13.8882 5.33188C12.6344 5.18426 11.3671 5.18433 10.1132 5.33208C10.0082 5.11801 9.89614 4.90732 9.77728 4.70034L9.77736 4.70029L9.77172 4.69083C9.6962 4.56423 9.58476 4.46466 9.45333 4.40347C9.32199 4.34232 9.17574 4.32178 9.03323 4.34388L9.03322 4.34382L9.02388 4.3454C7.56332 4.59329 6.14151 5.02698 4.79415 5.6357C4.66915 5.69096 4.56127 5.78099 4.48442 5.89654C1.80146 9.8427 1.05863 13.7155 1.42062 17.5301L1.42056 17.5301L1.42156 17.5393C1.43235 17.6384 1.46325 17.7339 1.51198 17.8201C1.56068 17.9063 1.62608 17.9812 1.70381 18.0409L1.71033 18.0459L1.71698 18.0507C3.28732 19.1953 5.04335 20.0686 6.91003 20.6338L6.91003 20.6338L6.91441 20.6351C7.05534 20.6767 7.20562 20.6749 7.34557 20.6297C7.48557 20.5846 7.60993 20.4977 7.70083 20.3791L7.70087 20.3791L7.70577 20.3725ZM21.9138 17.468L22.5757 17.5331C22.5757 17.5326 22.5757 17.5322 22.5758 17.5317C22.5759 17.5306 22.576 17.5295 22.5761 17.5284L21.9138 17.468ZM14.7945 5.03149L14.2142 4.7067L14.7945 5.03149ZM14.9796 4.34689C14.9779 4.34657 14.9762 4.34625 14.9744 4.34595C14.9734 4.34578 14.9724 4.34561 14.9714 4.34544L14.8599 5.00102L14.9796 4.34689ZM19.2046 5.63736C19.2029 5.63657 19.2011 5.63577 19.1994 5.63498C19.1929 5.63214 19.1863 5.62939 19.1798 5.62673L18.9309 6.24342L19.2046 5.63736ZM19.5459 5.95808C19.5359 5.93918 19.5253 5.92083 19.5138 5.90306C19.5105 5.89831 19.5073 5.89357 19.504 5.88883L18.9569 6.26685L19.5459 5.95808ZM17.2669 17.5903C17.2535 17.5978 17.2401 17.6052 17.2267 17.6126C17.2251 17.6135 17.2235 17.6144 17.222 17.6152C17.1431 17.6586 17.0638 17.7009 16.9839 17.7422C16.9453 17.7621 16.9067 17.7817 16.8679 17.8012C16.8632 17.7997 16.8586 17.7982 16.854 17.7967C16.8393 17.7742 16.826 17.7506 16.8143 17.726C16.7912 17.6776 16.7748 17.6263 16.7653 17.5736L16.8717 17.4412L17.0183 17.2589L17.0449 17.2258L17.0454 17.2252L17.0455 17.225L17.2669 17.5903ZM15.7994 18.3483C15.8642 18.4712 15.9309 18.5931 15.9996 18.7138L16.0595 18.8756C16.0687 18.8722 16.0779 18.8687 16.0871 18.8653L15.7994 18.3483ZM16.0619 18.8747L16.0057 18.7245C16.0324 18.7714 16.0594 18.8181 16.0868 18.8647C16.0786 18.8682 16.0703 18.8715 16.0619 18.8747Z" stroke="white" stroke-width="1.33"/>
</svg>
