<svg id="Layer_1" data-name="Layer 1" xmlns="http://www.w3.org/2000/svg" viewBox="0 0 871.85 303.6"><defs><style>.cls-1{font-size:61.18px;letter-spacing:-0.01em;}.cls-1,.cls-18{fill:#656c73;font-family:GoogleSansDisplay-Regular, Google Sans Display;}.cls-2{letter-spacing:-0.01em;}.cls-3{letter-spacing:0em;}.cls-4{letter-spacing:-0.02em;}.cls-5{letter-spacing:-0.01em;}.cls-6{letter-spacing:-0.01em;}.cls-7{letter-spacing:0.01em;}.cls-8{letter-spacing:-0.04em;}.cls-9{letter-spacing:-0.03em;}.cls-10{letter-spacing:-0.01em;}.cls-11{letter-spacing:-0.04em;}.cls-12{letter-spacing:-0.03em;}.cls-13{letter-spacing:-0.02em;}.cls-14{fill:#ea4335;}.cls-15{fill:#4285f4;}.cls-16{fill:#fbbc04;}.cls-17{fill:#0f9d58;}.cls-18{font-size:43.01px;}.cls-19{letter-spacing:-0.03em;}.cls-20{letter-spacing:0em;}.cls-21{letter-spacing:0em;}.cls-22{letter-spacing:0em;}</style></defs><text class="cls-1" transform="translate(0 220.08)">G<tspan class="cls-2" x="48.7" y="0">oog</tspan><tspan x="153.44" y="0">l</tspan><tspan class="cls-2" x="165.31" y="0">e </tspan><tspan class="cls-3" x="211.92" y="0">D</tspan><tspan class="cls-4" x="254.5" y="0">e</tspan><tspan class="cls-5" x="286.93" y="0">v</tspan><tspan class="cls-6" x="317.33" y="0">e</tspan><tspan x="350.37" y="0">lo</tspan><tspan class="cls-7" x="396.62" y="0">p</tspan><tspan class="cls-2" x="433.08" y="0">er</tspan><tspan class="cls-8" x="487.9" y="0"> </tspan><tspan class="cls-9" x="499.64" y="0">S</tspan><tspan class="cls-10" x="531.7" y="0">t</tspan><tspan x="552.99" y="0">ud</tspan><tspan class="cls-2" x="621.14" y="0">e</tspan><tspan class="cls-11" x="654.18" y="0">n</tspan><tspan class="cls-2" x="685.93" y="0">t</tspan><tspan class="cls-12" x="707.22" y="0"> </tspan><tspan class="cls-13" x="719.58" y="0">C</tspan><tspan class="cls-2" x="763.51" y="0">lu</tspan><tspan x="808.96" y="0">b</tspan><tspan class="cls-2" x="844.14" y="0">s</tspan></text><path class="cls-14" d="M896.74,480.88,936,458.24a19.3,19.3,0,0,0-19.3-33.43l-67.77,39.13Z" transform="translate(-524.07 -422.22)"/><path class="cls-15" d="M926.29,539.09a19.31,19.31,0,0,0,9.67-36l-67.77-39.13a19.3,19.3,0,1,0-19.3,33.43l67.77,39.13A19.27,19.27,0,0,0,926.29,539.09Z" transform="translate(-524.07 -422.22)"/><path class="cls-16" d="M993.71,539.09a19.27,19.27,0,0,0,9.63-2.59l67.77-39.13-47.24-17.3-39.83,23a19.31,19.31,0,0,0,9.67,36Z" transform="translate(-524.07 -422.22)"/><path class="cls-17" d="M1061.45,500a19.3,19.3,0,0,0,9.66-36l-67.77-39.13A19.3,19.3,0,0,0,984,458.24l67.78,39.13A19.21,19.21,0,0,0,1061.45,500Z" transform="translate(-524.07 -422.22)"/><text class="cls-18" transform="translate(310.34 292.72)">IIIT<tspan class="cls-19" x="54.49" y="0"> </tspan><tspan x="63.18" y="0">Al</tspan><tspan class="cls-20" x="100.9" y="0">l</tspan><tspan x="109.67" y="0">a</tspan><tspan class="cls-21" x="132.12" y="0">h</tspan><tspan x="155.73" y="0">ab</tspan><tspan class="cls-21" x="203.56" y="0">a</tspan><tspan class="cls-22" x="225.8" y="0">d</tspan></text></svg>