<?xml version="1.0" encoding="utf-8"?>
<!-- Generator: Adobe Illustrator 25.4.1, SVG Export Plug-In . SVG Version: 6.00 Build 0)  -->
<svg version="1.1" id="Layer_1" xmlns="http://www.w3.org/2000/svg" xmlns:xlink="http://www.w3.org/1999/xlink" x="0px" y="0px"
	 viewBox="0 0 1018.7 124.8" style="enable-background:new 0 0 1018.7 124.8;" xml:space="preserve">
<style type="text/css">
	.st0{fill:#FFFFFF;}
	.st1{font-family:'ArialMT';}
	.st2{font-size:43.01px;}
</style>
<path class="st0" d="M48.5,40.5l-34-19.6c-1.5-0.9-3.1-1.3-4.8-1.3C4.3,19.6,0,24,0,29.3c0,3.4,1.8,6.5,4.8,8.3l34,19.6
	c4.5,2.8,10.5,1.4,13.3-3.2s1.4-10.5-3.2-13.3C48.8,40.6,48.6,40.6,48.5,40.5L48.5,40.5z"/>
<path class="st0" d="M116.2,20.9l-34-19.6C77.6-1.4,71.7,0.2,69,4.8S67.9,15.3,72.5,18l34,19.6c4.6,2.7,10.5,1.1,13.2-3.5
	C122.4,29.5,120.8,23.6,116.2,20.9z"/>
<path class="st0" d="M105.2,40l-15.8-9.2l-16.8,9.7c-4.6,2.7-6.2,8.6-3.5,13.2s8.6,6.2,13.2,3.5l27.3-15.8
	C108,41.3,106.5,40.8,105.2,40z"/>
<path class="st0" d="M15.9,18.6l15.9,9.2l16.8-9.7c4.6-2.7,6.2-8.6,3.5-13.2s-8.6-6.2-13.2-3.5L11.5,17.1
	C13,17.3,14.5,17.8,15.9,18.6z"/>
<path class="st0" d="M159.4,48.3c-3.5-2-6.3-4.8-8.3-8.3c-4.1-7.2-4.1-16.1,0-23.3c2-3.5,4.8-6.3,8.3-8.3s7.4-3,11.5-3
	c3.1,0,6.2,0.6,9.1,1.7c2.7,1,5.1,2.7,7,4.8l-3.8,3.7c-1.4-1.8-3.3-3.1-5.4-4c-2.2-0.9-4.6-1.4-7-1.4c-3,0-6,0.8-8.6,2.2
	c-2.7,1.5-4.9,3.7-6.5,6.3c-3.2,5.9-3.2,13,0,18.8c1.5,2.7,3.8,4.9,6.4,6.4c2.6,1.5,5.6,2.3,8.6,2.2c4.7,0.2,9.3-1.6,12.6-5
	c1.1-1.2,2-2.6,2.6-4.2c0.7-1.7,1.1-3.5,1.2-5.3H171V27h21.1c0.2,1.1,0.3,2.1,0.3,3.2c0,2.7-0.4,5.3-1.3,7.9
	c-0.8,2.5-2.2,4.8-4.1,6.7c-4.1,4.4-9.5,6.6-16.1,6.6C166.9,51.4,162.9,50.3,159.4,48.3z"/>
<path class="st0" d="M203.9,49.2c-2.4-1.4-4.3-3.4-5.5-5.8c-2.7-5.2-2.7-11.3,0-16.5c1.3-2.4,3.2-4.4,5.5-5.8c2.4-1.4,5.2-2.1,8-2.1
	s5.6,0.7,8.1,2.1c2.4,1.4,4.3,3.4,5.6,5.8c2.7,5.2,2.7,11.3,0,16.5c-1.3,2.4-3.2,4.4-5.6,5.8c-2.4,1.4-5.2,2.2-8.1,2.1
	C209.1,51.4,206.3,50.6,203.9,49.2z M217.1,45.2c1.6-1,2.9-2.3,3.8-4c1.9-3.8,1.9-8.3,0-12.1c-0.9-1.7-2.2-3-3.8-4
	c-3.2-1.9-7.1-1.9-10.2,0c-1.6,1-2.9,2.3-3.8,4c-1.9,3.8-1.9,8.3,0,12.1c0.9,1.7,2.2,3,3.8,4C210,47.1,213.9,47.1,217.1,45.2z"/>
<path class="st0" d="M238.7,49.2c-2.3-1.4-4.3-3.4-5.5-5.8c-2.7-5.2-2.7-11.3,0-16.5c1.3-2.4,3.2-4.4,5.5-5.8c2.4-1.4,5.2-2.1,8-2.1
	s5.6,0.7,8.1,2.1c2.4,1.4,4.3,3.4,5.6,5.8c2.7,5.2,2.7,11.3,0,16.5c-1.3,2.4-3.2,4.4-5.6,5.8c-2.4,1.4-5.2,2.2-8.1,2.1
	C243.9,51.4,241.1,50.6,238.7,49.2z M251.9,45.2c1.6-1,2.9-2.3,3.8-4c1.9-3.8,1.9-8.3,0-12.1c-0.9-1.7-2.2-3-3.8-4
	c-3.2-1.9-7.1-1.9-10.2,0c-1.6,1-2.9,2.3-3.8,4c-1.9,3.8-1.9,8.3,0,12.1c0.9,1.7,2.2,3,3.8,4C244.8,47.1,248.7,47.1,251.9,45.2z"/>
<path class="st0" d="M272,62c-2.2-1.5-3.8-3.7-4.8-6.1l4.8-2c0.6,1.8,1.7,3.3,3.3,4.4c1.6,1.1,3.6,1.7,5.6,1.7
	c3.2,0,5.7-0.9,7.5-2.8c1.7-1.9,2.6-4.5,2.6-7.9V46h-0.2c-1.1,1.6-2.5,3-4.2,3.9c-1.9,1-4.1,1.6-6.3,1.5c-2.5,0-5-0.7-7.2-2.1
	c-2.2-1.4-4.1-3.4-5.3-5.8c-2.6-5.2-2.6-11.4,0-16.6c1.2-2.4,3-4.4,5.3-5.8c2.1-1.4,4.6-2.1,7.2-2.1c2.2,0,4.3,0.5,6.3,1.5
	c1.7,0.9,3.2,2.2,4.2,3.9h0.2V20h5v29.2c0.1,3-0.6,5.9-2,8.5c-1.2,2.2-3.1,4.1-5.4,5.2c-2.4,1.2-5,1.8-7.7,1.7
	C277.8,64.7,274.6,63.8,272,62z M286.1,45.2c1.6-1,2.8-2.4,3.7-4c1-1.9,1.4-4,1.4-6.1s-0.4-4.2-1.4-6.1c-0.8-1.6-2.1-3-3.7-4
	c-1.5-0.9-3.2-1.4-5-1.4s-3.5,0.5-5,1.4c-1.6,1-2.8,2.4-3.7,4c-1.8,3.9-1.8,8.3,0,12.2c0.8,1.6,2.1,3,3.7,4
	C279.2,47.1,283,47.1,286.1,45.2L286.1,45.2z"/>
<path class="st0" d="M303.1,6.4h5.2v43.9h-5.2V6.4z"/>
<path class="st0" d="M320.7,49.3c-2.3-1.4-4.2-3.4-5.4-5.8c-1.3-2.6-2-5.4-2-8.3c0-2.8,0.6-5.6,1.8-8.1c1.2-2.4,3-4.4,5.2-5.9
	c2.3-1.5,5.1-2.2,7.8-2.2c2.7-0.1,5.4,0.6,7.8,2c2.2,1.3,4,3.3,5.1,5.6c1.2,2.6,1.8,5.5,1.8,8.3c0,0.4,0,0.8-0.1,1.2h-24.1
	c0,2,0.6,4,1.7,5.8c0.9,1.5,2.3,2.7,3.8,3.5s3.1,1.2,4.8,1.2c3.8,0,6.8-1.9,8.9-5.7l4.6,2.2c-1.3,2.4-3.1,4.4-5.4,5.9
	C331.9,52,325.8,52.1,320.7,49.3L320.7,49.3z M337.4,31.8c-0.1-1.3-0.5-2.5-1-3.7c-0.7-1.3-1.7-2.4-3-3.1c-1.6-0.9-3.4-1.4-5.2-1.3
	c-2.2-0.1-4.4,0.7-6,2.2c-1.7,1.5-2.8,3.6-3.2,5.9H337.4z"/>
<path class="st0" d="M362.8,6.4h13.3c4.1-0.1,8.2,0.9,11.8,2.8c3.3,1.8,6,4.5,7.7,7.8c3.6,7.2,3.6,15.6,0,22.8
	c-1.8,3.3-4.5,6-7.7,7.8c-3.6,1.9-7.7,2.9-11.8,2.8h-13.3V6.4z M376.1,45.4c5.2,0,9.3-1.5,12.3-4.5s4.5-7.2,4.5-12.5
	s-1.5-9.5-4.5-12.5s-7.1-4.5-12.3-4.5H368v34H376.1z"/>
<path class="st0" d="M410.2,49.3c-2.3-1.4-4.2-3.4-5.4-5.8c-1.4-2.6-2-5.4-2-8.3c0-2.8,0.6-5.6,1.8-8.1c1.2-2.4,3-4.4,5.3-5.9
	s5.1-2.2,7.8-2.2c2.7-0.1,5.4,0.6,7.8,2c2.2,1.3,4,3.3,5.1,5.6c1.2,2.6,1.8,5.5,1.8,8.3c0,0.4,0,0.8-0.1,1.2H408
	c0,2,0.6,4.1,1.7,5.8c0.9,1.5,2.3,2.7,3.8,3.5s3.1,1.2,4.7,1.2c3.8,0,6.8-1.9,8.9-5.7l4.6,2.2c-1.2,2.4-3.1,4.5-5.4,5.9
	C421.4,52,415.2,52.1,410.2,49.3L410.2,49.3z M426.8,31.8c-0.1-1.3-0.4-2.5-1-3.7c-0.7-1.3-1.7-2.4-3-3.1c-1.6-0.9-3.4-1.4-5.2-1.3
	c-2.2,0-4.3,0.7-6,2.2s-2.8,3.6-3.2,5.9H426.8z"/>
<path class="st0" d="M433.6,19.9h5.7l9.3,24.3h0.1l9.5-24.3h5.5l-12.5,30.4h-5.3L433.6,19.9z"/>
<path class="st0" d="M473.2,49.3c-2.3-1.4-4.2-3.4-5.4-5.8c-1.4-2.6-2-5.4-2-8.3c0-2.8,0.6-5.6,1.8-8.1c1.2-2.4,3-4.4,5.2-5.9
	c2.3-1.5,5.1-2.2,7.8-2.2c2.7-0.1,5.4,0.6,7.8,2c2.2,1.3,4,3.3,5.1,5.6c1.2,2.6,1.8,5.5,1.8,8.3c0,0.4,0,0.8-0.1,1.2H471
	c0,2,0.6,4,1.7,5.8c0.9,1.5,2.3,2.7,3.8,3.5s3.1,1.2,4.8,1.2c3.9,0,6.8-1.9,8.9-5.7l4.6,2.2c-1.3,2.4-3.1,4.4-5.4,5.9
	C484.4,52,478.2,52.1,473.2,49.3L473.2,49.3z M489.8,31.8c-0.1-1.3-0.4-2.5-1-3.7c-0.7-1.3-1.7-2.4-3-3.1c-1.6-0.9-3.4-1.4-5.2-1.3
	c-2.2,0-4.3,0.7-6,2.2s-2.8,3.6-3.2,5.9H489.8z"/>
<path class="st0" d="M500.6,6.4h5.2v43.9h-5.2V6.4z"/>
<path class="st0" d="M518.4,49.2c-2.3-1.4-4.3-3.4-5.5-5.8c-2.7-5.2-2.7-11.3,0-16.5c1.3-2.4,3.2-4.4,5.5-5.8c2.4-1.4,5.2-2.1,8-2.1
	s5.6,0.7,8.1,2.1c2.4,1.4,4.3,3.4,5.6,5.8c2.7,5.2,2.7,11.3,0,16.5c-1.3,2.4-3.2,4.4-5.6,5.8c-2.4,1.4-5.2,2.2-8.1,2.1
	C523.6,51.4,520.8,50.6,518.4,49.2z M531.5,45.2c1.6-1,2.9-2.3,3.8-4c1.9-3.8,1.9-8.3,0-12.1c-0.9-1.7-2.2-3-3.8-4
	c-3.2-1.9-7.1-1.9-10.2,0c-1.6,1-2.9,2.3-3.8,4c-1.9,3.8-1.9,8.3,0,12.1c0.9,1.7,2.2,3,3.8,4C524.5,47.1,528.4,47.1,531.5,45.2z"/>
<path class="st0" d="M546.8,19.9h5v4.5h0.2c1.1-1.6,2.5-3,4.2-3.9c2-1.1,4.2-1.6,6.4-1.6c2.6,0,5.1,0.7,7.2,2.1
	c2.2,1.4,4.1,3.4,5.3,5.8c2.6,5.2,2.6,11.4,0,16.6c-1.2,2.4-3,4.4-5.3,5.8c-2.2,1.4-4.7,2.1-7.2,2.1c-2.2,0-4.4-0.5-6.4-1.6
	c-1.7-0.9-3.2-2.3-4.2-4h-0.2L552,50v13.6h-5.2V19.9z M566.8,45.2c1.6-1,2.8-2.4,3.7-4c1.9-3.8,1.9-8.3,0-12.1c-0.8-1.6-2.1-3-3.7-4
	c-1.5-0.9-3.2-1.4-5-1.4s-3.5,0.5-5,1.4c-1.6,1-2.8,2.4-3.7,4c-1.8,3.9-1.8,8.3,0,12.2c0.8,1.6,2.1,3,3.7,4c1.5,0.9,3.2,1.4,5,1.4
	C563.5,46.7,565.3,46.2,566.8,45.2L566.8,45.2z"/>
<path class="st0" d="M589.2,49.3c-2.3-1.4-4.2-3.4-5.4-5.8c-1.4-2.6-2-5.4-2-8.3c0-2.8,0.6-5.6,1.8-8.1c1.2-2.4,3-4.4,5.2-5.9
	c2.3-1.5,5.1-2.2,7.8-2.2c2.7-0.1,5.4,0.6,7.8,2c2.2,1.3,4,3.3,5.1,5.6c1.2,2.6,1.8,5.5,1.8,8.3c0,0.4,0,0.8-0.1,1.2H587
	c0,2,0.6,4,1.7,5.8c0.9,1.5,2.3,2.7,3.8,3.5s3.1,1.2,4.8,1.2c3.8,0,6.8-1.9,8.9-5.7l4.6,2.2c-1.3,2.4-3.1,4.4-5.4,5.9
	C600.4,52,594.3,52.1,589.2,49.3L589.2,49.3z M605.9,31.8c-0.1-1.3-0.4-2.5-1-3.7c-0.7-1.3-1.7-2.4-3-3.1c-1.6-0.9-3.4-1.4-5.2-1.3
	c-2.2-0.1-4.4,0.7-6,2.2c-1.7,1.5-2.8,3.6-3.2,5.9H605.9z"/>
<path class="st0" d="M616.7,19.9h5v5h0.2c0.7-1.8,1.9-3.3,3.5-4.2c1.6-1.1,3.4-1.7,5.3-1.7c1.2,0,2.4,0.2,3.6,0.6v5.5
	c-1.3-0.7-2.8-1-4.3-0.9c-1.4,0-2.8,0.4-4,1.3c-1.3,0.8-2.3,2-3,3.3c-0.7,1.4-1.1,3-1.1,4.6v17h-5.2V19.9z"/>
<path class="st0" d="M657.2,50c-4.4-2-7.7-5.8-8.9-10.5l5-2c0.6,2.5,2,4.7,3.9,6.5c1.8,1.6,4.1,2.5,6.6,2.5c2.3,0.1,4.6-0.6,6.5-2
	c1.7-1.3,2.7-3.4,2.6-5.6c0-1.9-0.8-3.8-2.2-5.1c-2.2-1.7-4.7-3-7.3-3.7l-2.8-1c-2.8-0.9-5.4-2.4-7.6-4.4c-2-1.9-3.1-4.7-3-7.5
	c0-2.1,0.6-4.1,1.7-5.8c1.2-1.8,2.8-3.3,4.8-4.3c2.1-1.1,4.5-1.6,6.8-1.6c2.3-0.1,4.6,0.4,6.7,1.4c1.7,0.8,3.3,2,4.5,3.4
	c1,1.2,1.8,2.5,2.3,4l-4.8,2.1c-0.5-1.6-1.5-3.1-2.8-4.1c-1.6-1.3-3.7-1.9-5.7-1.8c-2.1-0.1-4.1,0.6-5.8,1.9
	c-1.5,1.1-2.4,2.9-2.4,4.7c0,1.6,0.7,3.2,2,4.2c1.9,1.3,3.9,2.3,6.1,3l2.8,1c3.2,1.1,6.2,2.8,8.8,5.1c2.2,2.2,3.3,5.2,3.2,8.2
	c0.1,2.5-0.7,5.1-2.2,7.1c-1.4,1.9-3.3,3.4-5.5,4.2c-2.2,0.9-4.5,1.4-6.9,1.3C661.4,51.3,659.2,50.9,657.2,50z"/>
<path class="st0" d="M690.8,50.7c-1-0.4-1.9-1-2.7-1.7c-0.8-0.8-1.4-1.7-1.8-2.8c-0.4-1.2-0.6-2.5-0.6-3.8V24.7h-5.4V20h5.4v-9.1
	h5.2V20h7.5v4.7h-7.5v16.6c-0.1,1.4,0.2,2.7,1,3.9c0.8,1,2,1.5,3.2,1.4c1.2,0,2.3-0.3,3.3-0.9v5c-0.6,0.2-1.2,0.4-1.9,0.5
	c-0.8,0.1-1.6,0.2-2.4,0.2C693,51.3,691.9,51.1,690.8,50.7z"/>
<path class="st0" d="M706.5,48.1c-2-2.2-2.9-5.2-2.9-9V19.9h5.2v18.3c0,5.6,2.5,8.4,7.6,8.4c1.6,0,3.2-0.5,4.5-1.4s2.4-2.2,3.1-3.7
	c0.7-1.5,1.1-3.1,1.1-4.8V19.9h5.2v30.4h-4.9v-4.5H725c-1,1.6-2.4,3-4.1,3.9c-1.8,1-3.8,1.6-5.9,1.6
	C711.3,51.3,708.5,50.3,706.5,48.1z"/>
<path class="st0" d="M742.4,49.3c-2.2-1.4-4.1-3.4-5.3-5.8c-2.6-5.2-2.6-11.4,0-16.6c1.2-2.4,3-4.4,5.3-5.8c2.2-1.4,4.7-2.1,7.2-2.1
	c2.2,0,4.4,0.5,6.4,1.6c1.7,0.9,3.2,2.2,4.2,3.9h0.2l-0.2-4.2V6.4h5.2v43.9h-4.9v-4.5h-0.2c-1,1.7-2.5,3.1-4.2,4
	c-2,1.1-4.2,1.6-6.4,1.6C747.1,51.4,744.6,50.6,742.4,49.3z M755.4,45.3c1.6-1,2.8-2.4,3.7-4c1.8-3.9,1.8-8.3,0-12.2
	c-0.8-1.6-2.1-3-3.7-4c-1.5-0.9-3.2-1.4-5-1.4s-3.5,0.5-5,1.4c-1.6,1-2.8,2.4-3.7,4c-1.8,3.8-1.8,8.3,0,12.1c0.8,1.6,2.1,3,3.7,4
	c1.5,0.9,3.2,1.4,5,1.4S754,46.2,755.4,45.3L755.4,45.3z"/>
<path class="st0" d="M777.9,49.3c-2.3-1.4-4.2-3.4-5.4-5.8c-1.3-2.6-2-5.4-2-8.3c0-2.8,0.6-5.6,1.8-8.1c1.2-2.4,3-4.4,5.2-5.9
	c2.3-1.5,5.1-2.2,7.8-2.2c2.7-0.1,5.4,0.6,7.8,2c2.2,1.3,4,3.3,5.1,5.6c1.2,2.6,1.8,5.5,1.8,8.3c0,0.4,0,0.8-0.1,1.2h-24.2
	c0,2,0.6,4,1.7,5.8c0.9,1.5,2.3,2.7,3.8,3.5s3.1,1.2,4.8,1.2c3.8,0,6.8-1.9,8.9-5.7l4.6,2.2c-1.3,2.4-3.1,4.4-5.4,5.9
	C789,52,782.9,52.1,777.9,49.3L777.9,49.3z M794.5,31.8c-0.1-1.3-0.4-2.5-1-3.7c-0.7-1.3-1.7-2.4-3-3.1c-1.6-0.9-3.4-1.4-5.2-1.3
	c-2.2-0.1-4.4,0.7-6,2.2c-1.7,1.5-2.8,3.6-3.2,5.9H794.5z"/>
<path class="st0" d="M805.3,19.9h5v4.5h0.2c0.9-1.7,2.3-3,4-3.9c1.8-1,3.8-1.6,5.9-1.6c3.7,0,6.6,1.1,8.5,3.2s2.9,5.1,2.9,8.9v19.3
	h-5.2V31.9c0-5.5-2.6-8.2-7.7-8.2c-1.6,0-3.1,0.5-4.4,1.4c-1.3,1-2.3,2.2-3,3.7s-1.1,3.1-1.1,4.8v16.8h-5.2L805.3,19.9z"/>
<path class="st0" d="M845.5,50.7c-1-0.4-1.9-1-2.7-1.7c-0.8-0.8-1.4-1.7-1.8-2.8c-0.4-1.2-0.6-2.5-0.6-3.8V24.7H835V20h5.4v-9.1h5.2
	V20h7.5v4.7h-7.5v16.6c-0.1,1.4,0.3,2.8,1.1,3.9c0.8,1,2,1.5,3.2,1.4c1.2,0,2.3-0.3,3.3-0.9v5c-0.6,0.2-1.2,0.4-1.9,0.5
	c-0.8,0.1-1.6,0.2-2.4,0.2C847.7,51.3,846.6,51.1,845.5,50.7z"/>
<path class="st0" d="M881,48.3c-3.4-2-6.3-4.8-8.2-8.3c-4-7.3-4-16,0-23.3c1.9-3.5,4.8-6.3,8.2-8.3c3.5-2,7.5-3,11.5-3
	c3.1,0,6.2,0.6,9,1.9c2.7,1.2,5.1,3.1,7,5.3l-3.7,3.6c-1.5-1.9-3.4-3.4-5.5-4.4c-2.2-1-4.5-1.5-6.9-1.4c-3,0-6.1,0.7-8.7,2.2
	c-2.7,1.5-4.8,3.7-6.3,6.3c-3.1,5.9-3.1,13,0,18.8c1.5,2.6,3.7,4.8,6.3,6.3c7.5,4.2,16.9,2.4,22.3-4.3l3.8,3.7
	c-2,2.4-4.6,4.4-7.5,5.7c-3.1,1.4-6.5,2.2-9.9,2.1C888.4,51.4,884.5,50.3,881,48.3z"/>
<path class="st0" d="M915,6.4h5.2v43.9H915V6.4z"/>
<path class="st0" d="M929.9,48.1c-1.9-2.2-2.9-5.2-2.9-9V19.9h5.2v18.3c0,5.6,2.5,8.4,7.6,8.4c1.6,0,3.2-0.5,4.5-1.4
	s2.4-2.2,3.1-3.7c0.7-1.5,1.1-3.1,1.1-4.8V19.9h5.2v30.4h-4.9v-4.5h-0.2c-1,1.6-2.4,3-4.1,3.9c-1.8,1-3.8,1.6-5.9,1.6
	C934.7,51.3,931.8,50.3,929.9,48.1z"/>
<path class="st0" d="M970,49.8c-1.7-0.9-3.2-2.3-4.2-4h-0.2v4.5h-5V6.4h5.2v13.8l-0.2,4.2h0.2c1.1-1.6,2.5-3,4.2-3.9
	c2-1.1,4.2-1.6,6.4-1.6c2.6,0,5.1,0.7,7.2,2.1c2.2,1.4,4.1,3.4,5.3,5.8c2.6,5.2,2.6,11.4,0,16.6c-1.2,2.4-3,4.4-5.3,5.8
	c-2.2,1.4-4.7,2.1-7.2,2.1C974.1,51.4,971.9,50.8,970,49.8z M980.6,45.2c1.6-1,2.8-2.4,3.7-4c1.8-3.8,1.8-8.3,0-12.1
	c-0.8-1.6-2.1-3-3.7-4c-1.5-0.9-3.2-1.4-5-1.4s-3.5,0.5-5,1.4c-1.6,1-2.8,2.4-3.7,4c-1.8,3.9-1.8,8.3,0,12.2c0.8,1.6,2.1,3,3.7,4
	c1.5,0.9,3.2,1.4,5,1.4C977.4,46.7,979.1,46.2,980.6,45.2L980.6,45.2z"/>
<path class="st0" d="M998.4,48.9c-2.1-1.5-3.8-3.6-4.7-6.1l4.6-2c0.7,1.8,1.9,3.3,3.5,4.4c1.4,1,3.1,1.5,4.9,1.5
	c1.7,0.1,3.4-0.4,4.9-1.3c1.2-0.6,1.9-1.8,1.9-3.1c0-1.2-0.5-2.2-1.4-2.9c-1.5-1-3.2-1.7-4.9-2l-4.2-1c-2.2-0.5-4.2-1.5-5.9-2.9
	c-1.6-1.4-2.5-3.4-2.4-5.5c0-1.8,0.5-3.5,1.6-4.8c1.1-1.4,2.6-2.5,4.3-3.1c1.9-0.7,3.9-1,5.9-1c2.5,0,5,0.6,7.2,1.8
	c2.1,1.1,3.7,2.9,4.6,5.1l-4.6,2c-0.6-1.4-1.7-2.5-3-3.2c-1.4-0.7-2.9-1-4.4-1s-3,0.4-4.3,1.2c-1.2,0.6-1.9,1.7-1.9,3
	c0,1,0.4,1.9,1.3,2.5c1.2,0.8,2.6,1.3,4,1.7l4.5,1.1c2.5,0.5,4.9,1.7,6.8,3.5c1.5,1.5,2.3,3.4,2.2,5.5c0,1.7-0.5,3.4-1.5,4.8
	c-1.1,1.5-2.6,2.7-4.3,3.4c-2,0.8-4.1,1.3-6.3,1.2C1003.6,51.6,1000.7,50.6,998.4,48.9z"/>
<text transform="matrix(1 0 0 1 149.25 113.91)" class="st0 st1 st2">IIIT</text>
<text transform="matrix(1 0 0 1 203.74 113.91)" class="st0 st1 st2"> </text>
<text transform="matrix(1 0 0 1 238.6911 113.91)" class="st0 st1 st2">Allahabad</text>
</svg>
