<svg id="Layer_1" data-name="Layer 1" xmlns="http://www.w3.org/2000/svg" viewBox="0 0 1018.68 124.79"><defs><style>.cls-1,.cls-2{fill:#fff;}.cls-2{font-size:43.01px;font-family:GoogleSansDisplay-Regular, Google Sans Display;}.cls-3{letter-spacing:-0.03em;}.cls-4{letter-spacing:0em;}.cls-5{letter-spacing:0em;}.cls-6{letter-spacing:0em;}</style></defs><path class="cls-1" d="M499.21,548.4l-34-19.61a9.59,9.59,0,0,0-4.82-1.3,9.67,9.67,0,0,0-4.85,18l34,19.6a9.67,9.67,0,1,0,9.67-16.74Z" transform="translate(-450.75 -507.88)"/><path class="cls-1" d="M566.94,528.79l-34-19.61a9.67,9.67,0,1,0-9.67,16.75l34,19.61a9.67,9.67,0,0,0,9.67-16.75Z" transform="translate(-450.75 -507.88)"/><path class="cls-1" d="M555.92,547.87l-15.85-9.15-16.76,9.68A9.67,9.67,0,1,0,533,565.14l27.3-15.76A12.18,12.18,0,0,1,555.92,547.87Z" transform="translate(-450.75 -507.88)"/><path class="cls-1" d="M466.6,526.46l15.85,9.15,16.76-9.68a9.67,9.67,0,1,0-9.67-16.75l-27.29,15.76A12.41,12.41,0,0,1,466.6,526.46Z" transform="translate(-450.75 -507.88)"/><path class="cls-1" d="M610.19,556.21a22.09,22.09,0,0,1-8.28-8.28,23.86,23.86,0,0,1,0-23.31,22.18,22.18,0,0,1,8.28-8.29,22.69,22.69,0,0,1,11.45-3,24.24,24.24,0,0,1,9.11,1.71,18.44,18.44,0,0,1,7,4.85L634,523.63a13.58,13.58,0,0,0-5.36-4,18,18,0,0,0-7-1.38,17.45,17.45,0,0,0-8.62,2.23,17.22,17.22,0,0,0-6.45,6.32,19.54,19.54,0,0,0,0,18.84A17.08,17.08,0,0,0,613,552a17.35,17.35,0,0,0,8.62,2.24,16.31,16.31,0,0,0,12.58-5,13.39,13.39,0,0,0,2.58-4.17,17.34,17.34,0,0,0,1.16-5.34h-16.2v-4.85h21.11a18.68,18.68,0,0,1,.3,3.19,24.61,24.61,0,0,1-1.28,7.89,17.48,17.48,0,0,1-4.11,6.72q-6.21,6.55-16.14,6.56A22.6,22.6,0,0,1,610.19,556.21Z" transform="translate(-450.75 -507.88)"/><path class="cls-1" d="M654.65,557.11a14.83,14.83,0,0,1-5.55-5.83,18,18,0,0,1,0-16.51,14.76,14.76,0,0,1,5.55-5.83,15.42,15.42,0,0,1,8-2.11,15.63,15.63,0,0,1,8.07,2.11,14.77,14.77,0,0,1,5.58,5.83,18.12,18.12,0,0,1,0,16.51,14.83,14.83,0,0,1-5.58,5.83,15.63,15.63,0,0,1-8.07,2.11A15.42,15.42,0,0,1,654.65,557.11Zm13.19-4a10.4,10.4,0,0,0,3.84-4,13.41,13.41,0,0,0,0-12.09,10.4,10.4,0,0,0-3.84-4,10,10,0,0,0-10.25,0,10.38,10.38,0,0,0-3.83,4,13.41,13.41,0,0,0,0,12.09,10.38,10.38,0,0,0,3.83,4,10,10,0,0,0,10.25,0Z" transform="translate(-450.75 -507.88)"/><path class="cls-1" d="M689.44,557.11a14.9,14.9,0,0,1-5.55-5.83,18,18,0,0,1,0-16.51,14.83,14.83,0,0,1,5.55-5.83,15.42,15.42,0,0,1,8-2.11,15.63,15.63,0,0,1,8.07,2.11,14.77,14.77,0,0,1,5.58,5.83,18,18,0,0,1,0,16.51,14.83,14.83,0,0,1-5.58,5.83,15.63,15.63,0,0,1-8.07,2.11A15.42,15.42,0,0,1,689.44,557.11Zm13.19-4a10.4,10.4,0,0,0,3.84-4,13.41,13.41,0,0,0,0-12.09,10.4,10.4,0,0,0-3.84-4,10,10,0,0,0-10.25,0,10.38,10.38,0,0,0-3.83,4,13.41,13.41,0,0,0,0,12.09,10.38,10.38,0,0,0,3.83,4,10,10,0,0,0,10.25,0Z" transform="translate(-450.75 -507.88)"/><path class="cls-1" d="M722.76,569.84A13.23,13.23,0,0,1,718,563.7l4.85-2a8.71,8.71,0,0,0,3.28,4.38,9.4,9.4,0,0,0,5.62,1.69q4.85,0,7.45-2.81t2.61-7.86v-3.26h-.25a11.36,11.36,0,0,1-4.23,3.87,12.7,12.7,0,0,1-6.26,1.53,13.23,13.23,0,0,1-7.18-2.09,15,15,0,0,1-5.27-5.79,18.53,18.53,0,0,1,0-16.63,15,15,0,0,1,5.27-5.79,13.15,13.15,0,0,1,7.18-2.09,12.7,12.7,0,0,1,6.26,1.53,11.42,11.42,0,0,1,4.23,3.86h.25v-4.41h5V557a17.27,17.27,0,0,1-2,8.53,12.62,12.62,0,0,1-5.37,5.22,16.93,16.93,0,0,1-7.7,1.71A14.56,14.56,0,0,1,722.76,569.84Zm14.11-16.73a10.07,10.07,0,0,0,3.65-4A12.81,12.81,0,0,0,741.9,543a13,13,0,0,0-1.38-6.13,9.81,9.81,0,0,0-3.65-4,9.45,9.45,0,0,0-5-1.36,9.3,9.3,0,0,0-5,1.39,10.07,10.07,0,0,0-3.65,4,14.19,14.19,0,0,0,0,12.21,10.07,10.07,0,0,0,3.65,4,9.58,9.58,0,0,0,9.94,0Z" transform="translate(-450.75 -507.88)"/><path class="cls-1" d="M753.87,514.31h5.21v43.93h-5.21Z" transform="translate(-450.75 -507.88)"/><path class="cls-1" d="M771.44,557.14a14.73,14.73,0,0,1-5.43-5.77,17.59,17.59,0,0,1-2-8.35,18,18,0,0,1,1.84-8.13,14.6,14.6,0,0,1,5.25-5.89,14.21,14.21,0,0,1,7.82-2.17,14.84,14.84,0,0,1,7.76,2,13.15,13.15,0,0,1,5.13,5.61,18.81,18.81,0,0,1,1.78,8.35,4.37,4.37,0,0,1-.13,1.23H769.33A11.15,11.15,0,0,0,771,549.8a9.87,9.87,0,0,0,3.84,3.53,10.35,10.35,0,0,0,4.75,1.17q5.77,0,8.9-5.65l4.61,2.21a15.89,15.89,0,0,1-5.44,5.92,16.27,16.27,0,0,1-16.2.16Zm16.67-17.49a9.67,9.67,0,0,0-1.05-3.68,7.86,7.86,0,0,0-3-3.13,9.69,9.69,0,0,0-5.24-1.29,8.68,8.68,0,0,0-6,2.21,9.94,9.94,0,0,0-3.19,5.89Z" transform="translate(-450.75 -507.88)"/><path class="cls-1" d="M813.57,514.31h13.31a23.89,23.89,0,0,1,11.78,2.79,19.19,19.19,0,0,1,7.73,7.76,25.48,25.48,0,0,1,0,22.83,19.19,19.19,0,0,1-7.73,7.76,23.89,23.89,0,0,1-11.78,2.79H813.57Zm13.31,39q7.8,0,12.34-4.48t4.54-12.52c0-5.35-1.52-9.53-4.54-12.51s-7.14-4.48-12.34-4.48h-8.1v34Z" transform="translate(-450.75 -507.88)"/><path class="cls-1" d="M860.91,557.14a14.52,14.52,0,0,1-5.43-5.77,17.36,17.36,0,0,1-2-8.35,18.17,18.17,0,0,1,1.84-8.13A14.6,14.6,0,0,1,860.6,529a14.21,14.21,0,0,1,7.82-2.17,14.84,14.84,0,0,1,7.76,2,13.15,13.15,0,0,1,5.13,5.61,18.81,18.81,0,0,1,1.78,8.35A4,4,0,0,1,883,544H858.79a11.06,11.06,0,0,0,1.66,5.79,9.78,9.78,0,0,0,3.83,3.53A10.36,10.36,0,0,0,869,554.5q5.76,0,8.89-5.65l4.6,2.21A15.62,15.62,0,0,1,877.1,557a16.25,16.25,0,0,1-16.19.16Zm16.65-17.49a9.65,9.65,0,0,0-1-3.68,7.84,7.84,0,0,0-3-3.13,9.77,9.77,0,0,0-5.25-1.29,8.68,8.68,0,0,0-5.95,2.21,9.94,9.94,0,0,0-3.19,5.89Z" transform="translate(-450.75 -507.88)"/><path class="cls-1" d="M884.31,527.81H890l9.33,24.3h.12l9.45-24.3h5.52l-12.46,30.43h-5.27Z" transform="translate(-450.75 -507.88)"/><path class="cls-1" d="M923.92,557.14a14.66,14.66,0,0,1-5.43-5.77,17.47,17.47,0,0,1-2-8.35,18,18,0,0,1,1.84-8.13,14.5,14.5,0,0,1,5.24-5.89,14.23,14.23,0,0,1,7.83-2.17,14.86,14.86,0,0,1,7.76,2,13.13,13.13,0,0,1,5.12,5.61,18.68,18.68,0,0,1,1.78,8.35A4.46,4.46,0,0,1,946,544H921.8a11.24,11.24,0,0,0,1.66,5.79,9.74,9.74,0,0,0,3.84,3.53,10.32,10.32,0,0,0,4.75,1.17q5.78,0,8.9-5.65l4.6,2.21a15.78,15.78,0,0,1-5.43,5.92,16.27,16.27,0,0,1-16.2.16Zm16.66-17.49a9.65,9.65,0,0,0-1-3.68,7.93,7.93,0,0,0-3-3.13,9.72,9.72,0,0,0-5.25-1.29,8.69,8.69,0,0,0-5.95,2.21,10,10,0,0,0-3.19,5.89Z" transform="translate(-450.75 -507.88)"/><path class="cls-1" d="M951.38,514.31h5.21v43.93h-5.21Z" transform="translate(-450.75 -507.88)"/><path class="cls-1" d="M969.11,557.11a14.9,14.9,0,0,1-5.55-5.83,18,18,0,0,1,0-16.51,14.83,14.83,0,0,1,5.55-5.83,15.42,15.42,0,0,1,8-2.11,15.63,15.63,0,0,1,8.07,2.11,14.77,14.77,0,0,1,5.58,5.83,18,18,0,0,1,0,16.51,14.83,14.83,0,0,1-5.58,5.83,15.63,15.63,0,0,1-8.07,2.11A15.42,15.42,0,0,1,969.11,557.11Zm13.19-4a10.33,10.33,0,0,0,3.84-4,13.41,13.41,0,0,0,0-12.09,10.33,10.33,0,0,0-3.84-4,10,10,0,0,0-10.25,0,10.38,10.38,0,0,0-3.83,4,13.41,13.41,0,0,0,0,12.09,10.38,10.38,0,0,0,3.83,4,10,10,0,0,0,10.25,0Z" transform="translate(-450.75 -507.88)"/><path class="cls-1" d="M997.52,527.81h5v4.47h.25a11.66,11.66,0,0,1,4.23-3.89,12.75,12.75,0,0,1,6.38-1.56,13.18,13.18,0,0,1,7.24,2.11,15.2,15.2,0,0,1,5.28,5.8,18.49,18.49,0,0,1,0,16.57,15.34,15.34,0,0,1-5.28,5.8,13.18,13.18,0,0,1-7.24,2.11,12.92,12.92,0,0,1-6.41-1.56,11,11,0,0,1-4.2-4h-.25l.25,4.23v13.56h-5.22Zm20,25.28a10.11,10.11,0,0,0,3.68-4,13.84,13.84,0,0,0,0-12.09,10.11,10.11,0,0,0-3.68-4,9.38,9.38,0,0,0-5-1.41,9.56,9.56,0,0,0-5,1.38,10,10,0,0,0-3.68,4,14.13,14.13,0,0,0,0,12.18,9.92,9.92,0,0,0,3.68,4,9.56,9.56,0,0,0,5,1.38A9.38,9.38,0,0,0,1017.55,553.09Z" transform="translate(-450.75 -507.88)"/><path class="cls-1" d="M1040,557.14a14.66,14.66,0,0,1-5.43-5.77,17.47,17.47,0,0,1-2-8.35,18,18,0,0,1,1.84-8.13,14.5,14.5,0,0,1,5.24-5.89,14.23,14.23,0,0,1,7.83-2.17,14.86,14.86,0,0,1,7.76,2,13.13,13.13,0,0,1,5.12,5.61,18.68,18.68,0,0,1,1.78,8.35,4.46,4.46,0,0,1-.12,1.23h-24.18a11.24,11.24,0,0,0,1.66,5.79,9.74,9.74,0,0,0,3.84,3.53,10.32,10.32,0,0,0,4.75,1.17q5.77,0,8.9-5.65l4.6,2.21a15.78,15.78,0,0,1-5.43,5.92,16.27,16.27,0,0,1-16.2.16Zm16.66-17.49a9.65,9.65,0,0,0-1-3.68,7.93,7.93,0,0,0-3-3.13,9.72,9.72,0,0,0-5.25-1.29,8.69,8.69,0,0,0-6,2.21,10,10,0,0,0-3.19,5.89Z" transform="translate(-450.75 -507.88)"/><path class="cls-1" d="M1067.47,527.81h5v5h.24a8.26,8.26,0,0,1,3.53-4.24,9.79,9.79,0,0,1,5.31-1.71,10.16,10.16,0,0,1,3.56.61V533a8.87,8.87,0,0,0-4.3-.92,7.08,7.08,0,0,0-4,1.26,9.09,9.09,0,0,0-3,3.35,9.61,9.61,0,0,0-1.11,4.56v17h-5.21Z" transform="translate(-450.75 -507.88)"/><path class="cls-1" d="M1107.93,557.84a15.85,15.85,0,0,1-8.86-10.52l5-2a12.8,12.8,0,0,0,3.86,6.45,9.61,9.61,0,0,0,6.57,2.51,10.24,10.24,0,0,0,6.5-2,6.73,6.73,0,0,0,2.64-5.62,6.5,6.5,0,0,0-2.24-5.06,21.62,21.62,0,0,0-7.33-3.71l-2.76-1a22.06,22.06,0,0,1-7.61-4.36,9.66,9.66,0,0,1-3-7.49,10.6,10.6,0,0,1,1.72-5.8,12.47,12.47,0,0,1,4.76-4.26,14.5,14.5,0,0,1,6.84-1.59,14.88,14.88,0,0,1,6.66,1.41,13.76,13.76,0,0,1,4.54,3.43,11.94,11.94,0,0,1,2.3,4l-4.85,2.09a8.44,8.44,0,0,0-2.82-4.14,8.56,8.56,0,0,0-5.71-1.81,9,9,0,0,0-5.77,1.9A5.88,5.88,0,0,0,1106,525a5.19,5.19,0,0,0,2,4.21,20.89,20.89,0,0,0,6.14,3l2.82,1a24.45,24.45,0,0,1,8.75,5.06,10.92,10.92,0,0,1,3.16,8.25,11.49,11.49,0,0,1-2.18,7.12,12.83,12.83,0,0,1-5.49,4.23,18.06,18.06,0,0,1-6.88,1.35A15.64,15.64,0,0,1,1107.93,557.84Z" transform="translate(-450.75 -507.88)"/><path class="cls-1" d="M1141.56,558.6a8.07,8.07,0,0,1-2.67-1.69,7.32,7.32,0,0,1-1.81-2.78,11,11,0,0,1-.58-3.78V532.53h-5.4v-4.72h5.4v-9.09h5.15v9.09h7.49v4.72h-7.49V549.1a6,6,0,0,0,1,3.89,3.73,3.73,0,0,0,3.19,1.39,6.2,6.2,0,0,0,3.32-.87v5a10.82,10.82,0,0,1-1.87.52,15,15,0,0,1-2.37.15A9.22,9.22,0,0,1,1141.56,558.6Z" transform="translate(-450.75 -507.88)"/><path class="cls-1" d="M1157.27,556c-2-2.17-2.92-5.17-2.92-9V527.81h5.21v18.28q0,8.42,7.55,8.41a7.62,7.62,0,0,0,4.51-1.41,9.26,9.26,0,0,0,3.07-3.68,11,11,0,0,0,1.07-4.79V527.81h5.16v30.43H1176V553.7h-.25a11,11,0,0,1-4.08,3.93,11.44,11.44,0,0,1-5.86,1.59Q1160.18,559.22,1157.27,556Z" transform="translate(-450.75 -507.88)"/><path class="cls-1" d="M1193.19,557.14a15,15,0,0,1-5.28-5.8,18.62,18.62,0,0,1,0-16.63,15,15,0,0,1,5.28-5.8,13.32,13.32,0,0,1,7.24-2.08,13,13,0,0,1,6.38,1.56,11.15,11.15,0,0,1,4.24,3.89h.24l-.24-4.17v-13.8h5.15v43.93h-4.91V553.7h-.24a11,11,0,0,1-4.24,4,13,13,0,0,1-6.38,1.56A13.32,13.32,0,0,1,1193.19,557.14Zm13-4a9.92,9.92,0,0,0,3.68-4,14.13,14.13,0,0,0,0-12.18,10,10,0,0,0-3.68-4,9.53,9.53,0,0,0-5-1.38,9.38,9.38,0,0,0-5,1.41,10.11,10.11,0,0,0-3.68,4,13.93,13.93,0,0,0,0,12.09,10.11,10.11,0,0,0,3.68,4,9.38,9.38,0,0,0,5,1.41A9.53,9.53,0,0,0,1206.23,553.12Z" transform="translate(-450.75 -507.88)"/><path class="cls-1" d="M1228.62,557.14a14.8,14.8,0,0,1-5.43-5.77,17.59,17.59,0,0,1-2-8.35,18,18,0,0,1,1.84-8.13,14.6,14.6,0,0,1,5.25-5.89,14.21,14.21,0,0,1,7.82-2.17,14.84,14.84,0,0,1,7.76,2,13.15,13.15,0,0,1,5.13,5.61,18.81,18.81,0,0,1,1.78,8.35,4,4,0,0,1-.13,1.23h-24.17a11.15,11.15,0,0,0,1.65,5.79,9.87,9.87,0,0,0,3.84,3.53,10.39,10.39,0,0,0,4.75,1.17q5.77,0,8.9-5.65l4.61,2.21a16,16,0,0,1-5.43,5.92,16.29,16.29,0,0,1-16.21.16Zm16.67-17.49a9.67,9.67,0,0,0-1-3.68,7.8,7.8,0,0,0-3-3.13,9.69,9.69,0,0,0-5.24-1.29,8.68,8.68,0,0,0-6,2.21,9.94,9.94,0,0,0-3.19,5.89Z" transform="translate(-450.75 -507.88)"/><path class="cls-1" d="M1256.08,527.81h5v4.54h.25a10.37,10.37,0,0,1,4-3.93,11.6,11.6,0,0,1,5.89-1.59q5.58,0,8.5,3.25t2.91,8.89v19.27h-5.15V539.77q0-8.22-7.67-8.22a7.39,7.39,0,0,0-4.42,1.41,9.44,9.44,0,0,0-3,3.68,11,11,0,0,0-1.07,4.79v16.81h-5.22Z" transform="translate(-450.75 -507.88)"/><path class="cls-1" d="M1296.24,558.6a8.28,8.28,0,0,1-2.67-1.69,7.32,7.32,0,0,1-1.81-2.78,11,11,0,0,1-.58-3.78V532.53h-5.4v-4.72h5.4v-9.09h5.15v9.09h7.49v4.72h-7.49V549.1a6,6,0,0,0,1.05,3.89,3.7,3.7,0,0,0,3.19,1.39,6.19,6.19,0,0,0,3.31-.87v5a10.58,10.58,0,0,1-1.87.52,14.77,14.77,0,0,1-2.36.15A9.23,9.23,0,0,1,1296.24,558.6Z" transform="translate(-450.75 -507.88)"/><path class="cls-1" d="M1331.74,556.21a21.67,21.67,0,0,1-8.2-8.28,24.35,24.35,0,0,1,0-23.31,21.76,21.76,0,0,1,8.2-8.29,22.69,22.69,0,0,1,11.53-3,21.39,21.39,0,0,1,9,1.87,20.3,20.3,0,0,1,7,5.31l-3.68,3.62a15.57,15.57,0,0,0-5.5-4.42,16.17,16.17,0,0,0-6.9-1.41,17.51,17.51,0,0,0-8.71,2.23,16.75,16.75,0,0,0-6.35,6.32,20,20,0,0,0,0,18.84,16.61,16.61,0,0,0,6.35,6.32,17.64,17.64,0,0,0,22.33-4.32l3.75,3.68a21.73,21.73,0,0,1-7.49,5.74,22.86,22.86,0,0,1-9.88,2.11A22.6,22.6,0,0,1,1331.74,556.21Z" transform="translate(-450.75 -507.88)"/><path class="cls-1" d="M1365.73,514.31h5.21v43.93h-5.21Z" transform="translate(-450.75 -507.88)"/><path class="cls-1" d="M1380.61,556c-1.94-2.17-2.91-5.17-2.91-9V527.81h5.21v18.28q0,8.42,7.55,8.41a7.64,7.64,0,0,0,4.51-1.41,9.34,9.34,0,0,0,3.07-3.68,11.17,11.17,0,0,0,1.07-4.79V527.81h5.15v30.43h-4.91V553.7h-.24a11,11,0,0,1-4.08,3.93,11.44,11.44,0,0,1-5.86,1.59Q1383.52,559.22,1380.61,556Z" transform="translate(-450.75 -507.88)"/><path class="cls-1" d="M1420.74,557.66a11,11,0,0,1-4.21-4h-.24v4.54h-5V514.31h5.21v13.8l-.24,4.17h.24a11.78,11.78,0,0,1,4.24-3.89,12.75,12.75,0,0,1,6.38-1.56,13.18,13.18,0,0,1,7.24,2.11,15.2,15.2,0,0,1,5.28,5.8,18.49,18.49,0,0,1,0,16.57,15.34,15.34,0,0,1-5.28,5.8,13.18,13.18,0,0,1-7.24,2.11A12.92,12.92,0,0,1,1420.74,557.66Zm10.61-4.57a10.11,10.11,0,0,0,3.68-4,13.93,13.93,0,0,0,0-12.09,10.11,10.11,0,0,0-3.68-4,9.38,9.38,0,0,0-5-1.41,9.53,9.53,0,0,0-5,1.38,10,10,0,0,0-3.68,4,14.13,14.13,0,0,0,0,12.18,9.92,9.92,0,0,0,3.68,4,9.53,9.53,0,0,0,5,1.38A9.38,9.38,0,0,0,1431.35,553.09Z" transform="translate(-450.75 -507.88)"/><path class="cls-1" d="M1449.11,556.77a13.13,13.13,0,0,1-4.72-6.08l4.6-2a10,10,0,0,0,3.47,4.42,8.47,8.47,0,0,0,4.88,1.53,8.57,8.57,0,0,0,4.87-1.29,3.73,3.73,0,0,0,1.94-3.13,3.64,3.64,0,0,0-1.44-2.94,13.31,13.31,0,0,0-4.94-2l-4.17-1a13.4,13.4,0,0,1-5.87-2.89,6.92,6.92,0,0,1-2.42-5.52,7.44,7.44,0,0,1,1.63-4.84,10,10,0,0,1,4.32-3.07,16.14,16.14,0,0,1,5.89-1,14.29,14.29,0,0,1,7.15,1.81,10.08,10.08,0,0,1,4.57,5.12l-4.6,2a6.53,6.53,0,0,0-3-3.25,9.47,9.47,0,0,0-4.44-1,8.28,8.28,0,0,0-4.33,1.16,3.44,3.44,0,0,0-1.93,3,3,3,0,0,0,1.26,2.52,12.55,12.55,0,0,0,4,1.65l4.54,1.11a14.23,14.23,0,0,1,6.79,3.46,7.62,7.62,0,0,1,2.23,5.49,8.06,8.06,0,0,1-1.53,4.79,10.25,10.25,0,0,1-4.29,3.38,15.43,15.43,0,0,1-6.26,1.22A13.67,13.67,0,0,1,1449.11,556.77Z" transform="translate(-450.75 -507.88)"/><text class="cls-2" transform="translate(149.25 113.91)">IIIT<tspan class="cls-3" x="54.49" y="0"> </tspan><tspan x="63.18" y="0">Al</tspan><tspan class="cls-4" x="100.9" y="0">l</tspan><tspan x="109.67" y="0">a</tspan><tspan class="cls-5" x="132.12" y="0">h</tspan><tspan x="155.73" y="0">ab</tspan><tspan class="cls-5" x="203.56" y="0">a</tspan><tspan class="cls-6" x="225.8" y="0">d</tspan></text></svg>