<?xml version="1.0" encoding="utf-8"?>
<!-- Generator: Adobe Illustrator 25.4.1, SVG Export Plug-In . SVG Version: 6.00 Build 0)  -->
<svg version="1.1" id="Layer_1" xmlns="http://www.w3.org/2000/svg" xmlns:xlink="http://www.w3.org/1999/xlink" x="0px" y="0px"
	 viewBox="0 0 1018.8 125.2" style="enable-background:new 0 0 1018.8 125.2;" xml:space="preserve">
<style type="text/css">
	.st0{fill:#656C73;}
	.st1{fill:#EA4335;}
	.st2{fill:#4285F4;}
	.st3{fill:#FBBC04;}
	.st4{fill:#34A853;}
	.st5{font-family:'OpenSans';}
	.st6{font-size:43.01px;}
</style>
<path class="st0" d="M159.6,48.7c-3.5-2-6.3-4.8-8.3-8.3c-4.1-7.2-4.1-16.1,0-23.3c2-3.5,4.8-6.3,8.3-8.3s7.4-3,11.5-3
	c3.1,0,6.2,0.6,9.1,1.7c2.7,1,5.1,2.7,7,4.8l-3.8,3.7c-1.4-1.8-3.3-3.1-5.4-4c-2.2-0.9-4.6-1.4-7-1.4c-3,0-6,0.8-8.6,2.2
	c-2.7,1.5-4.9,3.7-6.5,6.3c-3.2,5.9-3.2,13,0,18.8c1.5,2.7,3.8,4.9,6.4,6.4c2.6,1.5,5.6,2.3,8.6,2.2c4.7,0.2,9.3-1.6,12.6-5
	c1.1-1.2,2-2.6,2.6-4.2c0.7-1.7,1.1-3.5,1.2-5.3h-16.2v-4.8h21.1c0.2,1.1,0.3,2.1,0.3,3.2c0,2.7-0.4,5.3-1.3,7.9
	c-0.8,2.5-2.2,4.8-4.1,6.7c-4.1,4.4-9.5,6.6-16.1,6.6C167,51.7,163.1,50.7,159.6,48.7z"/>
<path class="st0" d="M204.1,49.6c-2.4-1.4-4.3-3.4-5.5-5.8c-2.7-5.2-2.7-11.3,0-16.5c1.3-2.4,3.2-4.4,5.5-5.8c2.4-1.4,5.2-2.1,8-2.1
	s5.6,0.7,8.1,2.1c2.4,1.4,4.3,3.4,5.6,5.8c2.7,5.2,2.7,11.3,0,16.5c-1.3,2.4-3.2,4.4-5.6,5.8c-2.4,1.4-5.2,2.2-8.1,2.1
	C209.3,51.7,206.5,51,204.1,49.6z M217.3,45.6c1.6-1,2.9-2.3,3.8-4c1.9-3.8,1.9-8.3,0-12.1c-0.9-1.7-2.2-3-3.8-4
	c-3.2-1.9-7.1-1.9-10.2,0c-1.6,1-2.9,2.3-3.8,4c-1.9,3.8-1.9,8.3,0,12.1c0.9,1.7,2.2,3,3.8,4C210.2,47.5,214.1,47.5,217.3,45.6z"/>
<path class="st0" d="M238.9,49.6c-2.3-1.4-4.3-3.4-5.5-5.8c-2.7-5.2-2.7-11.3,0-16.5c1.3-2.4,3.2-4.4,5.5-5.8c2.4-1.4,5.2-2.1,8-2.1
	s5.6,0.7,8.1,2.1c2.4,1.4,4.3,3.4,5.6,5.8c2.7,5.2,2.7,11.3,0,16.5c-1.3,2.4-3.2,4.4-5.6,5.8c-2.4,1.4-5.2,2.2-8.1,2.1
	C244.1,51.7,241.3,51,238.9,49.6z M252.1,45.6c1.6-1,2.9-2.3,3.8-4c1.9-3.8,1.9-8.3,0-12.1c-0.9-1.7-2.2-3-3.8-4
	c-3.2-1.9-7.1-1.9-10.2,0c-1.6,1-2.9,2.3-3.8,4c-1.9,3.8-1.9,8.3,0,12.1c0.9,1.7,2.2,3,3.8,4C245,47.5,248.9,47.5,252.1,45.6z"/>
<path class="st0" d="M272.2,62.3c-2.2-1.5-3.8-3.7-4.8-6.1l4.8-2c0.6,1.8,1.7,3.3,3.3,4.4c1.6,1.1,3.6,1.7,5.6,1.7
	c3.2,0,5.7-0.9,7.5-2.8c1.7-1.9,2.6-4.5,2.6-7.9v-3.3H291c-1.1,1.6-2.5,3-4.2,3.9c-1.9,1-4.1,1.6-6.3,1.5c-2.5,0-5-0.7-7.2-2.1
	c-2.2-1.4-4.1-3.4-5.3-5.8c-2.6-5.2-2.6-11.4,0-16.6c1.2-2.4,3-4.4,5.3-5.8c2.1-1.4,4.6-2.1,7.2-2.1c2.2,0,4.3,0.5,6.3,1.5
	c1.7,0.9,3.2,2.2,4.2,3.9h0.2v-4.4h5v29.2c0.1,3-0.6,5.9-2,8.5c-1.2,2.2-3.1,4.1-5.4,5.2c-2.4,1.2-5,1.8-7.7,1.7
	C278,65.1,274.8,64.1,272.2,62.3z M286.3,45.6c1.6-1,2.8-2.4,3.7-4c1-1.9,1.4-4,1.4-6.1s-0.4-4.2-1.4-6.1c-0.8-1.6-2.1-3-3.7-4
	c-1.5-0.9-3.2-1.4-5-1.4s-3.5,0.5-5,1.4c-1.6,1-2.8,2.4-3.7,4c-1.8,3.9-1.8,8.3,0,12.2c0.8,1.6,2.1,3,3.7,4
	C279.3,47.4,283.2,47.4,286.3,45.6L286.3,45.6z"/>
<path class="st0" d="M303.3,6.8h5.2v43.9h-5.2V6.8z"/>
<path class="st0" d="M320.9,49.6c-2.3-1.4-4.2-3.4-5.4-5.8c-1.3-2.6-2-5.4-2-8.3c0-2.8,0.6-5.6,1.8-8.1c1.2-2.4,3-4.4,5.2-5.9
	c2.3-1.5,5.1-2.2,7.8-2.2c2.7-0.1,5.4,0.6,7.8,2c2.2,1.3,4,3.3,5.1,5.6c1.2,2.6,1.8,5.5,1.8,8.3c0,0.4,0,0.8-0.1,1.2h-24.1
	c0,2,0.6,4,1.7,5.8c0.9,1.5,2.3,2.7,3.8,3.5s3.1,1.2,4.8,1.2c3.8,0,6.8-1.9,8.9-5.7l4.6,2.2c-1.3,2.4-3.1,4.4-5.4,5.9
	C332.1,52.4,325.9,52.4,320.9,49.6L320.9,49.6z M337.5,32.1c-0.1-1.3-0.5-2.5-1-3.7c-0.7-1.3-1.7-2.4-3-3.1
	c-1.6-0.9-3.4-1.4-5.2-1.3c-2.2-0.1-4.4,0.7-6,2.2c-1.7,1.5-2.8,3.6-3.2,5.9H337.5z"/>
<path class="st0" d="M363,6.8h13.3c4.1-0.1,8.2,0.9,11.8,2.8c3.3,1.8,6,4.5,7.7,7.8c3.6,7.2,3.6,15.6,0,22.8c-1.8,3.3-4.5,6-7.7,7.8
	c-3.6,1.9-7.7,2.9-11.8,2.8H363V6.8z M376.3,45.8c5.2,0,9.3-1.5,12.3-4.5s4.5-7.2,4.5-12.5s-1.5-9.5-4.5-12.5s-7.1-4.5-12.3-4.5
	h-8.1v34H376.3z"/>
<path class="st0" d="M410.3,49.6c-2.3-1.4-4.2-3.4-5.4-5.8c-1.4-2.6-2-5.4-2-8.3c0-2.8,0.6-5.6,1.8-8.1c1.2-2.4,3-4.4,5.3-5.9
	s5.1-2.2,7.8-2.2c2.7-0.1,5.4,0.6,7.8,2c2.2,1.3,4,3.3,5.1,5.6c1.2,2.6,1.8,5.5,1.8,8.3c0,0.4,0,0.8-0.1,1.2h-24.2
	c0,2,0.6,4.1,1.7,5.8c0.9,1.5,2.3,2.7,3.8,3.5s3.1,1.2,4.7,1.2c3.8,0,6.8-1.9,8.9-5.7l4.6,2.2c-1.2,2.4-3.1,4.5-5.4,5.9
	C421.5,52.4,415.4,52.5,410.3,49.6L410.3,49.6z M427,32.1c-0.1-1.3-0.4-2.5-1-3.7c-0.7-1.3-1.7-2.4-3-3.1c-1.6-0.9-3.4-1.4-5.2-1.3
	c-2.2,0-4.3,0.7-6,2.2s-2.8,3.6-3.2,5.9H427z"/>
<path class="st0" d="M433.7,20.3h5.7l9.3,24.3h0.1l9.5-24.3h5.5l-12.5,30.4H446L433.7,20.3z"/>
<path class="st0" d="M473.3,49.6c-2.3-1.4-4.2-3.4-5.4-5.8c-1.4-2.6-2-5.4-2-8.3c0-2.8,0.6-5.6,1.8-8.1c1.2-2.4,3-4.4,5.2-5.9
	c2.3-1.5,5.1-2.2,7.8-2.2c2.7-0.1,5.4,0.6,7.8,2c2.2,1.3,4,3.3,5.1,5.6c1.2,2.6,1.8,5.5,1.8,8.3c0,0.4,0,0.8-0.1,1.2h-24.2
	c0,2,0.6,4,1.7,5.8c0.9,1.5,2.3,2.7,3.8,3.5s3.1,1.2,4.8,1.2c3.9,0,6.8-1.9,8.9-5.7l4.6,2.2c-1.3,2.4-3.1,4.4-5.4,5.9
	C484.6,52.4,478.4,52.4,473.3,49.6L473.3,49.6z M490,32.1c-0.1-1.3-0.4-2.5-1-3.7c-0.7-1.3-1.7-2.4-3-3.1c-1.6-0.9-3.4-1.4-5.2-1.3
	c-2.2,0-4.3,0.7-6,2.2s-2.8,3.6-3.2,5.9H490z"/>
<path class="st0" d="M500.8,6.8h5.2v43.9h-5.2V6.8z"/>
<path class="st0" d="M518.5,49.6c-2.3-1.4-4.3-3.4-5.6-5.8c-2.7-5.2-2.7-11.3,0-16.5c1.3-2.4,3.2-4.4,5.6-5.8c2.4-1.4,5.2-2.1,8-2.1
	s5.6,0.7,8.1,2.1c2.4,1.4,4.3,3.4,5.6,5.8c2.7,5.2,2.7,11.3,0,16.5c-1.3,2.4-3.2,4.4-5.6,5.8c-2.4,1.4-5.2,2.2-8.1,2.1
	C523.7,51.7,521,51,518.5,49.6z M531.7,45.6c1.6-1,2.9-2.3,3.8-4c1.9-3.8,1.9-8.3,0-12.1c-0.9-1.7-2.2-3-3.8-4
	c-3.2-1.9-7.1-1.9-10.2,0c-1.6,1-2.9,2.3-3.8,4c-1.9,3.8-1.9,8.3,0,12.1c0.9,1.7,2.2,3,3.8,4C524.6,47.5,528.6,47.5,531.7,45.6z"/>
<path class="st0" d="M546.9,20.3h5v4.5h0.2c1.1-1.6,2.5-3,4.2-3.9c2-1.1,4.2-1.6,6.4-1.6c2.6,0,5.1,0.7,7.2,2.1
	c2.2,1.4,4.1,3.4,5.3,5.8c2.6,5.2,2.6,11.4,0,16.6c-1.2,2.4-3,4.4-5.3,5.8c-2.2,1.4-4.7,2.1-7.2,2.1c-2.2,0-4.4-0.5-6.4-1.6
	c-1.7-0.9-3.2-2.3-4.2-4h-0.2l0.2,4.2v13.6H547L546.9,20.3z M566.9,45.6c1.6-1,2.8-2.4,3.7-4c1.9-3.8,1.9-8.3,0-12.1
	c-0.8-1.6-2.1-3-3.7-4c-1.5-0.9-3.2-1.4-5-1.4s-3.5,0.5-5,1.4c-1.6,1-2.8,2.4-3.7,4c-1.8,3.9-1.8,8.3,0,12.2c0.8,1.6,2.1,3,3.7,4
	c1.5,0.9,3.2,1.4,5,1.4C563.7,47,565.5,46.5,566.9,45.6L566.9,45.6z"/>
<path class="st0" d="M589.4,49.6c-2.3-1.4-4.2-3.4-5.4-5.8c-1.4-2.6-2-5.4-2-8.3c0-2.8,0.6-5.6,1.8-8.1c1.2-2.4,3-4.4,5.2-5.9
	c2.3-1.5,5.1-2.2,7.8-2.2c2.7-0.1,5.4,0.6,7.8,2c2.2,1.3,4,3.3,5.1,5.6c1.2,2.6,1.8,5.5,1.8,8.3c0,0.4,0,0.8-0.1,1.2h-24.2
	c0,2,0.6,4,1.7,5.8c0.9,1.5,2.3,2.7,3.8,3.5s3.1,1.2,4.8,1.2c3.8,0,6.8-1.9,8.9-5.7l4.6,2.2c-1.3,2.4-3.1,4.4-5.4,5.9
	C600.6,52.4,594.4,52.4,589.4,49.6L589.4,49.6z M606.1,32.1c-0.1-1.3-0.4-2.5-1-3.7c-0.7-1.3-1.7-2.4-3-3.1
	c-1.6-0.9-3.4-1.4-5.2-1.3c-2.2-0.1-4.4,0.7-6,2.2c-1.7,1.5-2.8,3.6-3.2,5.9H606.1z"/>
<path class="st0" d="M616.9,20.3h5v5h0.2c0.7-1.8,1.9-3.3,3.5-4.2c1.6-1.1,3.4-1.7,5.3-1.7c1.2,0,2.4,0.2,3.6,0.6v5.5
	c-1.3-0.7-2.8-1-4.3-0.9c-1.4,0-2.8,0.4-4,1.3c-1.3,0.8-2.3,2-3,3.3c-0.7,1.4-1.1,3-1.1,4.6v17h-5.2V20.3z"/>
<path class="st0" d="M657.4,50.3c-4.4-2-7.7-5.8-8.9-10.5l5-2c0.6,2.5,2,4.7,3.9,6.5c1.8,1.6,4.1,2.5,6.6,2.5c2.3,0.1,4.6-0.6,6.5-2
	c1.7-1.3,2.7-3.4,2.6-5.6c0-1.9-0.8-3.8-2.2-5.1c-2.2-1.7-4.7-3-7.3-3.7l-2.8-1c-2.8-0.9-5.4-2.4-7.6-4.4c-2-1.9-3.1-4.7-3-7.5
	c0-2.1,0.6-4.1,1.7-5.8c1.2-1.8,2.8-3.3,4.8-4.3c2.1-1.1,4.5-1.6,6.8-1.6c2.3-0.1,4.6,0.4,6.7,1.4c1.7,0.8,3.3,2,4.5,3.4
	c1,1.2,1.8,2.5,2.3,4l-4.8,2.1c-0.5-1.6-1.5-3.1-2.8-4.1c-1.6-1.3-3.7-1.9-5.7-1.8c-2.1-0.1-4.1,0.6-5.8,1.9
	c-1.5,1.1-2.4,2.9-2.4,4.7c0,1.6,0.7,3.2,2,4.2c1.9,1.3,3.9,2.3,6.1,3l2.8,1c3.2,1.1,6.2,2.8,8.8,5.1c2.2,2.2,3.3,5.2,3.2,8.2
	c0.1,2.5-0.7,5.1-2.2,7.1c-1.4,1.9-3.3,3.4-5.5,4.2c-2.2,0.9-4.5,1.4-6.9,1.3C661.5,51.7,659.4,51.2,657.4,50.3z"/>
<path class="st0" d="M691,51.1c-1-0.4-1.9-1-2.7-1.7c-0.8-0.8-1.4-1.7-1.8-2.8c-0.4-1.2-0.6-2.5-0.6-3.8V25h-5.4v-4.7h5.4v-9.1h5.2
	v9.1h7.5V25h-7.5v16.6c-0.1,1.4,0.2,2.7,1,3.9c0.8,1,2,1.5,3.2,1.4c1.2,0,2.3-0.3,3.3-0.9v5c-0.6,0.2-1.2,0.4-1.9,0.5
	c-0.8,0.1-1.6,0.2-2.4,0.2C693.2,51.7,692.1,51.5,691,51.1z"/>
<path class="st0" d="M706.7,48.5c-2-2.2-2.9-5.2-2.9-9V20.3h5.2v18.3c0,5.6,2.5,8.4,7.6,8.4c1.6,0,3.2-0.5,4.5-1.4s2.4-2.2,3.1-3.7
	c0.7-1.5,1.1-3.1,1.1-4.8V20.3h5.2v30.4h-4.9v-4.5h-0.2c-1,1.6-2.4,3-4.1,3.9c-1.8,1-3.8,1.6-5.9,1.6
	C711.5,51.7,708.6,50.6,706.7,48.5z"/>
<path class="st0" d="M742.6,49.6c-2.2-1.4-4.1-3.4-5.3-5.8c-2.6-5.2-2.6-11.4,0-16.6c1.2-2.4,3-4.4,5.3-5.8c2.2-1.4,4.7-2.1,7.2-2.1
	c2.2,0,4.4,0.5,6.4,1.6c1.7,0.9,3.2,2.2,4.2,3.9h0.2l-0.2-4.2V6.8h5.2v43.9h-4.9v-4.5h-0.2c-1,1.7-2.5,3.1-4.2,4
	c-2,1.1-4.2,1.6-6.4,1.6C747.3,51.7,744.8,51,742.6,49.6z M755.6,45.6c1.6-1,2.8-2.4,3.7-4c1.8-3.9,1.8-8.3,0-12.2
	c-0.8-1.6-2.1-3-3.7-4c-1.5-0.9-3.2-1.4-5-1.4s-3.5,0.5-5,1.4c-1.6,1-2.8,2.4-3.7,4c-1.8,3.8-1.8,8.3,0,12.1c0.8,1.6,2.1,3,3.7,4
	c1.5,0.9,3.2,1.4,5,1.4C752.4,47,754.1,46.5,755.6,45.6L755.6,45.6z"/>
<path class="st0" d="M778,49.6c-2.3-1.4-4.2-3.4-5.4-5.8c-1.3-2.6-2-5.4-2-8.3c0-2.8,0.6-5.6,1.8-8.1c1.2-2.4,3-4.4,5.2-5.9
	c2.3-1.5,5.1-2.2,7.8-2.2c2.7-0.1,5.4,0.6,7.8,2c2.2,1.3,4,3.3,5.1,5.6c1.2,2.6,1.8,5.5,1.8,8.3c0,0.4,0,0.8-0.1,1.2h-24.2
	c0,2,0.6,4,1.7,5.8c0.9,1.5,2.3,2.7,3.8,3.5s3.1,1.2,4.8,1.2c3.8,0,6.8-1.9,8.9-5.7l4.6,2.2c-1.3,2.4-3.1,4.4-5.4,5.9
	C789.2,52.4,783,52.4,778,49.6L778,49.6z M794.7,32.1c-0.1-1.3-0.4-2.5-1-3.7c-0.7-1.3-1.7-2.4-3-3.1c-1.6-0.9-3.4-1.4-5.2-1.3
	c-2.2-0.1-4.4,0.7-6,2.2c-1.7,1.5-2.8,3.6-3.2,5.9H794.7z"/>
<path class="st0" d="M805.5,20.3h5v4.5h0.2c0.9-1.7,2.3-3,4-3.9c1.8-1,3.8-1.6,5.9-1.6c3.7,0,6.6,1.1,8.5,3.2s2.9,5.1,2.9,8.9v19.3
	h-5.2V32.2c0-5.5-2.6-8.2-7.7-8.2c-1.6,0-3.1,0.5-4.4,1.4c-1.3,1-2.3,2.2-3,3.7s-1.1,3.1-1.1,4.8v16.8h-5.2L805.5,20.3z"/>
<path class="st0" d="M845.7,51.1c-1-0.4-1.9-1-2.7-1.7c-0.8-0.8-1.4-1.7-1.8-2.8c-0.4-1.2-0.6-2.5-0.6-3.8V25h-5.4v-4.7h5.4v-9.1
	h5.2v9.1h7.5V25h-7.5v16.6c-0.1,1.4,0.3,2.8,1.1,3.9c0.8,1,2,1.5,3.2,1.4c1.2,0,2.3-0.3,3.3-0.9v5c-0.6,0.2-1.2,0.4-1.9,0.5
	c-0.8,0.1-1.6,0.2-2.4,0.2C847.9,51.7,846.8,51.5,845.7,51.1z"/>
<path class="st0" d="M881.2,48.7c-3.4-2-6.3-4.8-8.2-8.3c-4-7.3-4-16,0-23.3c1.9-3.5,4.8-6.3,8.2-8.3c3.5-2,7.5-3,11.5-3
	c3.1,0,6.2,0.6,9,1.9c2.7,1.2,5.1,3.1,7,5.3l-3.7,3.6c-1.5-1.9-3.4-3.4-5.5-4.4c-2.2-1-4.5-1.5-6.9-1.4c-3,0-6.1,0.7-8.7,2.2
	c-2.7,1.5-4.8,3.7-6.3,6.3c-3.1,5.9-3.1,13,0,18.8c1.5,2.6,3.7,4.8,6.3,6.3c7.5,4.2,16.9,2.4,22.3-4.3l3.8,3.7
	c-2,2.4-4.6,4.4-7.5,5.7c-3.1,1.4-6.5,2.2-9.9,2.1C888.6,51.7,884.6,50.7,881.2,48.7z"/>
<path class="st0" d="M915.2,6.8h5.2v43.9h-5.2V6.8z"/>
<path class="st0" d="M930,48.5c-1.9-2.2-2.9-5.2-2.9-9V20.3h5.2v18.3c0,5.6,2.5,8.4,7.6,8.4c1.6,0,3.2-0.5,4.5-1.4s2.4-2.2,3.1-3.7
	c0.7-1.5,1.1-3.1,1.1-4.8V20.3h5.2v30.4h-4.9v-4.5h-0.2c-1,1.6-2.4,3-4.1,3.9c-1.8,1-3.8,1.6-5.9,1.6C934.8,51.7,932,50.6,930,48.5z
	"/>
<path class="st0" d="M970.2,50.1c-1.7-0.9-3.2-2.3-4.2-4h-0.2v4.5h-5V6.8h5.2v13.8l-0.2,4.2h0.2c1.1-1.6,2.5-3,4.2-3.9
	c2-1.1,4.2-1.6,6.4-1.6c2.6,0,5.1,0.7,7.2,2.1c2.2,1.4,4.1,3.4,5.3,5.8c2.6,5.2,2.6,11.4,0,16.6c-1.2,2.4-3,4.4-5.3,5.8
	c-2.2,1.4-4.7,2.1-7.2,2.1C974.3,51.7,972.1,51.2,970.2,50.1z M980.8,45.6c1.6-1,2.8-2.4,3.7-4c1.8-3.8,1.8-8.3,0-12.1
	c-0.8-1.6-2.1-3-3.7-4c-1.5-0.9-3.2-1.4-5-1.4s-3.5,0.5-5,1.4c-1.6,1-2.8,2.4-3.7,4c-1.8,3.9-1.8,8.3,0,12.2c0.8,1.6,2.1,3,3.7,4
	c1.5,0.9,3.2,1.4,5,1.4C977.5,47,979.3,46.5,980.8,45.6L980.8,45.6z"/>
<path class="st0" d="M998.5,49.2c-2.1-1.5-3.8-3.6-4.7-6.1l4.6-2c0.7,1.8,1.9,3.3,3.5,4.4c1.4,1,3.1,1.5,4.9,1.5
	c1.7,0.1,3.4-0.4,4.9-1.3c1.2-0.6,1.9-1.8,1.9-3.1c0-1.2-0.5-2.2-1.4-2.9c-1.5-1-3.2-1.7-4.9-2l-4.2-1c-2.2-0.5-4.2-1.5-5.9-2.9
	c-1.6-1.4-2.5-3.4-2.4-5.5c0-1.8,0.5-3.5,1.6-4.8c1.1-1.4,2.6-2.5,4.3-3.1c1.9-0.7,3.9-1,5.9-1c2.5,0,5,0.6,7.2,1.8
	c2.1,1.1,3.7,2.9,4.6,5.1l-4.6,2c-0.6-1.4-1.7-2.5-3-3.2c-1.4-0.7-2.9-1-4.4-1s-3,0.4-4.3,1.2c-1.2,0.6-1.9,1.7-1.9,3
	c0,1,0.4,1.9,1.3,2.5c1.2,0.8,2.6,1.3,4,1.7l4.5,1.1c2.5,0.5,4.9,1.7,6.8,3.5c1.5,1.5,2.3,3.4,2.2,5.5c0,1.7-0.5,3.4-1.5,4.8
	c-1.1,1.5-2.6,2.7-4.3,3.4c-2,0.8-4.1,1.3-6.3,1.2C1003.8,51.9,1000.9,51,998.5,49.2z"/>
<path class="st1" d="M28.8,29.4l19.7-11.3c4.6-2.7,6.2-8.6,3.5-13.2s-8.6-6.2-13.2-3.5l0,0L4.8,21L28.8,29.4z"/>
<path class="st2" d="M43.7,58.6c5.3,0,9.7-4.3,9.7-9.7c0-3.5-1.8-6.7-4.8-8.4l-34-19.6C9.9,18.2,4,19.8,1.3,24.5
	C-1.4,29.1,0.2,35,4.8,37.7l34,19.6C40.3,58.1,42,58.6,43.7,58.6z"/>
<path class="st3" d="M77.4,58.6c1.7,0,3.4-0.4,4.8-1.3l34-19.6L92.6,29l-20,11.5c-4.6,2.7-6.2,8.6-3.5,13.2
	C70.8,56.8,74,58.6,77.4,58.6z"/>
<path class="st4" d="M111.4,39c5.3,0,9.7-4.3,9.7-9.7c0-3.5-1.8-6.7-4.8-8.4l-34-19.6C77.6-1.4,71.7,0.2,69,4.8S67.9,15.4,72.5,18
	l34,19.6C108.1,38.5,109.7,39,111.4,39z"/>
<text transform="matrix(1 0 0 1 144.43 115.27)" class="st0 st5 st6">IIIT</text>
<text transform="matrix(1 0 0 1 203.92 114.27)" class="st0 st5 st6"> </text>
<text transform="matrix(1 0 0 1 227.903 115.27)" class="st0 st5 st6">Allahabad</text>
</svg>
