<svg width="370" height="258" viewBox="0 0 370 258" fill="none" xmlns="http://www.w3.org/2000/svg">
<path d="M312.402 179.169C312.019 178.747 311.733 178.246 311.565 177.702C311.397 177.158 311.351 176.583 311.429 176.019C311.508 175.455 311.709 174.915 312.02 174.437C312.331 173.959 312.742 173.555 313.226 173.253L310.129 159.759L316.885 162.279L318.791 174.707C319.245 175.552 319.374 176.534 319.151 177.466C318.929 178.399 318.371 179.218 317.584 179.768C316.796 180.318 315.834 180.561 314.879 180.451C313.924 180.34 313.042 179.884 312.402 179.169Z" fill="#FFB8B8"/>
<path d="M311.934 168.459L305.995 157.008L306.799 128.174L307.18 128.976C307.625 129.911 318.045 151.911 317.302 159.276L318.493 166.007L311.934 168.459Z" fill="#3F3D56"/>
<path d="M308.062 253.085H312.824L315.09 234.767L308.061 234.767L308.062 253.085Z" fill="#FFB8B8"/>
<path d="M306.847 251.535L316.226 251.534H316.227C317.812 251.535 319.332 252.162 320.452 253.28C321.573 254.398 322.203 255.914 322.203 257.495V257.688L306.848 257.689L306.847 251.535Z" fill="#2F2E41"/>
<path d="M261.008 249.476L265.597 250.748L272.701 233.705L265.929 231.827L261.008 249.476Z" fill="#FFB8B8"/>
<path d="M260.255 247.658L269.29 250.163L269.291 250.163C270.818 250.587 272.114 251.598 272.893 252.974C273.673 254.351 273.872 255.98 273.448 257.503L273.396 257.689L258.601 253.587L260.255 247.658Z" fill="#2F2E41"/>
<path d="M303.314 245.944L293.703 177.316L272.944 245.556L256.622 239.998L280.016 148.623L280.17 148.612L304.677 146.912L322.382 240.397L303.314 245.944Z" fill="#2F2E41"/>
<path d="M300.772 116.284C300.772 116.284 291.838 111.635 279.796 113.572C279.796 113.572 273.387 128.993 279.796 135.132L281.544 150.568C281.544 150.568 297.859 160.252 303.297 149.018L302.52 136.234C302.52 136.234 306.405 130.103 303.297 125.615C301.434 122.873 300.546 119.588 300.772 116.284Z" fill="#F9A826"/>
<path d="M301.904 186.494L303.472 154.044L299.034 115.441L299.238 115.41C305.06 114.534 306.927 124.536 307.003 124.963L317.136 182.097L301.904 186.494Z" fill="#3F3D56"/>
<path d="M282.148 186.832L264.235 184.848L264.239 184.652C264.303 182.007 265.845 119.825 270.165 115.421C274.511 110.99 282.712 112.907 283.059 112.992L283.232 113.033L281.758 139.345L282.148 186.832Z" fill="#3F3D56"/>
<path d="M285.448 149.667C284.905 149.845 284.33 149.902 283.763 149.834C283.196 149.765 282.651 149.574 282.166 149.273C281.681 148.973 281.269 148.569 280.957 148.092C280.645 147.615 280.442 147.075 280.362 146.512L266.74 143.85L271.795 138.718L283.956 142.032C284.914 141.961 285.866 142.243 286.63 142.825C287.395 143.407 287.918 144.248 288.102 145.189C288.286 146.13 288.117 147.106 287.628 147.931C287.139 148.756 286.363 149.374 285.448 149.667Z" fill="#FFB8B8"/>
<path d="M278.178 146.552L273.74 145.6C267.187 147.566 255.75 140.647 251.127 137.574C250.258 136.996 249.975 135.85 250.289 134.169C250.751 131.818 252.051 129.713 253.948 128.242L270.228 115.369L274.337 114.683L275.558 121.581L265.185 132.692L280.455 140.981L278.178 146.552Z" fill="#3F3D56"/>
<path d="M276.423 107.733V98.7884C276.423 95.0041 277.93 91.3749 280.614 88.699C283.297 86.0232 286.936 84.5199 290.73 84.5199C294.525 84.5199 298.164 86.0232 300.847 88.699C303.531 91.3749 305.038 95.0041 305.038 98.7884V107.733C305.037 108.241 304.835 108.728 304.474 109.087C304.114 109.447 303.626 109.649 303.116 109.649H278.345C277.835 109.649 277.347 109.447 276.987 109.087C276.626 108.728 276.424 108.241 276.423 107.733Z" fill="#2F2E41"/>
<path d="M290.155 109.561C295.949 109.561 300.645 104.878 300.645 99.1003C300.645 93.3227 295.949 88.6391 290.155 88.6391C284.362 88.6391 279.666 93.3227 279.666 99.1003C279.666 104.878 284.362 109.561 290.155 109.561Z" fill="#FFB8B8"/>
<path d="M279.378 99.06C279.278 98.9446 279.203 98.8091 279.16 98.6627C279.117 98.5162 279.106 98.3622 279.128 98.2111L280.37 89.5819C280.395 89.4063 280.463 89.2397 280.569 89.097C280.674 88.9542 280.814 88.84 280.975 88.7646C287.317 85.8043 293.749 85.8006 300.091 88.7534C300.259 88.8329 300.404 88.9546 300.511 89.1067C300.618 89.2587 300.683 89.4358 300.701 89.6206L301.531 98.261C301.545 98.4087 301.528 98.5578 301.481 98.6986C301.434 98.8394 301.358 98.9689 301.258 99.0787C301.158 99.1885 301.036 99.2763 300.9 99.3363C300.764 99.3963 300.617 99.4273 300.468 99.4273H298.364C298.161 99.4268 297.962 99.3688 297.791 99.26C297.62 99.1513 297.483 98.9962 297.397 98.8129L296.489 96.873C296.43 96.7474 296.332 96.6442 296.209 96.5791C296.086 96.514 295.946 96.4904 295.809 96.5119C295.671 96.5335 295.545 96.599 295.448 96.6986C295.351 96.7981 295.29 96.9263 295.273 97.0639L295.093 98.4943C295.061 98.7517 294.935 98.9885 294.74 99.1603C294.545 99.332 294.294 99.4269 294.034 99.4273H280.185C280.032 99.4273 279.88 99.3945 279.741 99.3312C279.602 99.2678 279.478 99.1753 279.378 99.06Z" fill="#2F2E41"/>
<path d="M235.326 17.1931H0V163.334H235.326V17.1931Z" fill="#E6E6E6"/>
<path d="M58.8804 45.3466H15.7804V73.2853H58.8804V45.3466Z" fill="white"/>
<path d="M112.435 45.3466H69.3354V73.2853H112.435V45.3466Z" fill="white"/>
<path d="M165.991 45.3466H122.891V73.2853H165.991V45.3466Z" fill="white"/>
<path d="M219.545 45.3466H176.445V73.2853H219.545V45.3466Z" fill="white"/>
<path d="M58.8804 84.8906H15.7804V112.829H58.8804V84.8906Z" fill="white"/>
<path d="M112.435 84.8906H69.3354V112.829H112.435V84.8906Z" fill="white"/>
<path d="M165.991 84.8906H122.891V112.829H165.991V84.8906Z" fill="white"/>
<path d="M219.545 84.8906H176.445V112.829H219.545V84.8906Z" fill="white"/>
<path d="M58.8804 124.435H15.7804V152.373H58.8804V124.435Z" fill="white"/>
<path d="M112.435 124.435H69.3354V152.373H112.435V124.435Z" fill="white"/>
<path d="M165.991 124.435H122.891V152.373H165.991V124.435Z" fill="white"/>
<path d="M219.545 124.435H176.445V152.373H219.545V124.435Z" fill="white"/>
<path d="M61.633 34.386C65.2035 34.386 68.098 31.4994 68.098 27.9387C68.098 24.3779 65.2035 21.4913 61.633 21.4913C58.0624 21.4913 55.168 24.3779 55.168 27.9387C55.168 31.4994 58.0624 34.386 61.633 34.386Z" fill="white"/>
<path d="M168.521 34.3861C172.091 34.3861 174.986 31.4995 174.986 27.9387C174.986 24.3779 172.091 21.4913 168.521 21.4913C164.95 21.4913 162.056 24.3779 162.056 27.9387C162.056 31.4995 164.95 34.3861 168.521 34.3861Z" fill="white"/>
<path d="M64.2189 0H59.0469V29.658H64.2189V0Z" fill="#E6E6E6"/>
<path d="M171.107 0H165.935V29.658H171.107V0Z" fill="#E6E6E6"/>
<path d="M207.742 59.3159C207.74 61.6501 206.893 63.9051 205.357 65.6665C203.821 67.428 201.7 68.5776 199.382 68.9041C197.065 69.2306 194.707 68.712 192.742 67.4438C190.777 66.1755 189.337 64.2427 188.687 62.0005C188.036 59.7583 188.219 57.3572 189.201 55.2386C190.184 53.12 191.9 51.4261 194.034 50.4681C196.168 49.5101 198.578 49.3524 200.819 50.024C203.061 50.6956 204.984 52.1513 206.236 54.1237C207.221 55.677 207.744 57.4778 207.742 59.3159Z" fill="#F9A826"/>
<path d="M206.236 54.1238L196.642 63.6899C196.039 62.759 192.679 58.4323 192.679 58.4323C193.11 57.9984 193.569 57.594 194.054 57.2218L196.84 60.926L205.112 52.6764C205.532 53.1224 205.908 53.607 206.236 54.1238Z" fill="white"/>
<path d="M100.632 98.8599C100.63 101.194 99.7829 103.449 98.2471 105.211C96.7114 106.972 94.5898 108.122 92.2723 108.448C89.9547 108.775 87.5969 108.256 85.632 106.988C83.6671 105.719 82.2271 103.787 81.5766 101.544C80.9261 99.3022 81.1089 96.9012 82.0912 94.7826C83.0736 92.664 84.7896 90.97 86.9239 90.0121C89.0583 89.0541 91.4676 88.8964 93.7092 89.568C95.9507 90.2396 97.874 91.6953 99.1256 93.6677C100.111 95.221 100.634 97.0218 100.632 98.8599Z" fill="#F9A826"/>
<path d="M99.1257 93.6677L89.5316 103.234C88.9286 102.303 85.5692 97.9763 85.5692 97.9763C85.9997 97.5424 86.4592 97.1379 86.9443 96.7657L89.7301 100.47L98.0022 92.2203C98.4217 92.6663 98.7979 93.1509 99.1257 93.6677Z" fill="white"/>
<path d="M47.0769 98.8599C47.0747 101.194 46.2279 103.449 44.6921 105.211C43.1564 106.972 41.0348 108.122 38.7173 108.448C36.3997 108.775 34.0419 108.256 32.077 106.988C30.112 105.72 28.672 103.787 28.0216 101.544C27.3711 99.3022 27.5538 96.9012 28.5362 94.7826C29.5185 92.6639 31.2346 90.97 33.3689 90.012C35.5033 89.054 37.9126 88.8964 40.1542 89.5679C42.3958 90.2395 44.319 91.6953 45.5706 93.6677C46.5562 95.221 47.0787 97.0218 47.0769 98.8599Z" fill="#F9A826"/>
<path d="M45.5706 93.6677L35.9765 103.234C35.3735 102.303 32.0142 97.9763 32.0142 97.9763C32.4447 97.5424 32.9041 97.1379 33.3893 96.7657L36.175 100.47L44.4471 92.2203C44.8666 92.6663 45.2428 93.1509 45.5706 93.6677Z" fill="white"/>
<path d="M369.573 258H206.852C206.739 258 206.63 257.955 206.55 257.875C206.47 257.795 206.425 257.687 206.425 257.574C206.425 257.461 206.47 257.353 206.55 257.273C206.63 257.193 206.739 257.148 206.852 257.148H369.573C369.686 257.148 369.795 257.193 369.875 257.273C369.955 257.353 370 257.461 370 257.574C370 257.687 369.955 257.795 369.875 257.875C369.795 257.955 369.686 258 369.573 258Z" fill="#3F3D56"/>
</svg>
