<svg width="22" height="25" viewBox="0 0 22 25" fill="none" xmlns="http://www.w3.org/2000/svg">
<path d="M19.8169 4.69238C19.7241 4.56922 19.6249 4.45098 19.5198 4.33814C19.6255 4.0564 19.7059 3.76575 19.7598 3.46968C19.919 2.38662 19.7807 1.28065 19.3598 0.270091C19.3598 0.270091 18.08 -0.129857 15.1432 1.84703C13.8964 1.50278 12.6086 1.32978 11.3151 1.33281C10.018 1.33054 8.72647 1.50351 7.47563 1.84703C4.53886 -0.152712 3.25902 0.270091 3.25902 0.270091C2.84317 1.26995 2.70499 2.36353 2.85907 3.4354C2.9133 3.74378 2.99749 4.04613 3.11047 4.33814C3.00763 4.45242 2.90478 4.57811 2.81337 4.69238C1.96066 5.76199 1.50801 7.09567 1.53353 8.46333C1.53082 8.7877 1.54608 9.11196 1.57924 9.43464C1.9449 14.4968 5.3159 15.6738 8.52692 16.0395C8.07244 16.4621 7.76427 17.0184 7.64703 17.6279C7.54082 18.0343 7.49084 18.4534 7.49848 18.8734V20.3704C6.21979 20.4847 4.90795 20.2984 4.50115 19.158C4.06446 18.0664 3.34024 17.1135 2.40542 16.4006C2.33709 16.3636 2.2721 16.3208 2.21116 16.2726C2.12907 16.0569 1.98363 15.871 1.79396 15.7395C1.60429 15.6079 1.37926 15.5369 1.14843 15.5356H1.14272C0.840642 15.5356 0.550852 15.6552 0.336715 15.8682C0.122579 16.0813 0.00151985 16.3705 9.46179e-06 16.6726C-0.00341867 17.6005 0.925606 18.2004 1.30613 18.4038C1.75071 18.8518 2.10833 19.3783 2.36085 19.9567C2.7768 21.1257 3.99379 22.9026 7.4642 22.6718L7.46649 22.7838L7.47106 23.09C7.47106 23.3931 7.59145 23.6838 7.80575 23.8981C8.02005 24.1124 8.3107 24.2327 8.61377 24.2327H14.0005C14.3036 24.2327 14.5942 24.1124 14.8085 23.8981C15.0228 23.6838 15.1432 23.3931 15.1432 23.09C15.1432 23.09 15.1524 19.4791 15.1524 18.8734C15.16 18.4534 15.11 18.0343 15.0038 17.6279L15.0015 17.621L15.0061 17.6279C14.9958 17.5879 14.981 17.5559 14.9695 17.517C14.8422 16.9509 14.5476 16.4361 14.1239 16.0395L14.1376 16.0635L14.1148 16.0407C17.3258 15.675 20.6739 14.4751 21.0396 9.43578C21.0728 9.1131 21.088 8.78884 21.0853 8.46447C21.1056 7.09952 20.658 5.76876 19.8169 4.69353V4.69238Z" fill="black" fill-opacity="0.4"/>
</svg>
