<svg width="22" height="24" viewBox="0 0 22 24" fill="none" xmlns="http://www.w3.org/2000/svg">
<mask id="path-1-outside-1_9:8" maskUnits="userSpaceOnUse" x="0" y="0" width="22" height="24" fill="black">
<rect fill="white" width="22" height="24"/>
<path d="M20.0353 5.25753C20.9453 6.34953 21.3993 7.62354 21.3993 9.07954C21.3993 14.3565 18.3973 15.9035 15.5763 16.3585C15.9403 16.9955 16.0313 17.7235 16.0313 18.4515V22.1815C16.0313 22.6365 15.7583 22.9095 15.3943 22.9095C15.2983 22.9109 15.203 22.893 15.1141 22.8569C15.0252 22.8208 14.9444 22.7672 14.8765 22.6993C14.8086 22.6314 14.755 22.5506 14.7189 22.4617C14.6828 22.3728 14.6649 22.2775 14.6663 22.1815V18.4515C14.7142 18.0702 14.6734 17.6829 14.5472 17.3199C14.4209 16.9568 14.2125 16.6278 13.9383 16.3585L14.3933 15.1755C17.2143 14.8115 20.1263 13.9015 20.1263 8.98853C20.1263 7.80553 19.6713 6.71353 18.8523 5.80353L18.6703 5.07653C19.0163 4.20458 19.0481 3.23938 18.7603 2.34653C18.3063 2.43653 17.3963 2.61953 15.8503 3.71153L15.3033 3.80153C13.154 3.2558 10.9025 3.2558 8.75327 3.80153L8.20627 3.71153C6.57027 2.71053 5.66026 2.43753 5.20427 2.43753C4.93127 3.34753 4.93127 4.34753 5.29427 5.16753L5.11327 5.89453C4.20326 6.80453 3.74827 7.98754 3.74827 9.07954C3.74827 13.9015 6.47826 14.9025 9.48026 15.2665L9.84426 16.4495C9.29827 16.9955 9.02527 17.7235 9.11627 18.4515V22.2725C9.11761 22.3685 9.0997 22.4638 9.06359 22.5527C9.02748 22.6416 8.97391 22.7224 8.90604 22.7903C8.83817 22.8582 8.75738 22.9118 8.66844 22.9479C8.57951 22.984 8.48424 23.0019 8.38826 23.0005C8.29229 23.0019 8.19702 22.984 8.10809 22.9479C8.01915 22.9118 7.93836 22.8582 7.87049 22.7903C7.80262 22.7224 7.74905 22.6416 7.71294 22.5527C7.67683 22.4638 7.65892 22.3685 7.66026 22.2725V20.1805C4.65826 20.8175 3.47527 19.2705 2.56527 18.0885C2.11027 17.5425 1.74626 17.0875 1.29126 16.9965C1.20126 16.9055 0.927265 16.5415 1.01826 16.1775C1.10926 15.8135 1.47327 15.5405 1.83827 15.7225C2.74827 15.9045 3.29326 16.6325 3.83826 17.2695C4.65826 18.3615 5.47726 19.3615 7.93326 18.8165V18.4525C7.84326 17.7245 8.02426 16.9965 8.38826 16.3595C5.65826 15.8135 2.47427 14.2665 2.47427 9.08053C2.47427 7.62454 2.92927 6.35053 3.83927 5.25853C3.56627 3.98553 3.65727 2.62053 4.11227 1.52853L4.56727 1.16453C4.74926 1.07353 6.02326 0.800535 8.66026 2.43753C10.8406 1.89161 13.1219 1.89161 15.3023 2.43753C17.8513 0.708535 19.2163 0.980535 19.3983 1.07253L19.8533 1.43653C20.3083 2.71053 20.3993 3.98453 20.0353 5.25753Z"/>
</mask>
<path d="M20.0353 5.25753C20.9453 6.34953 21.3993 7.62354 21.3993 9.07954C21.3993 14.3565 18.3973 15.9035 15.5763 16.3585C15.9403 16.9955 16.0313 17.7235 16.0313 18.4515V22.1815C16.0313 22.6365 15.7583 22.9095 15.3943 22.9095C15.2983 22.9109 15.203 22.893 15.1141 22.8569C15.0252 22.8208 14.9444 22.7672 14.8765 22.6993C14.8086 22.6314 14.755 22.5506 14.7189 22.4617C14.6828 22.3728 14.6649 22.2775 14.6663 22.1815V18.4515C14.7142 18.0702 14.6734 17.6829 14.5472 17.3199C14.4209 16.9568 14.2125 16.6278 13.9383 16.3585L14.3933 15.1755C17.2143 14.8115 20.1263 13.9015 20.1263 8.98853C20.1263 7.80553 19.6713 6.71353 18.8523 5.80353L18.6703 5.07653C19.0163 4.20458 19.0481 3.23938 18.7603 2.34653C18.3063 2.43653 17.3963 2.61953 15.8503 3.71153L15.3033 3.80153C13.154 3.2558 10.9025 3.2558 8.75327 3.80153L8.20627 3.71153C6.57027 2.71053 5.66026 2.43753 5.20427 2.43753C4.93127 3.34753 4.93127 4.34753 5.29427 5.16753L5.11327 5.89453C4.20326 6.80453 3.74827 7.98754 3.74827 9.07954C3.74827 13.9015 6.47826 14.9025 9.48026 15.2665L9.84426 16.4495C9.29827 16.9955 9.02527 17.7235 9.11627 18.4515V22.2725C9.11761 22.3685 9.0997 22.4638 9.06359 22.5527C9.02748 22.6416 8.97391 22.7224 8.90604 22.7903C8.83817 22.8582 8.75738 22.9118 8.66844 22.9479C8.57951 22.984 8.48424 23.0019 8.38826 23.0005C8.29229 23.0019 8.19702 22.984 8.10809 22.9479C8.01915 22.9118 7.93836 22.8582 7.87049 22.7903C7.80262 22.7224 7.74905 22.6416 7.71294 22.5527C7.67683 22.4638 7.65892 22.3685 7.66026 22.2725V20.1805C4.65826 20.8175 3.47527 19.2705 2.56527 18.0885C2.11027 17.5425 1.74626 17.0875 1.29126 16.9965C1.20126 16.9055 0.927265 16.5415 1.01826 16.1775C1.10926 15.8135 1.47327 15.5405 1.83827 15.7225C2.74827 15.9045 3.29326 16.6325 3.83826 17.2695C4.65826 18.3615 5.47726 19.3615 7.93326 18.8165V18.4525C7.84326 17.7245 8.02426 16.9965 8.38826 16.3595C5.65826 15.8135 2.47427 14.2665 2.47427 9.08053C2.47427 7.62454 2.92927 6.35053 3.83927 5.25853C3.56627 3.98553 3.65727 2.62053 4.11227 1.52853L4.56727 1.16453C4.74926 1.07353 6.02326 0.800535 8.66026 2.43753C10.8406 1.89161 13.1219 1.89161 15.3023 2.43753C17.8513 0.708535 19.2163 0.980535 19.3983 1.07253L19.8533 1.43653C20.3083 2.71053 20.3993 3.98453 20.0353 5.25753Z" fill="#08AD5D"/>
<path d="M20.0353 5.25753C20.9453 6.34953 21.3993 7.62354 21.3993 9.07954C21.3993 14.3565 18.3973 15.9035 15.5763 16.3585C15.9403 16.9955 16.0313 17.7235 16.0313 18.4515V22.1815C16.0313 22.6365 15.7583 22.9095 15.3943 22.9095C15.2983 22.9109 15.203 22.893 15.1141 22.8569C15.0252 22.8208 14.9444 22.7672 14.8765 22.6993C14.8086 22.6314 14.755 22.5506 14.7189 22.4617C14.6828 22.3728 14.6649 22.2775 14.6663 22.1815V18.4515C14.7142 18.0702 14.6734 17.6829 14.5472 17.3199C14.4209 16.9568 14.2125 16.6278 13.9383 16.3585L14.3933 15.1755C17.2143 14.8115 20.1263 13.9015 20.1263 8.98853C20.1263 7.80553 19.6713 6.71353 18.8523 5.80353L18.6703 5.07653C19.0163 4.20458 19.0481 3.23938 18.7603 2.34653C18.3063 2.43653 17.3963 2.61953 15.8503 3.71153L15.3033 3.80153C13.154 3.2558 10.9025 3.2558 8.75327 3.80153L8.20627 3.71153C6.57027 2.71053 5.66026 2.43753 5.20427 2.43753C4.93127 3.34753 4.93127 4.34753 5.29427 5.16753L5.11327 5.89453C4.20326 6.80453 3.74827 7.98754 3.74827 9.07954C3.74827 13.9015 6.47826 14.9025 9.48026 15.2665L9.84426 16.4495C9.29827 16.9955 9.02527 17.7235 9.11627 18.4515V22.2725C9.11761 22.3685 9.0997 22.4638 9.06359 22.5527C9.02748 22.6416 8.97391 22.7224 8.90604 22.7903C8.83817 22.8582 8.75738 22.9118 8.66844 22.9479C8.57951 22.984 8.48424 23.0019 8.38826 23.0005C8.29229 23.0019 8.19702 22.984 8.10809 22.9479C8.01915 22.9118 7.93836 22.8582 7.87049 22.7903C7.80262 22.7224 7.74905 22.6416 7.71294 22.5527C7.67683 22.4638 7.65892 22.3685 7.66026 22.2725V20.1805C4.65826 20.8175 3.47527 19.2705 2.56527 18.0885C2.11027 17.5425 1.74626 17.0875 1.29126 16.9965C1.20126 16.9055 0.927265 16.5415 1.01826 16.1775C1.10926 15.8135 1.47327 15.5405 1.83827 15.7225C2.74827 15.9045 3.29326 16.6325 3.83826 17.2695C4.65826 18.3615 5.47726 19.3615 7.93326 18.8165V18.4525C7.84326 17.7245 8.02426 16.9965 8.38826 16.3595C5.65826 15.8135 2.47427 14.2665 2.47427 9.08053C2.47427 7.62454 2.92927 6.35053 3.83927 5.25853C3.56627 3.98553 3.65727 2.62053 4.11227 1.52853L4.56727 1.16453C4.74926 1.07353 6.02326 0.800535 8.66026 2.43753C10.8406 1.89161 13.1219 1.89161 15.3023 2.43753C17.8513 0.708535 19.2163 0.980535 19.3983 1.07253L19.8533 1.43653C20.3083 2.71053 20.3993 3.98453 20.0353 5.25753Z" stroke="#08AD5D" mask="url(#path-1-outside-1_9:8)"/>
</svg>
