<svg width="24" height="24" viewBox="0 0 24 24" fill="none" xmlns="http://www.w3.org/2000/svg">
<path d="M20.8169 4.45964C20.7241 4.33647 20.6249 4.21823 20.5198 4.1054C20.6255 3.82365 20.7059 3.533 20.7598 3.23693C20.919 2.15387 20.7807 1.0479 20.3598 0.0373424C20.3598 0.0373424 19.08 -0.362606 16.1432 1.61428C14.8964 1.27003 13.6086 1.09704 12.3151 1.10006C11.018 1.09779 9.72647 1.27076 8.47563 1.61428C5.53886 -0.385461 4.25902 0.0373424 4.25902 0.0373424C3.84317 1.0372 3.70499 2.13078 3.85907 3.20265C3.9133 3.51103 3.99749 3.81338 4.11047 4.1054C4.00763 4.21967 3.90478 4.34536 3.81337 4.45964C2.96066 5.52924 2.50801 6.86292 2.53353 8.23058C2.53082 8.55495 2.54608 8.87921 2.57924 9.20189C2.9449 14.2641 6.3159 15.4411 9.52692 15.8068C9.07244 16.2294 8.76427 16.7857 8.64703 17.3951C8.54082 17.8016 8.49084 18.2207 8.49848 18.6407V20.1376C7.21979 20.2519 5.90795 20.0656 5.50115 18.9252C5.06446 17.8337 4.34024 16.8808 3.40542 16.1679C3.33709 16.1309 3.2721 16.0881 3.21116 16.0399C3.12907 15.8241 2.98363 15.6383 2.79396 15.5067C2.60429 15.3752 2.37926 15.3041 2.14843 15.3028H2.14272C1.84064 15.3028 1.55085 15.4224 1.33672 15.6355C1.12258 15.8486 1.00152 16.1377 1.00001 16.4398C0.996581 17.3677 1.92561 17.9676 2.30613 18.171C2.75071 18.619 3.10833 19.1456 3.36085 19.724C3.7768 20.893 4.99379 22.6699 8.4642 22.4391L8.46649 22.551L8.47106 22.8573C8.47106 23.1604 8.59145 23.451 8.80575 23.6653C9.02005 23.8796 9.3107 24 9.61377 24H15.0005C15.3036 24 15.5942 23.8796 15.8085 23.6653C16.0228 23.451 16.1432 23.1604 16.1432 22.8573C16.1432 22.8573 16.1524 19.2463 16.1524 18.6407C16.16 18.2207 16.11 17.8016 16.0038 17.3951L16.0015 17.3883L16.0061 17.3951C15.9958 17.3551 15.981 17.3231 15.9695 17.2843C15.8422 16.7181 15.5476 16.2033 15.1239 15.8068L15.1376 15.8308L15.1148 15.8079C18.3258 15.4422 21.6739 14.2424 22.0396 9.20303C22.0728 8.88035 22.088 8.55609 22.0853 8.23173C22.1056 6.86677 21.658 5.53601 20.8169 4.46078V4.45964Z" fill="black" fill-opacity="0.7"/>
</svg>
