<svg width="24" height="24" viewBox="0 0 24 24" fill="none" xmlns="http://www.w3.org/2000/svg">
<path d="M20.5353 5.75754C21.4453 6.84954 21.8993 8.12354 21.8993 9.57954C21.8993 14.8565 18.8973 16.4035 16.0763 16.8585C16.4403 17.4955 16.5313 18.2235 16.5313 18.9515V22.6815C16.5313 23.1365 16.2583 23.4095 15.8943 23.4095C15.7983 23.4109 15.703 23.393 15.6141 23.3569C15.5252 23.3208 15.4444 23.2672 15.3765 23.1993C15.3086 23.1314 15.255 23.0506 15.2189 22.9617C15.1828 22.8728 15.1649 22.7775 15.1663 22.6815V18.9515C15.2142 18.5702 15.1734 18.1829 15.0472 17.8199C14.9209 17.4568 14.7125 17.1278 14.4383 16.8585L14.8933 15.6755C17.7143 15.3115 20.6263 14.4015 20.6263 9.48854C20.6263 8.30554 20.1713 7.21354 19.3523 6.30354L19.1703 5.57654C19.5163 4.70458 19.5481 3.73938 19.2603 2.84653C18.8063 2.93653 17.8963 3.11953 16.3503 4.21153L15.8033 4.30153C13.654 3.7558 11.4025 3.7558 9.25327 4.30153L8.70627 4.21153C7.07027 3.21053 6.16027 2.93753 5.70427 2.93753C5.43127 3.84753 5.43127 4.84753 5.79427 5.66753L5.61327 6.39454C4.70327 7.30454 4.24827 8.48754 4.24827 9.57954C4.24827 14.4015 6.97826 15.4025 9.98026 15.7665L10.3443 16.9495C9.79826 17.4955 9.52527 18.2235 9.61627 18.9515V22.7725C9.61761 22.8685 9.5997 22.9638 9.56359 23.0527C9.52748 23.1416 9.47391 23.2224 9.40604 23.2903C9.33817 23.3582 9.25738 23.4118 9.16844 23.4479C9.07951 23.484 8.98424 23.5019 8.88826 23.5005C8.79229 23.5019 8.69702 23.484 8.60809 23.4479C8.51915 23.4118 8.43836 23.3582 8.37049 23.2903C8.30262 23.2224 8.24905 23.1416 8.21294 23.0527C8.17683 22.9638 8.15892 22.8685 8.16026 22.7725V20.6805C5.15826 21.3175 3.97527 19.7705 3.06527 18.5885C2.61027 18.0425 2.24626 17.5875 1.79126 17.4965C1.70126 17.4055 1.42726 17.0415 1.51826 16.6775C1.60926 16.3135 1.97327 16.0405 2.33827 16.2225C3.24827 16.4045 3.79326 17.1325 4.33826 17.7695C5.15826 18.8615 5.97726 19.8615 8.43326 19.3165V18.9525C8.34326 18.2245 8.52426 17.4965 8.88826 16.8595C6.15826 16.3135 2.97427 14.7665 2.97427 9.58054C2.97427 8.12454 3.42927 6.85054 4.33927 5.75853C4.06627 4.48553 4.15727 3.12053 4.61227 2.02853L5.06727 1.66453C5.24927 1.57353 6.52326 1.30053 9.16026 2.93753C11.3406 2.39161 13.6219 2.39161 15.8023 2.93753C18.3513 1.20853 19.7163 1.48053 19.8983 1.57253L20.3533 1.93653C20.8083 3.21053 20.8993 4.48453 20.5353 5.75754Z" fill="white"/>
</svg>
