<svg width="22" height="24" viewBox="0 0 22 24" fill="none" xmlns="http://www.w3.org/2000/svg">
<path d="M19.8169 4.45964C19.7241 4.33647 19.6249 4.21823 19.5198 4.1054C19.6255 3.82365 19.7059 3.533 19.7598 3.23693C19.919 2.15387 19.7807 1.0479 19.3598 0.0373424C19.3598 0.0373424 18.08 -0.362606 15.1432 1.61428C13.8964 1.27003 12.6086 1.09704 11.3151 1.10006C10.018 1.09779 8.72647 1.27076 7.47563 1.61428C4.53886 -0.385461 3.25902 0.0373424 3.25902 0.0373424C2.84317 1.0372 2.70499 2.13078 2.85907 3.20265C2.9133 3.51103 2.99749 3.81338 3.11047 4.1054C3.00763 4.21967 2.90478 4.34536 2.81337 4.45964C1.96066 5.52924 1.50801 6.86292 1.53353 8.23058C1.53082 8.55495 1.54608 8.87921 1.57924 9.20189C1.9449 14.2641 5.3159 15.4411 8.52692 15.8068C8.07244 16.2294 7.76427 16.7857 7.64703 17.3951C7.54082 17.8016 7.49084 18.2207 7.49848 18.6407V20.1376C6.21979 20.2519 4.90795 20.0656 4.50115 18.9252C4.06446 17.8337 3.34024 16.8808 2.40542 16.1679C2.33709 16.1309 2.2721 16.0881 2.21116 16.0399C2.12907 15.8241 1.98363 15.6383 1.79396 15.5067C1.60429 15.3752 1.37926 15.3041 1.14843 15.3028H1.14272C0.840642 15.3028 0.550852 15.4224 0.336715 15.6355C0.122579 15.8486 0.00151985 16.1377 9.46179e-06 16.4398C-0.00341867 17.3677 0.925606 17.9676 1.30613 18.171C1.75071 18.619 2.10833 19.1456 2.36085 19.724C2.7768 20.893 3.99379 22.6699 7.4642 22.4391L7.46649 22.551L7.47106 22.8573C7.47106 23.1604 7.59145 23.451 7.80575 23.6653C8.02005 23.8796 8.3107 24 8.61377 24H14.0005C14.3036 24 14.5942 23.8796 14.8085 23.6653C15.0228 23.451 15.1432 23.1604 15.1432 22.8573C15.1432 22.8573 15.1524 19.2463 15.1524 18.6407C15.16 18.2207 15.11 17.8016 15.0038 17.3951L15.0015 17.3883L15.0061 17.3951C14.9958 17.3551 14.981 17.3231 14.9695 17.2843C14.8422 16.7181 14.5476 16.2033 14.1239 15.8068L14.1376 15.8308L14.1148 15.8079C17.3258 15.4422 20.6739 14.2424 21.0396 9.20303C21.0728 8.88035 21.088 8.55609 21.0853 8.23173C21.1056 6.86677 20.658 5.53601 19.8169 4.46078V4.45964Z" fill="black" fill-opacity="0.4"/>
</svg>
