<svg width="24" height="24" viewBox="0 0 24 24" fill="none" xmlns="http://www.w3.org/2000/svg">
<path d="M16.9998 2H6.99979C4.23836 2 1.99979 4.23858 1.99979 7V17C1.99979 19.7614 4.23836 22 6.99979 22H16.9998C19.7612 22 21.9998 19.7614 21.9998 17V7C21.9998 4.23858 19.7612 2 16.9998 2Z" stroke="white" stroke-width="1.33333" stroke-linecap="round" stroke-linejoin="round"/>
<path d="M16.0005 11.3701C16.1239 12.2023 15.9817 13.0523 15.5942 13.7991C15.2067 14.5459 14.5936 15.1515 13.8421 15.5297C13.0906 15.908 12.2389 16.0397 11.4083 15.906C10.5776 15.7723 9.81023 15.3801 9.21531 14.7852C8.62039 14.1903 8.2282 13.4229 8.09454 12.5923C7.96087 11.7616 8.09254 10.91 8.4708 10.1584C8.84906 9.40691 9.45466 8.7938 10.2015 8.4063C10.9483 8.0188 11.7982 7.87665 12.6305 8.00006C13.4794 8.12594 14.2653 8.52152 14.8722 9.12836C15.479 9.73521 15.8746 10.5211 16.0005 11.3701Z" stroke="white" stroke-width="1.33333" stroke-linecap="round" stroke-linejoin="round"/>
<path d="M17.5002 6.5H17.5098" stroke="white" stroke-width="1.33333" stroke-linecap="round" stroke-linejoin="round"/>
</svg>
