<svg width="262" height="73" viewBox="0 0 262 73" fill="none" xmlns="http://www.w3.org/2000/svg">
<rect x="23" y="2.06689" width="238" height="62.5" rx="4" fill="#00A3F2"/>
<path d="M86.0534 3.02125C82.4375 5.57179 78.434 7.52255 74.197 8.7984C71.923 6.18361 68.9007 4.33033 65.539 3.48918C62.1773 2.64804 58.6384 2.85962 55.4008 4.09532C52.1633 5.33101 49.3834 7.5312 47.4371 10.3983C45.4907 13.2654 44.4719 16.6611 44.5183 20.1261V23.9021C37.8827 24.0741 31.3074 22.6024 25.3783 19.6181C19.4491 16.6337 14.35 12.2293 10.5351 6.79716C10.5351 6.79716 -4.56855 40.7804 29.4147 55.884C21.6383 61.1626 12.3746 63.8094 2.98328 63.4359C36.9665 82.3154 78.5016 63.4359 78.5016 20.0129C78.4981 18.9611 78.397 17.9119 78.1995 16.8789C82.0532 13.0784 84.7727 8.28001 86.0534 3.02125Z" stroke="white" stroke-opacity="0.16" stroke-width="4.29309" stroke-linecap="round" stroke-linejoin="round"/>
</svg>
