<svg width="512" height="512" viewBox="0 0 512 512" fill="none" xmlns="http://www.w3.org/2000/svg">
<path d="M374 1.49998C357.6 4.09998 340.9 10.7 325.6 20.7C320.4 24 304.6 39.2 267.3 76.4C211 132.5 212.9 130.1 218.9 136.1C221.5 138.6 222.6 139 227.5 139C242 139 262.6 142.6 276.3 147.5C288.6 152 284.9 154.5 325.4 114.2C351.4 88.4 363 77.5 367 75.3C383.7 66 405.4 66.7 420.8 77C435.5 86.8 443.2 101.5 443.2 119.5C443.2 130.5 440.7 139.1 435.1 147.6C432.7 151.3 409.3 175.4 372.4 212.1C327.1 257.3 312.3 271.4 308.5 273.3C295.3 279.9 280.3 281.1 267.3 276.7C259.8 274.1 256.7 272.3 248.5 265.5C238.3 257.1 231 254.4 220.6 255.2C205.6 256.4 194.2 266.2 190.4 281C189 286.5 188.9 288.5 189.9 293.9C190.6 297.4 192 302 193 304C198 313.7 215.1 327.8 231.5 335.6C250 344.4 263.9 347.4 285 347.3C307.1 347.2 321.8 343.8 339.5 334.7C354.5 326.9 361.8 320.3 415.5 266.1C479.2 201.8 485.3 195.4 491.3 186.4C518.8 144.9 518.8 93.9 491.4 52.9C465.9 14.7 419.5 -5.60002 374 1.49998ZM416.5 19.9C449.4 28 476.7 52.2 488.4 83.3C493.3 96.1 494.5 103.4 494.5 119.5C494.5 139.6 491.3 152.8 482.3 169C474.7 182.8 469.9 188 404 252.9C341.9 314 340.4 315.3 322.3 322.7C308.4 328.4 297 330.3 281 329.6C256.6 328.6 238.7 322.1 220.2 307.5C208.9 298.6 205.8 293 207.4 284.4C208.4 279.5 214.2 273.3 219.2 271.9C226.1 270.1 230.1 271.5 239.6 279.1C244.3 282.9 250.3 287.1 252.8 288.4C270 297.1 291.5 298.2 309 291.3C322 286.2 326.4 282.3 387.6 220.8C450.9 157.3 452 156 457 141.2C463.1 122.7 461 101.6 451.3 85C446.4 76.7 435.2 65.5 427 60.7C423.4 58.6 416.9 55.8 412.5 54.3C405.7 52.1 402.7 51.7 392.5 51.7C382.3 51.7 379.3 52.1 372.5 54.3C357.3 59.3 354.3 61.7 317.5 98.1L283.5 131.8L278.4 130C273.2 128.2 258.6 124.8 249.7 123.3L244.9 122.5L287.2 80.4C312.2 55.5 331.8 36.8 335.3 34.6C347.4 26.7 361.4 21.1 375.3 18.4C385.2 16.5 406 17.3 416.5 19.9Z" fill="white"/>
<path d="M213.5 165.1C195.5 167.5 175.2 175.4 160.5 185.5C150 192.7 26.8 316.1 20.7 325.6C-6.79998 367.7 -6.79998 418.1 20.6 459.1C53.4 508.2 118.7 525.9 171.4 499.9C188.2 491.5 191.3 488.9 244.3 436.1C272.2 408.3 295.3 384.7 295.6 383.7C296.5 381 295.3 377.3 292.8 375C291.2 373.5 289.3 373 285.4 373C270.3 373 249.5 369.4 235.7 364.5C223.4 360 227.1 357.5 186.6 397.8C160.6 423.6 149 434.5 145 436.7C125.5 447.5 101.6 444.9 84.7 430.1C67.1 414.6 63.5 384.8 76.9 364.4C79.3 360.7 102.7 336.6 139.6 299.9C184.9 254.7 199.7 240.6 203.5 238.7C216.7 232.1 231.7 230.9 244.7 235.3C252.2 237.9 255.2 239.7 263.5 246.5C273.6 254.9 281 257.6 291.4 256.8C306.4 255.6 317.8 245.8 321.6 231C324.4 220 321.5 209.4 313.1 199.9C304.2 189.7 285.3 177.5 270.1 171.9C252.4 165.5 230 162.8 213.5 165.1ZM255.4 185.4C272 190.4 285.8 198 296.9 208.4C303 214.2 305 218.1 305 224.3C305 229.5 302.1 234.3 297 237.8C292 241.2 282.7 240.6 277.9 236.7C263.3 224.8 256.4 221 243.7 217.8C227.4 213.7 207.6 216.8 192.5 225.7C184 230.8 70 344.4 63 354.7C53.8 368.4 50 383.9 51.9 399.7C53.9 416.4 59.8 428.7 71.5 440.5C79.7 448.7 88.3 454 99.5 457.7C106.3 459.9 109.3 460.3 119.5 460.3C129.7 460.3 132.7 459.9 139.5 457.7C154.7 452.7 157.7 450.3 194.5 413.9L228.5 380.2L234 382.2C237 383.2 245.7 385.3 253.2 386.8L267 389.6L224.7 431.6C199.7 456.5 180.2 475.2 176.7 477.4C140.9 500.6 97.2 500.7 62.8 477.7C40.6 462.9 25.7 441.3 19.3 414.8C16.8 404.6 16.8 380.4 19.3 370.2C22.9 355.4 29 342.2 37.7 330.6C43.6 322.6 160.8 206.2 168.5 200.6C179.3 192.8 192.7 187 208 183.5C212.7 182.5 218.9 182.2 230.5 182.4C244.3 182.7 247.7 183.1 255.4 185.4Z" fill="white"/>
</svg>
