<svg width="24" height="24" viewBox="0 0 24 24" fill="none" xmlns="http://www.w3.org/2000/svg">
<path d="M16.0002 8C17.5915 8 19.1176 8.63214 20.2429 9.75736C21.3681 10.8826 22.0002 12.4087 22.0002 14V21H18.0002V14C18.0002 13.4696 17.7895 12.9609 17.4144 12.5858C17.0394 12.2107 16.5306 12 16.0002 12C15.4698 12 14.9611 12.2107 14.586 12.5858C14.2109 12.9609 14.0002 13.4696 14.0002 14V21H10.0002V14C10.0002 12.4087 10.6324 10.8826 11.7576 9.75736C12.8828 8.63214 14.4089 8 16.0002 8Z" stroke="white" stroke-width="1.33333" stroke-linecap="round" stroke-linejoin="round"/>
<path d="M5.99979 9H1.99979V21H5.99979V9Z" stroke="white" stroke-width="1.33333" stroke-linecap="round" stroke-linejoin="round"/>
<path d="M3.99979 6C5.10436 6 5.99979 5.10457 5.99979 4C5.99979 2.89543 5.10436 2 3.99979 2C2.89522 2 1.99979 2.89543 1.99979 4C1.99979 5.10457 2.89522 6 3.99979 6Z" stroke="white" stroke-width="1.33333" stroke-linecap="round" stroke-linejoin="round"/>
</svg>
