<svg width="24" height="25" viewBox="0 0 24 25" fill="none" xmlns="http://www.w3.org/2000/svg">
<path d="M5.37227 24.2332H0.396383V8.20916H5.37227V24.2332ZM2.88133 6.02336C1.29041 6.02336 -0.000488281 4.70503 -0.000488281 3.11412C-0.000488281 2.34981 0.303131 1.61681 0.843576 1.07636C1.38402 0.535919 2.11702 0.2323 2.88133 0.2323C3.64563 0.2323 4.37864 0.535919 4.91908 1.07636C5.45953 1.61681 5.76315 2.34981 5.76315 3.11412C5.76315 4.70503 4.47224 6.02336 2.88133 6.02336ZM23.9952 24.2332H19.0305V16.4329C19.0305 14.5737 18.9928 12.1899 16.4435 12.1899C13.8566 12.1899 13.4597 14.2094 13.4597 16.2992V24.2332H8.48896V8.20916H13.2608V10.3949H13.3303C13.9946 9.13576 15.6172 7.80714 18.0379 7.80714C23.0738 7.80714 23.9995 11.1235 23.9995 15.4308V24.2332H23.9952Z" fill="black" fill-opacity="0.4"/>
</svg>
