<svg width="24" height="24" viewBox="0 0 24 24" fill="none" xmlns="http://www.w3.org/2000/svg">
<path d="M5.37276 24.0009H0.396871V7.97686H5.37276V24.0009ZM2.88182 5.79106C1.2909 5.79106 0 4.47273 0 2.88182C0 2.11751 0.303619 1.38451 0.844065 0.844065C1.38451 0.303619 2.11751 0 2.88182 0C3.64612 0 4.37912 0.303619 4.91957 0.844065C5.46002 1.38451 5.76363 2.11751 5.76363 2.88182C5.76363 4.47273 4.47273 5.79106 2.88182 5.79106ZM23.9957 24.0009H19.031V16.2006C19.031 14.3414 18.9932 11.9576 16.444 11.9576C13.8571 11.9576 13.4602 13.9771 13.4602 16.0669V24.0009H8.48945V7.97686H13.2613V10.1626H13.3308C13.9951 8.90346 15.6177 7.57484 18.0384 7.57484C23.0743 7.57484 24 10.8912 24 15.1985V24.0009H23.9957Z" fill="black" fill-opacity="0.7"/>
</svg>
