<svg width="24" height="24" viewBox="0 0 24 24" fill="none" xmlns="http://www.w3.org/2000/svg">
<path d="M2.84594 8.46796C2.87576 8.2051 2.76341 7.94529 2.54342 7.76837L0.302521 5.35979V5H7.2605L12.6387 15.5238L17.3669 5H24V5.35979L22.084 6.99882C21.9189 7.11116 21.8369 7.2958 21.8711 7.47854V19.5215C21.8369 19.7042 21.9189 19.8888 22.084 20.0012L23.9552 21.6402V22H14.5434V21.6402L16.4818 19.9612C16.6723 19.7913 16.6723 19.7413 16.6723 19.4815V9.74721L11.2829 21.96H10.5546L4.28011 9.74721V17.9324C4.2278 18.2765 4.35589 18.623 4.62745 18.8718L7.14846 21.6002V21.96H0V21.6002L2.52101 18.8718C2.79059 18.6226 2.91122 18.2738 2.84594 17.9324V8.46796Z" fill="white"/>
</svg>
