<svg width="333" height="260" viewBox="0 0 333 260" fill="none" xmlns="http://www.w3.org/2000/svg">
<g clip-path="url(#clip0_630_1911)">
<path d="M197.444 19.6729C199.121 26.1791 192.854 26.7461 185.436 28.6595C178.018 30.5728 172.259 33.108 170.582 26.6019C168.905 20.0958 168.869 7.80553 179.363 5.09872C190.219 2.29866 195.767 13.1668 197.444 19.6729Z" fill="#2F2E41"/>
<path d="M181.324 28.7932C186.389 29.7517 191.271 26.421 192.229 21.3539C193.187 16.2867 189.857 11.402 184.792 10.4436C179.727 9.48507 174.845 12.8158 173.887 17.8829C172.929 22.95 176.258 27.8347 181.324 28.7932Z" fill="#FFB8B8"/>
<path d="M172.387 21.425L175.962 20.5029L176.4 15.6785L177.854 20.0148L179.562 19.5741L179.818 16.7598L180.666 19.2893L193.362 16.0147C192.707 13.4761 191.072 11.3016 188.815 9.96938C186.558 8.63718 183.865 8.25646 181.327 8.91097L179.487 9.38556C176.95 10.0401 174.776 11.6762 173.445 13.934C172.113 16.1919 171.733 18.8864 172.387 21.425Z" fill="#2F2E41"/>
<path d="M244.932 196.635H50.0438C48.3813 196.633 46.7876 195.972 45.612 194.796C44.4365 193.62 43.7753 192.025 43.7734 190.362V73.21C43.7748 71.9916 44.2592 70.8235 45.1204 69.9619C45.9815 69.1003 47.1492 68.6157 48.3671 68.6143H246.529C247.768 68.6157 248.956 69.1087 249.832 69.9852C250.708 70.8616 251.201 72.05 251.203 73.2894V190.362C251.201 192.025 250.539 193.62 249.364 194.796C248.188 195.972 246.595 196.633 244.932 196.635Z" fill="#F2F2F2"/>
<path d="M56.1243 190.362H238.852C240.465 190.362 242.011 189.722 243.151 188.581C244.292 187.44 244.932 185.893 244.932 184.28V84.8456C244.932 83.2324 244.292 81.6852 243.151 80.5444C242.011 79.4037 240.465 78.7628 238.852 78.7628H56.1243C54.5117 78.7628 52.9651 79.4037 51.8248 80.5444C50.6845 81.6852 50.0439 83.2324 50.0439 84.8456V184.28C50.0439 185.893 50.6845 187.44 51.8248 188.581C52.9651 189.722 54.5117 190.362 56.1243 190.362Z" fill="white"/>
<path d="M251.115 72.8512H43.6853V69.6575C43.6877 67.9889 44.3516 66.3894 45.5314 65.2098C46.7112 64.0303 48.3105 63.3671 49.9784 63.3657H244.822C246.49 63.3671 248.089 64.0303 249.269 65.2098C250.449 66.3894 251.113 67.9889 251.115 69.6575V72.8512Z" fill="#4286F5"/>
<path d="M55.1224 69.7463C56.0214 69.7463 56.7502 69.0173 56.7502 68.1179C56.7502 67.2185 56.0214 66.4894 55.1224 66.4894C54.2234 66.4894 53.4946 67.2185 53.4946 68.1179C53.4946 69.0173 54.2234 69.7463 55.1224 69.7463Z" fill="white"/>
<path d="M61.3009 69.7463C62.1999 69.7463 62.9287 69.0173 62.9287 68.1179C62.9287 67.2185 62.1999 66.4894 61.3009 66.4894C60.4019 66.4894 59.6731 67.2185 59.6731 68.1179C59.6731 69.0173 60.4019 69.7463 61.3009 69.7463Z" fill="white"/>
<path d="M67.4796 69.7463C68.3786 69.7463 69.1074 69.0173 69.1074 68.1179C69.1074 67.2185 68.3786 66.4894 67.4796 66.4894C66.5806 66.4894 65.8518 67.2185 65.8518 68.1179C65.8518 69.0173 66.5806 69.7463 67.4796 69.7463Z" fill="white"/>
<path d="M153.19 168.798H136.849C135.892 168.797 134.974 168.416 134.297 167.739C133.62 167.062 133.24 166.144 133.239 165.187V148.839C133.24 147.882 133.62 146.964 134.297 146.287C134.974 145.61 135.892 145.229 136.849 145.228H153.19C154.147 145.229 155.064 145.61 155.741 146.287C156.418 146.964 156.799 147.882 156.8 148.839V165.187C156.799 166.144 156.418 167.062 155.741 167.739C155.064 168.416 154.147 168.797 153.19 168.798ZM136.849 145.988C136.093 145.989 135.369 146.289 134.834 146.824C134.3 147.359 133.999 148.083 133.999 148.839V165.187C133.999 165.943 134.3 166.667 134.834 167.202C135.369 167.737 136.093 168.037 136.849 168.038H153.19C153.945 168.037 154.67 167.737 155.204 167.202C155.738 166.667 156.039 165.943 156.04 165.187V148.839C156.039 148.083 155.738 147.359 155.204 146.824C154.67 146.289 153.945 145.989 153.19 145.988H136.849Z" fill="#CCCCCC"/>
<path d="M149.96 164.236H140.079C139.777 164.236 139.487 164.116 139.273 163.902C139.06 163.688 138.939 163.398 138.939 163.096V150.93C138.939 150.628 139.06 150.338 139.273 150.124C139.487 149.91 139.777 149.79 140.079 149.79H147.238C147.498 149.79 147.75 149.879 147.953 150.041L150.674 152.229C150.807 152.335 150.914 152.471 150.988 152.624C151.062 152.778 151.1 152.947 151.1 153.118V163.096C151.099 163.398 150.979 163.688 150.765 163.902C150.552 164.116 150.262 164.236 149.96 164.236ZM140.079 150.55C139.978 150.55 139.882 150.59 139.81 150.662C139.739 150.733 139.699 150.829 139.699 150.93V163.096C139.699 163.197 139.739 163.293 139.81 163.364C139.882 163.436 139.978 163.476 140.079 163.476H149.96C150.06 163.476 150.157 163.436 150.228 163.364C150.299 163.293 150.339 163.197 150.34 163.096V153.118C150.34 153.061 150.327 153.005 150.302 152.953C150.278 152.902 150.242 152.857 150.198 152.821L147.476 150.634C147.409 150.58 147.325 150.55 147.238 150.55H140.079Z" fill="#CCCCCC"/>
<path d="M148.059 155.112H141.979C141.878 155.112 141.781 155.072 141.71 155.001C141.639 154.929 141.599 154.833 141.599 154.732C141.599 154.631 141.639 154.534 141.71 154.463C141.781 154.392 141.878 154.352 141.979 154.352H148.059C148.16 154.352 148.257 154.392 148.328 154.463C148.399 154.534 148.439 154.631 148.439 154.732C148.439 154.833 148.399 154.929 148.328 155.001C148.257 155.072 148.16 155.112 148.059 155.112Z" fill="#CCCCCC"/>
<path d="M148.059 157.393H141.979C141.878 157.393 141.781 157.353 141.71 157.282C141.639 157.211 141.599 157.114 141.599 157.013C141.599 156.912 141.639 156.815 141.71 156.744C141.781 156.673 141.878 156.633 141.979 156.633H148.059C148.16 156.633 148.257 156.673 148.328 156.744C148.399 156.815 148.439 156.912 148.439 157.013C148.439 157.114 148.399 157.211 148.328 157.282C148.257 157.353 148.16 157.393 148.059 157.393Z" fill="#CCCCCC"/>
<path d="M148.059 159.674H141.979C141.878 159.674 141.781 159.634 141.71 159.563C141.639 159.492 141.599 159.395 141.599 159.294C141.599 159.193 141.639 159.097 141.71 159.025C141.781 158.954 141.878 158.914 141.979 158.914H148.059C148.16 158.914 148.257 158.954 148.328 159.025C148.399 159.097 148.439 159.193 148.439 159.294C148.439 159.395 148.399 159.492 148.328 159.563C148.257 159.634 148.16 159.674 148.059 159.674Z" fill="#CCCCCC"/>
<path d="M191.951 168.798H175.611C174.654 168.797 173.736 168.416 173.059 167.739C172.382 167.062 172.002 166.144 172 165.187V148.839C172.002 147.882 172.382 146.964 173.059 146.287C173.736 145.61 174.654 145.229 175.611 145.228H191.951C192.909 145.229 193.826 145.61 194.503 146.287C195.18 146.964 195.561 147.882 195.562 148.839V165.187C195.561 166.144 195.18 167.062 194.503 167.739C193.826 168.416 192.909 168.797 191.951 168.798ZM175.611 145.988C174.855 145.989 174.131 146.289 173.596 146.824C173.062 147.359 172.761 148.083 172.761 148.839V165.187C172.761 165.943 173.062 166.667 173.596 167.202C174.131 167.737 174.855 168.037 175.611 168.038H191.951C192.707 168.037 193.432 167.737 193.966 167.202C194.5 166.667 194.801 165.943 194.802 165.187V148.839C194.801 148.083 194.5 147.359 193.966 146.824C193.432 146.289 192.707 145.989 191.951 145.988H175.611Z" fill="#CCCCCC"/>
<path d="M189.101 161.195H178.461C178.159 161.195 177.869 161.074 177.655 160.861C177.441 160.647 177.321 160.357 177.321 160.054V153.972C177.321 153.669 177.441 153.379 177.655 153.165C177.869 152.952 178.159 152.831 178.461 152.831H189.101C189.404 152.831 189.693 152.952 189.907 153.165C190.121 153.379 190.241 153.669 190.241 153.972V160.054C190.241 160.357 190.121 160.647 189.907 160.861C189.693 161.074 189.404 161.195 189.101 161.195ZM178.461 153.591C178.36 153.591 178.263 153.632 178.192 153.703C178.121 153.774 178.081 153.871 178.081 153.972V160.054C178.081 160.155 178.121 160.252 178.192 160.323C178.263 160.394 178.36 160.434 178.461 160.435H189.101C189.202 160.434 189.299 160.394 189.37 160.323C189.441 160.252 189.481 160.155 189.481 160.054V153.972C189.481 153.871 189.441 153.774 189.37 153.703C189.299 153.632 189.202 153.591 189.101 153.591H178.461Z" fill="#CCCCCC"/>
<path d="M183.781 158.016C183.568 158.016 183.358 157.957 183.177 157.844L177.499 154.294C177.414 154.24 177.353 154.155 177.331 154.057C177.308 153.959 177.326 153.856 177.379 153.77C177.432 153.685 177.518 153.624 177.616 153.602C177.714 153.579 177.817 153.596 177.902 153.649L183.58 157.199C183.64 157.237 183.71 157.256 183.781 157.256C183.852 157.256 183.922 157.237 183.983 157.199L189.66 153.649C189.745 153.596 189.848 153.579 189.947 153.602C190.045 153.624 190.13 153.685 190.183 153.77C190.236 153.856 190.254 153.959 190.231 154.057C190.209 154.155 190.148 154.24 190.063 154.294L184.386 157.844C184.204 157.957 183.995 158.016 183.781 158.016Z" fill="#CCCCCC"/>
<path d="M114.428 168.798H98.0867C97.1296 168.797 96.212 168.416 95.5352 167.739C94.8584 167.062 94.4776 166.144 94.4766 165.187V148.839C94.4776 147.882 94.8584 146.964 95.5352 146.287C96.212 145.61 97.1296 145.229 98.0867 145.228H114.428C115.385 145.229 116.302 145.61 116.979 146.287C117.656 146.964 118.037 147.882 118.038 148.839V165.187C118.037 166.144 117.656 167.062 116.979 167.739C116.302 168.416 115.385 168.797 114.428 168.798ZM98.0867 145.988C97.3311 145.989 96.6066 146.289 96.0723 146.824C95.538 147.359 95.2374 148.083 95.2366 148.839V165.187C95.2374 165.943 95.538 166.667 96.0723 167.202C96.6066 167.737 97.3311 168.037 98.0867 168.038H114.428C115.183 168.037 115.908 167.737 116.442 167.202C116.976 166.667 117.277 165.943 117.278 165.187V148.839C117.277 148.083 116.976 147.359 116.442 146.824C115.908 146.289 115.183 145.989 114.428 145.988H98.0867Z" fill="#CCCCCC"/>
<path d="M111.577 161.195H100.937C100.635 161.195 100.345 161.074 100.131 160.861C99.9174 160.647 99.7972 160.357 99.7969 160.054V153.972C99.7972 153.669 99.9174 153.379 100.131 153.165C100.345 152.952 100.635 152.831 100.937 152.831H111.577C111.88 152.831 112.17 152.952 112.383 153.165C112.597 153.379 112.717 153.669 112.718 153.972V160.054C112.717 160.357 112.597 160.647 112.383 160.861C112.17 161.074 111.88 161.195 111.577 161.195ZM100.937 153.591C100.836 153.591 100.74 153.632 100.668 153.703C100.597 153.774 100.557 153.871 100.557 153.972V160.054C100.557 160.155 100.597 160.252 100.668 160.323C100.74 160.394 100.836 160.434 100.937 160.435H111.577C111.678 160.434 111.775 160.394 111.846 160.323C111.917 160.252 111.957 160.155 111.957 160.054V153.972C111.957 153.871 111.917 153.774 111.846 153.703C111.775 153.632 111.678 153.591 111.577 153.591H100.937Z" fill="#CCCCCC"/>
<path d="M109.891 161.195H102.244C102.11 161.195 101.979 161.16 101.863 161.093C101.748 161.026 101.652 160.93 101.585 160.815C101.518 160.699 101.483 160.568 101.483 160.435C101.483 160.301 101.519 160.17 101.585 160.054L103.889 156.063C103.956 155.947 104.052 155.851 104.167 155.784C104.283 155.718 104.414 155.682 104.547 155.682C104.681 155.682 104.812 155.718 104.927 155.784C105.043 155.851 105.139 155.947 105.205 156.063L106.693 158.641L107.555 157.147C107.622 157.031 107.718 156.935 107.833 156.869C107.949 156.802 108.08 156.767 108.213 156.767C108.347 156.767 108.478 156.802 108.593 156.869C108.709 156.935 108.805 157.031 108.872 157.147L110.549 160.054C110.616 160.17 110.651 160.301 110.651 160.435C110.651 160.568 110.616 160.699 110.549 160.815C110.483 160.93 110.387 161.026 110.271 161.093C110.155 161.16 110.024 161.195 109.891 161.195H109.891ZM109.891 160.435L108.213 157.527L107.022 159.591C106.989 159.649 106.941 159.697 106.883 159.73C106.825 159.764 106.76 159.781 106.693 159.781C106.626 159.781 106.561 159.764 106.503 159.73C106.445 159.697 106.397 159.649 106.364 159.591L104.547 156.443L102.244 160.435H109.891Z" fill="#CCCCCC"/>
<path d="M110.437 155.872C110.857 155.872 111.197 155.532 111.197 155.112C111.197 154.692 110.857 154.352 110.437 154.352C110.018 154.352 109.677 154.692 109.677 155.112C109.677 155.532 110.018 155.872 110.437 155.872Z" fill="#CCCCCC"/>
<path d="M292.168 254.935L287.509 254.935L285.293 236.957L292.169 236.957L292.168 254.935Z" fill="#FFB8B8"/>
<path d="M293.356 259.453L278.334 259.452V259.262C278.334 258.494 278.485 257.734 278.779 257.024C279.073 256.314 279.504 255.669 280.047 255.126C280.59 254.583 281.234 254.152 281.944 253.858C282.653 253.564 283.413 253.413 284.181 253.413H284.182L293.357 253.413L293.356 259.453Z" fill="#2F2E41"/>
<path d="M311.169 254.935L306.51 254.935L304.294 236.957L311.17 236.957L311.169 254.935Z" fill="#FFB8B8"/>
<path d="M312.357 259.453L297.335 259.452V259.262C297.335 258.494 297.486 257.734 297.78 257.024C298.074 256.314 298.505 255.669 299.048 255.126C299.59 254.583 300.235 254.152 300.945 253.858C301.654 253.564 302.414 253.413 303.182 253.413H303.183L312.358 253.413L312.357 259.453Z" fill="#2F2E41"/>
<path d="M309.772 247.142L305.457 245.828C305.136 245.731 304.85 245.541 304.636 245.281C304.422 245.022 304.289 244.706 304.254 244.371L300.232 206.23C300.228 206.184 300.208 206.14 300.174 206.109C300.14 206.077 300.096 206.06 300.05 206.06C300.004 206.055 299.957 206.069 299.921 206.098C299.885 206.127 299.861 206.169 299.856 206.215L293.118 243.168C293.077 243.392 292.991 243.606 292.867 243.797C292.742 243.987 292.581 244.151 292.392 244.279C292.203 244.406 291.991 244.495 291.767 244.539C291.544 244.583 291.313 244.582 291.09 244.536L285.576 243.4C285.171 243.315 284.811 243.088 284.561 242.758C284.311 242.429 284.188 242.021 284.215 241.609L288.313 181.042L316.107 178.042L311.977 245.609C311.95 246.043 311.759 246.451 311.443 246.75C311.126 247.048 310.708 247.215 310.273 247.216C310.103 247.216 309.935 247.191 309.772 247.142Z" fill="#2F2E41"/>
<path d="M309.746 128.298C314.901 128.298 319.08 124.117 319.08 118.96C319.08 113.804 314.901 109.623 309.746 109.623C304.591 109.623 300.412 113.804 300.412 118.96C300.412 124.117 304.591 128.298 309.746 128.298Z" fill="#FFB8B8"/>
<path d="M288.271 181.398L294.297 143.437C294.617 141.418 295.364 139.491 296.487 137.784C297.609 136.077 299.083 134.628 300.809 133.535C302.534 132.442 304.473 131.729 306.496 131.443C308.519 131.158 310.579 131.307 312.54 131.88C315.968 132.872 318.904 135.107 320.773 138.148C322.642 141.189 323.311 144.819 322.649 148.327L316.344 182.228L288.271 181.398Z" fill="#4286F5"/>
<path d="M312.323 188.19C312.789 187.882 313.182 187.475 313.474 186.999C313.767 186.523 313.951 185.988 314.014 185.433C314.077 184.877 314.018 184.315 313.841 183.785C313.663 183.255 313.372 182.771 312.987 182.366L319.218 170.295L312.201 171.044L307.359 182.392C306.722 183.084 306.361 183.986 306.344 184.926C306.327 185.867 306.655 186.782 307.267 187.496C307.879 188.211 308.731 188.676 309.663 188.804C310.595 188.932 311.541 188.713 312.323 188.19V188.19Z" fill="#FFB8B8"/>
<path d="M313.657 180.236C313.312 180.188 312.991 180.035 312.735 179.799L310.351 177.595C310.094 177.356 309.916 177.043 309.841 176.7C309.767 176.356 309.8 175.998 309.936 175.674L314.701 164.376L314.025 142.052C314.122 141.334 314.36 140.643 314.724 140.017C315.088 139.391 315.572 138.844 316.149 138.405C316.725 137.967 317.382 137.646 318.082 137.462C318.782 137.278 319.511 137.233 320.228 137.331C320.946 137.429 321.637 137.667 322.262 138.032C322.887 138.397 323.434 138.882 323.872 139.459C324.309 140.036 324.629 140.693 324.813 141.394C324.996 142.094 325.04 142.824 324.942 143.542L326.097 157.575C326.449 161.834 325.242 166.075 322.701 169.511L315.271 179.56C315.128 179.753 314.946 179.914 314.736 180.032C314.527 180.15 314.296 180.223 314.056 180.246C313.923 180.258 313.789 180.255 313.657 180.236Z" fill="#4286F5"/>
<path d="M255.997 113.873C256.098 114.423 256.319 114.943 256.644 115.398C256.968 115.853 257.389 116.231 257.875 116.506C258.362 116.781 258.902 116.946 259.459 116.989C260.016 117.032 260.576 116.952 261.099 116.755L269.781 127.202L271.827 120.446L263.269 111.561C262.88 110.704 262.191 110.02 261.332 109.637C260.472 109.255 259.503 109.201 258.606 109.486C257.71 109.771 256.949 110.375 256.468 111.183C255.987 111.992 255.819 112.949 255.997 113.873Z" fill="#FFB8B8"/>
<path d="M262.797 118.203C262.977 117.905 263.242 117.668 263.56 117.524L266.518 116.187C266.838 116.043 267.195 116.001 267.541 116.067C267.886 116.133 268.203 116.303 268.448 116.554L276.99 125.349L297.802 133.43C298.425 133.799 298.969 134.287 299.403 134.867C299.837 135.447 300.153 136.106 300.332 136.808C300.511 137.51 300.55 138.24 300.447 138.957C300.343 139.674 300.1 140.363 299.73 140.986C299.36 141.609 298.871 142.152 298.292 142.586C297.712 143.019 297.052 143.334 296.35 143.513C295.648 143.691 294.919 143.729 294.202 143.625C293.486 143.521 292.797 143.277 292.175 142.906L278.807 138.499C274.749 137.162 271.316 134.396 269.144 130.716L262.791 119.953C262.669 119.746 262.592 119.516 262.565 119.277C262.538 119.038 262.561 118.796 262.633 118.567C262.673 118.44 262.728 118.318 262.797 118.203Z" fill="#4286F5"/>
<path opacity="0.1" d="M317.317 151.338L316.937 163.504L309.936 175.673L315.781 162.111L317.317 151.338Z" fill="black"/>
<path d="M308.677 120.715C308.091 120.791 307.497 120.652 307.005 120.323C306.514 119.995 306.158 119.499 306.005 118.928C305.857 118.27 305.533 117.666 305.068 117.178C304.602 116.691 304.013 116.34 303.364 116.162C301.651 115.771 299.559 116.577 298.304 115.279C298.036 114.983 297.841 114.627 297.737 114.241C297.633 113.855 297.622 113.45 297.706 113.058C297.937 111.797 298.838 110.844 299.82 110.082C301.885 108.486 304.384 107.552 306.989 107.402C308.338 107.363 309.687 107.43 311.025 107.603C312.426 107.691 313.812 107.945 315.154 108.358C316.682 108.935 318.041 109.888 319.104 111.129C320.166 112.371 320.899 113.86 321.235 115.459C321.541 117.064 321.494 118.716 321.097 120.301C320.699 121.885 319.961 123.364 318.933 124.633C317.702 126.166 316.116 127.374 314.312 128.153C313.882 128.356 313.389 128.381 312.941 128.223C311.817 127.776 312.001 126.383 312.513 125.454C313.062 124.46 313.905 123.497 313.464 122.288C313.243 121.727 312.819 121.27 312.276 121.008C311.159 120.438 309.909 120.573 308.708 120.712L308.677 120.715Z" fill="#2F2E41"/>
<path d="M252.877 125.988H137.352C135.689 125.986 134.095 125.325 132.92 124.149C131.744 122.973 131.083 121.378 131.081 119.715V95.004C131.083 93.3409 131.744 91.7465 132.92 90.5705C134.095 89.3945 135.689 88.733 137.352 88.7311H252.877C254.54 88.733 256.134 89.3945 257.309 90.5705C258.485 91.7465 259.146 93.3409 259.148 95.004V119.715C259.146 121.378 258.485 122.973 257.309 124.149C256.134 125.325 254.54 125.986 252.877 125.988Z" fill="white"/>
<path d="M252.877 126.178H137.351C135.639 126.177 133.997 125.495 132.785 124.283C131.574 123.072 130.893 121.429 130.891 119.715V95.0041C130.893 93.2906 131.574 91.6478 132.785 90.4362C133.997 89.2245 135.639 88.543 137.351 88.5411H252.877C254.59 88.543 256.232 89.2245 257.443 90.4362C258.654 91.6478 259.336 93.2906 259.338 95.0041V119.715C259.336 121.429 258.654 123.072 257.443 124.283C256.232 125.495 254.59 126.177 252.877 126.178ZM137.351 89.3014C135.84 89.3031 134.391 89.9045 133.323 90.9736C132.254 92.0427 131.653 93.4922 131.651 95.0041V119.715C131.653 121.227 132.254 122.677 133.323 123.746C134.391 124.815 135.84 125.416 137.351 125.418H252.877C254.389 125.416 255.837 124.815 256.906 123.746C257.975 122.677 258.576 121.227 258.578 119.715V95.0041C258.576 93.4922 257.975 92.0427 256.906 90.9736C255.837 89.9045 254.389 89.3031 252.877 89.3014H137.351Z" fill="#3F3D56"/>
<path d="M238.817 119.906H151.412C149.75 119.904 148.156 119.242 146.98 118.066C145.805 116.89 145.144 115.296 145.142 113.633V100.707C145.144 99.0436 145.805 97.4491 146.98 96.2731C148.156 95.0972 149.75 94.4357 151.412 94.4338H238.817C240.479 94.4357 242.073 95.0972 243.248 96.2731C244.424 97.4491 245.085 99.0436 245.087 100.707V113.633C245.085 115.296 244.424 116.89 243.248 118.066C242.073 119.242 240.479 119.904 238.817 119.906Z" fill="#F2F2F2"/>
<path d="M170.221 112.939C174.362 112.939 177.72 109.58 177.72 105.437C177.72 101.294 174.362 97.9351 170.221 97.9351C166.08 97.9351 162.722 101.294 162.722 105.437C162.722 109.58 166.08 112.939 170.221 112.939Z" fill="#FF6584"/>
<path d="M233.385 119.148L222.801 110.268L212.399 101.54C212.124 101.31 211.777 101.184 211.419 101.185C211.061 101.185 210.714 101.313 210.441 101.544L200.073 110.312L197.54 112.453L193.722 109.249L182.117 99.5127C181.842 99.2824 181.495 99.1565 181.137 99.1572C180.779 99.1579 180.432 99.2851 180.159 99.5165L168.592 109.298L156.843 119.233C156.783 119.283 156.741 119.351 156.721 119.426C156.701 119.502 156.704 119.581 156.731 119.654C156.758 119.728 156.807 119.791 156.871 119.835C156.935 119.88 157.011 119.904 157.089 119.904L181.177 119.857L188.802 119.842L188.727 119.906L211.455 119.862L233.142 119.82C233.22 119.82 233.296 119.796 233.359 119.751C233.423 119.706 233.472 119.643 233.498 119.569C233.525 119.496 233.528 119.416 233.508 119.341C233.488 119.266 233.445 119.199 233.385 119.148Z" fill="#3F3D56"/>
<path d="M332.62 260H259.656C259.556 260 259.459 259.96 259.388 259.889C259.316 259.817 259.276 259.721 259.276 259.62C259.276 259.519 259.316 259.422 259.388 259.351C259.459 259.28 259.556 259.24 259.656 259.24H332.62C332.721 259.24 332.818 259.28 332.889 259.351C332.96 259.422 333 259.519 333 259.62C333 259.721 332.96 259.817 332.889 259.889C332.818 259.96 332.721 260 332.62 260Z" fill="#CCCCCC"/>
<path d="M229.58 55.6674C229.318 55.2552 228.968 54.8964 228.551 54.613C228.134 54.3296 227.66 54.1275 227.157 54.019C226.972 53.9792 226.785 53.9534 226.596 53.9417L201.221 32.0671C200.724 31.5747 200.054 31.262 199.331 31.1852C199.189 31.1671 199.045 31.16 198.901 31.1639C198.305 31.1768 197.727 31.35 197.237 31.6625C196.746 31.975 196.366 32.4132 196.141 32.9235C195.916 33.4337 195.857 33.994 195.971 34.5357C196.086 35.0774 196.368 35.5772 196.783 35.9739L206.502 44.1449L222.462 57.56C222.47 57.8067 222.505 58.0521 222.566 58.2926C222.746 58.9894 223.15 59.6198 223.726 60.1002C224.301 60.5806 225.02 60.8883 225.788 60.9825C226.488 61.0726 227.2 60.9785 227.844 60.7109C228.354 60.5025 228.809 60.1941 229.177 59.807C229.215 59.767 229.25 59.7301 229.285 59.6869C229.77 59.1255 230.058 58.44 230.111 57.7219C230.164 57.0037 229.979 56.287 229.58 55.6674L229.58 55.6674Z" fill="#FFB8B8"/>
<path d="M174.743 75.8547L176.349 65.9082L177.678 57.6531L178.611 51.877L180.426 40.6169C180.48 40.0058 180.339 39.3879 180.021 38.8387C179.703 38.2895 179.222 37.8327 178.636 37.524C178.05 37.2154 177.385 37.0683 176.721 37.1008C176.058 37.1332 175.425 37.3437 174.9 37.7066C174.777 37.7889 174.663 37.8814 174.558 37.9828C173.984 38.5004 173.638 39.1979 173.583 39.9472L171.158 56.4194L169.938 64.6949L168.383 75.2513C168.231 75.382 168.09 75.5225 167.959 75.6719C167.606 76.0841 167.35 76.5609 167.206 77.0733C167.062 77.5858 167.033 78.1233 167.121 78.6531C167.213 79.2085 167.43 79.7434 167.759 80.2225C168.088 80.7016 168.52 81.1141 169.029 81.4328C169.537 81.7515 170.109 81.9691 170.708 82.0713C171.306 82.1736 171.918 82.1581 172.501 82.026C173.179 81.8725 173.801 81.5659 174.311 81.1331C174.821 80.7004 175.203 80.1549 175.425 79.5449C175.646 78.9349 175.7 78.2791 175.581 77.6355C175.462 76.9919 175.175 76.3802 174.743 75.8546L174.743 75.8547Z" fill="#FFB8B8"/>
<path d="M216.201 63.5792L204.204 45.8959L202.123 33.5C201.974 32.5985 201.624 31.7422 201.099 30.9945C200.574 30.2468 199.888 29.6269 199.091 29.1809C199.028 29.1458 198.961 29.11 198.898 29.0785C198.121 28.6723 197.265 28.4391 196.39 28.3949C195.514 28.3508 194.639 28.4968 193.825 28.8229L177.712 35.2299C176.237 35.8148 175.047 36.9505 174.393 38.3971C173.739 39.8436 173.673 41.4878 174.209 42.9823C175.42 46.4351 176.81 49.8223 178.374 53.13C179.619 55.7297 183.35 59.7412 183.185 63.5792L193.825 63.5792L212.651 63.5792L216.201 63.5792Z" fill="#CCCCCC"/>
<path d="M38.4446 141.53C43.3078 141.53 47.2503 137.586 47.2503 132.721C47.2503 127.856 43.3078 123.912 38.4446 123.912C33.5814 123.912 29.6389 127.856 29.6389 132.721C29.6389 137.586 33.5814 141.53 38.4446 141.53Z" fill="#A0616A"/>
<path d="M60.0626 126.657C60.1494 126.726 60.2335 126.799 60.315 126.877C60.7195 127.258 61.0389 127.721 61.2523 128.234C61.4658 128.747 61.5683 129.3 61.5534 129.856C61.5384 130.411 61.4062 130.958 61.1655 131.459C60.9248 131.96 60.5809 132.404 60.1565 132.763C60.0575 132.846 59.9543 132.924 59.8472 132.997L60.4431 153.125C60.4601 153.784 60.2643 154.431 59.8847 154.969C59.5051 155.508 58.962 155.91 58.3359 156.116L58.2996 156.124L41.9631 157.864C41.519 157.911 41.0699 157.87 40.6417 157.743C40.2136 157.615 39.8149 157.404 39.4688 157.122C39.1226 156.84 38.8357 156.492 38.6248 156.098C38.4138 155.704 38.283 155.272 38.2397 154.827C38.1965 154.383 38.2418 153.934 38.373 153.507C38.5041 153.079 38.7185 152.683 39.0039 152.339C39.2892 151.995 39.6398 151.711 40.0354 151.504C40.431 151.296 40.8637 151.169 41.3086 151.13L52.954 150.104L54.968 132.673C54.8363 132.556 54.7129 132.43 54.5988 132.296C53.9674 131.549 53.6362 130.593 53.6696 129.615C53.703 128.636 54.0986 127.706 54.7795 127.003C55.4605 126.3 56.3782 125.875 57.3545 125.812C58.3308 125.748 59.296 126.049 60.0626 126.657H60.0626Z" fill="#A0616A"/>
<path d="M52.9473 255.324H57.343L59.4338 238.364H52.9465L52.9473 255.324Z" fill="#A0616A"/>
<path d="M51.8264 253.889L60.4825 253.888H60.4828C61.2073 253.888 61.9246 254.031 62.5939 254.308C63.2632 254.586 63.8713 254.992 64.3835 255.505C64.8958 256.017 65.3021 256.625 65.5793 257.295C65.8566 257.965 65.9992 258.682 65.9992 259.407V259.586L51.8267 259.587L51.8264 253.889Z" fill="#2F2E41"/>
<path d="M9.25952 249.245L13.0362 251.494L23.5068 237.991L17.9327 234.671L9.25952 249.245Z" fill="#A0616A"/>
<path d="M9.03028 247.437L16.4679 251.867L16.4682 251.868C17.0906 252.238 17.634 252.728 18.0672 253.309C18.5004 253.89 18.8151 254.55 18.9931 255.253C19.1712 255.955 19.2092 256.686 19.1049 257.403C19.0007 258.12 18.7563 258.81 18.3857 259.433L18.294 259.587L6.11646 252.333L9.03028 247.437Z" fill="#2F2E41"/>
<path d="M58.3799 249.334H53.458C53.0595 249.334 52.6749 249.187 52.3785 248.921C52.0822 248.654 51.8952 248.287 51.8538 247.89L46.8918 201.229C46.8793 201.111 46.8285 201.001 46.7472 200.915C46.666 200.83 46.5588 200.773 46.4422 200.754C46.3256 200.736 46.2061 200.756 46.1021 200.812C45.9981 200.868 45.9155 200.956 45.8668 201.064L36.9153 220.893L21.0671 246.746C20.862 247.078 20.5444 247.324 20.1726 247.441C19.8007 247.557 19.3993 247.535 19.0421 247.38L12.7108 244.593C12.5015 244.501 12.3142 244.365 12.1612 244.195C12.0083 244.025 11.8932 243.824 11.8237 243.606C11.7541 243.388 11.7317 243.158 11.7579 242.93C11.7841 242.703 11.8583 242.484 11.9756 242.288L26.5444 217.883L31.0125 197.321C29.6073 188.404 35.6317 175.147 35.6928 175.014L35.7226 174.949L52.3171 168.461L52.4003 168.563C58.9447 190.048 62.9326 213.169 59.9881 247.855C59.9518 248.257 59.7669 248.632 59.4696 248.905C59.1722 249.179 58.7838 249.331 58.3799 249.334Z" fill="#2F2E41"/>
<path d="M35.0543 177.122L34.977 176.96C34.9401 176.882 31.2502 169.096 28.4057 160.775C27.8591 159.166 27.6524 157.461 27.7988 155.767C27.9453 154.074 28.4416 152.43 29.2564 150.939C30.0818 149.432 31.211 148.113 32.5725 147.066C33.934 146.018 35.498 145.265 37.1656 144.854C40.0606 144.16 43.1085 144.529 45.7541 145.895C48.3996 147.261 50.4668 149.532 51.5789 152.294C53.8351 157.939 53.1161 163.963 52.4394 168.701L52.4259 168.796L52.3396 168.838L35.0543 177.122Z" fill="#3F3D56"/>
<path d="M49.121 127.745H35.1387V121.647C38.2076 120.428 41.2108 119.39 43.0262 121.647C44.6426 121.647 46.1929 122.29 47.3359 123.433C48.4789 124.577 49.121 126.128 49.121 127.745V127.745Z" fill="#2F2E41"/>
<path d="M34.3646 120.571C26.0057 120.571 23.666 131.053 23.666 136.967C23.666 140.265 25.1568 141.444 27.4995 141.843L28.3268 137.429L30.2645 142.033C30.9226 142.036 31.6139 142.024 32.3306 142.01L32.9876 140.657L34.4527 141.986C40.3205 141.995 45.063 142.85 45.063 136.967C45.063 131.053 43.0112 120.571 34.3646 120.571Z" fill="#2F2E41"/>
<path d="M73.3437 260H0.380019C0.279232 260 0.182572 259.96 0.111305 259.889C0.0400373 259.817 0 259.721 0 259.62C0 259.519 0.0400373 259.422 0.111305 259.351C0.182572 259.28 0.279232 259.24 0.380019 259.24H73.3437C73.4445 259.24 73.5411 259.28 73.6124 259.351C73.6837 259.422 73.7237 259.519 73.7237 259.62C73.7237 259.721 73.6837 259.817 73.6124 259.889C73.5411 259.96 73.4445 260 73.3437 260Z" fill="#CCCCCC"/>
<path d="M74.7156 134.922H58.3748C57.4177 134.921 56.5001 134.541 55.8233 133.863C55.1465 133.186 54.7657 132.268 54.7646 131.311V114.963C54.7657 114.006 55.1465 113.088 55.8233 112.411C56.5001 111.734 57.4177 111.353 58.3748 111.352H74.7156C75.6728 111.353 76.5904 111.734 77.2672 112.411C77.944 113.088 78.3247 114.006 78.3258 114.963V131.311C78.3247 132.268 77.944 133.186 77.2672 133.863C76.5904 134.541 75.6728 134.921 74.7156 134.922Z" fill="white"/>
<path d="M74.7156 134.922H58.3748C57.4177 134.921 56.5001 134.541 55.8233 133.863C55.1465 133.186 54.7657 132.268 54.7646 131.311V114.963C54.7657 114.006 55.1465 113.088 55.8233 112.411C56.5001 111.734 57.4177 111.353 58.3748 111.352H74.7156C75.6728 111.353 76.5904 111.734 77.2672 112.411C77.944 113.088 78.3247 114.006 78.3258 114.963V131.311C78.3247 132.268 77.944 133.186 77.2672 133.863C76.5904 134.541 75.6728 134.921 74.7156 134.922ZM58.3748 112.112C57.6192 112.113 56.8947 112.413 56.3604 112.948C55.8261 113.483 55.5255 114.207 55.5247 114.963V131.311C55.5255 132.067 55.8261 132.792 56.3604 133.326C56.8947 133.861 57.6192 134.161 58.3748 134.162H74.7156C75.4713 134.161 76.1958 133.861 76.7301 133.326C77.2644 132.792 77.5649 132.067 77.5658 131.311V114.963C77.5649 114.207 77.2644 113.483 76.7301 112.948C76.1958 112.413 75.4713 112.113 74.7156 112.112H58.3748Z" fill="#3F3D56"/>
<path d="M71.8656 128.269H61.225C60.9228 128.269 60.633 128.149 60.4192 127.935C60.2055 127.721 60.0853 127.431 60.085 127.129V119.145C60.0853 118.843 60.2055 118.553 60.4192 118.339C60.633 118.125 60.9228 118.005 61.225 118.005H64.2205C64.4153 118.004 64.607 118.053 64.7771 118.149C64.9472 118.244 65.0899 118.381 65.1915 118.547L66.0268 119.905H71.8656C72.1678 119.906 72.4576 120.026 72.6713 120.24C72.8851 120.454 73.0053 120.744 73.0056 121.046V127.129C73.0053 127.431 72.8851 127.721 72.6713 127.935C72.4576 128.149 72.1678 128.269 71.8656 128.269Z" fill="#4286F5"/>
<path d="M71.5195 132.303C71.5727 132.4 71.6218 132.5 71.6668 132.603C71.8918 133.112 72.0068 133.662 72.0044 134.218C72.002 134.774 71.8822 135.323 71.6528 135.829C71.4234 136.336 71.0897 136.788 70.6735 137.156C70.2572 137.525 69.7679 137.801 69.2375 137.967C69.114 138.005 68.9887 138.037 68.862 138.062L61.6038 156.844C61.3639 157.458 60.9325 157.978 60.3736 158.327C59.8148 158.677 59.1583 158.836 58.5016 158.783L58.4652 158.776L42.7336 154.038C42.3059 153.909 41.9079 153.697 41.5627 153.413C41.2175 153.13 40.9318 152.781 40.7222 152.386C40.5127 151.991 40.3833 151.559 40.3416 151.114C40.3 150.669 40.3468 150.22 40.4795 149.794C40.6122 149.367 40.8281 148.971 41.1146 148.628C41.4012 148.285 41.7529 148.003 42.1492 147.797C42.5456 147.591 42.9788 147.465 43.4239 147.428C43.869 147.39 44.3171 147.441 44.7424 147.578L55.8733 151.153L64.4908 135.869C64.4146 135.71 64.3497 135.547 64.2965 135.379C64.0046 134.445 64.0701 133.435 64.4803 132.547C64.8905 131.658 65.6162 130.954 66.5164 130.57C67.4166 130.187 68.427 130.152 69.3516 130.472C70.2761 130.792 71.0488 131.445 71.5195 132.303H71.5195Z" fill="#A0616A"/>
</g>
<defs>
<clipPath id="clip0_630_1911">
<rect width="333" height="260" fill="white"/>
</clipPath>
</defs>
</svg>
