<svg width="413" height="260" viewBox="0 0 413 260" fill="none" xmlns="http://www.w3.org/2000/svg">
<g clip-path="url(#clip0_684_3029)">
<path d="M245.065 7.97638C274.797 -7.90571 312.532 0.420452 332.538 28.5816L331.857 29.0639C312.098 1.25044 274.824 -6.97089 245.458 8.71165C242.963 10.0443 240.555 11.5326 238.248 13.1677C208.049 34.5509 200.907 76.4749 222.325 106.623L221.644 107.106C199.959 76.5825 207.191 34.1367 237.764 12.4877C240.101 10.8327 242.539 9.32596 245.065 7.97638V7.97638Z" fill="#E6E6E6"/>
<path d="M402.571 75.8624L304.781 68.2673C303.263 68.1476 301.854 67.4317 300.864 66.2766C299.874 65.1215 299.384 63.6215 299.5 62.1057L303.74 14.671C303.859 13.1555 304.576 11.7493 305.733 10.7609C306.89 9.77257 308.393 9.28275 309.911 9.39895L407.702 16.9941C409.22 17.1138 410.628 17.8297 411.618 18.9848C412.608 20.1399 413.099 21.6399 412.982 23.1556L408.743 70.5904C408.623 72.1059 407.906 73.5121 406.749 74.5005C405.592 75.4888 404.09 75.9786 402.571 75.8624Z" fill="#E6E6E6"/>
<path d="M379.472 65.1463C378.73 65.1463 377.985 65.1173 377.237 65.0594L314.039 60.1509C312.775 60.0528 311.543 59.7071 310.413 59.1337C309.284 58.5603 308.278 57.7703 307.454 56.8088C306.63 55.8474 306.004 54.7333 305.611 53.5302C305.218 52.3271 305.067 51.0585 305.165 49.797L306.606 31.3025C306.807 28.7557 308.012 26.3925 309.957 24.7316C311.901 23.0706 314.426 22.2475 316.977 22.4428L398.701 28.7901C401.252 28.9912 403.619 30.1942 405.282 32.1353C406.946 34.0763 407.77 36.5969 407.575 39.1441C407.024 46.212 403.825 52.8131 398.617 57.6321C393.409 62.451 386.573 65.1339 379.472 65.1463V65.1463Z" fill="white"/>
<path d="M396.746 43.4925L316.632 37.2702C316.465 37.2572 316.302 37.2116 316.153 37.1358C316.004 37.0601 315.871 36.9557 315.762 36.8288C315.653 36.7018 315.571 36.5546 315.519 36.3957C315.467 36.2368 315.447 36.0692 315.46 35.9026C315.473 35.736 315.519 35.5735 315.594 35.4245C315.67 35.2756 315.775 35.1429 315.902 35.0343C316.029 34.9256 316.177 34.843 316.336 34.7913C316.495 34.7395 316.663 34.7195 316.83 34.7324L396.943 40.9547C397.11 40.9677 397.273 41.0133 397.422 41.0891C397.572 41.1648 397.704 41.2692 397.813 41.3962C397.922 41.5232 398.005 41.6703 398.057 41.8292C398.109 41.9881 398.129 42.1557 398.116 42.3223C398.103 42.489 398.057 42.6514 397.981 42.8004C397.905 42.9494 397.801 43.082 397.673 43.1906C397.546 43.2993 397.399 43.3819 397.24 43.4337C397.08 43.4855 396.913 43.5054 396.746 43.4925Z" fill="#E6E6E6"/>
<path d="M363.48 45.9527L316.241 42.2837C315.904 42.2574 315.591 42.0985 315.371 41.842C315.152 41.5856 315.043 41.2526 315.069 40.9162C315.095 40.5797 315.254 40.2675 315.511 40.048C315.768 39.8286 316.101 39.7199 316.438 39.7459L363.677 43.4149C363.844 43.4277 364.007 43.4733 364.157 43.549C364.306 43.6247 364.439 43.7291 364.548 43.8561C364.657 43.9831 364.739 44.1303 364.791 44.2893C364.843 44.4482 364.863 44.6159 364.85 44.7826C364.837 44.9493 364.792 45.1118 364.716 45.2608C364.64 45.4099 364.535 45.5425 364.408 45.6512C364.281 45.7598 364.133 45.8424 363.974 45.8942C363.815 45.9459 363.647 45.9658 363.48 45.9527V45.9527Z" fill="#E6E6E6"/>
<path d="M373.886 51.8053L315.85 47.2978C315.683 47.2849 315.52 47.2394 315.37 47.1636C315.221 47.0879 315.088 46.9836 314.979 46.8566C314.87 46.7296 314.788 46.5824 314.736 46.4234C314.684 46.2644 314.664 46.0968 314.677 45.9301C314.69 45.7634 314.735 45.6009 314.811 45.4518C314.887 45.3028 314.992 45.1702 315.119 45.0615C315.246 44.9528 315.394 44.8703 315.553 44.8185C315.712 44.7668 315.88 44.7469 316.047 44.7599L374.083 49.2675C374.42 49.2939 374.733 49.4527 374.953 49.7092C375.172 49.9656 375.281 50.2987 375.255 50.6351C375.229 50.9715 375.07 51.2837 374.813 51.5032C374.556 51.7226 374.223 51.8313 373.886 51.8053V51.8053Z" fill="#E6E6E6"/>
<path d="M396.028 140.254L298.237 132.659C296.719 132.539 295.31 131.823 294.32 130.668C293.331 129.513 292.84 128.013 292.956 126.497L297.196 79.0626C297.315 77.5471 298.033 76.1409 299.19 75.1525C300.347 74.1642 301.849 73.6744 303.367 73.7905L401.158 81.3857C402.676 81.5054 404.084 82.2212 405.074 83.3764C406.064 84.5315 406.555 86.0315 406.439 87.5473L402.199 134.982C402.079 136.498 401.362 137.904 400.205 138.892C399.048 139.88 397.546 140.37 396.028 140.254V140.254Z" fill="#E6E6E6"/>
<path d="M372.903 129.537C372.172 129.537 371.435 129.508 370.694 129.451L307.495 124.542C306.231 124.444 304.999 124.099 303.87 123.525C302.74 122.952 301.734 122.162 300.91 121.2C300.086 120.239 299.46 119.125 299.067 117.922C298.674 116.719 298.523 115.45 298.621 114.188L300.062 95.6943C300.16 94.4327 300.507 93.2027 301.081 92.0747C301.655 90.9466 302.447 89.9426 303.41 89.1199C304.373 88.2972 305.489 87.6719 306.694 87.2798C307.899 86.8877 309.17 86.7364 310.434 86.8345L392.157 93.1818C393.42 93.2799 394.652 93.6256 395.782 94.199C396.912 94.7725 397.918 95.5625 398.742 96.524C399.566 97.4854 400.192 98.5995 400.585 99.8026C400.978 101.006 401.129 102.274 401.031 103.536C400.471 110.605 397.267 117.205 392.055 122.022C386.843 126.84 380.006 129.523 372.903 129.537V129.537Z" fill="white"/>
<path d="M390.202 107.884L310.088 101.662C309.921 101.649 309.758 101.603 309.609 101.527C309.46 101.452 309.327 101.347 309.218 101.22C309.109 101.093 309.027 100.946 308.975 100.787C308.923 100.628 308.903 100.461 308.916 100.294C308.929 100.128 308.975 99.9652 309.051 99.8162C309.126 99.6672 309.231 99.5346 309.358 99.426C309.485 99.3173 309.633 99.2347 309.792 99.1829C309.951 99.1311 310.119 99.1111 310.286 99.1241L390.399 105.346C390.566 105.359 390.729 105.405 390.878 105.481C391.028 105.556 391.16 105.661 391.269 105.788C391.378 105.915 391.461 106.062 391.513 106.221C391.565 106.38 391.585 106.547 391.572 106.714C391.559 106.881 391.513 107.043 391.437 107.192C391.361 107.341 391.257 107.474 391.129 107.582C391.002 107.691 390.855 107.774 390.696 107.825C390.536 107.877 390.369 107.897 390.202 107.884V107.884Z" fill="#E6E6E6"/>
<path d="M356.936 110.345L309.697 106.676C309.53 106.663 309.367 106.618 309.218 106.542C309.069 106.466 308.936 106.362 308.827 106.235C308.718 106.108 308.635 105.961 308.583 105.802C308.531 105.643 308.511 105.475 308.524 105.308C308.537 105.142 308.583 104.979 308.659 104.83C308.735 104.681 308.84 104.548 308.967 104.44C309.094 104.331 309.242 104.248 309.401 104.197C309.56 104.145 309.728 104.125 309.895 104.138L357.134 107.807C357.471 107.834 357.784 107.992 358.003 108.249C358.223 108.505 358.332 108.838 358.305 109.175C358.279 109.511 358.12 109.823 357.864 110.043C357.607 110.262 357.273 110.371 356.936 110.345V110.345Z" fill="#E6E6E6"/>
<path d="M367.342 116.197L309.306 111.69C308.969 111.664 308.656 111.505 308.437 111.248C308.217 110.992 308.108 110.659 308.134 110.322C308.16 109.985 308.32 109.673 308.576 109.454C308.833 109.234 309.167 109.126 309.504 109.152L367.54 113.659C367.877 113.686 368.19 113.844 368.41 114.101C368.63 114.357 368.739 114.69 368.712 115.027C368.686 115.364 368.527 115.676 368.27 115.895C368.013 116.115 367.68 116.223 367.342 116.197V116.197Z" fill="#E6E6E6"/>
<path d="M147.277 115.471C146.035 112.662 145.36 109.637 145.29 106.568C145.219 103.5 145.755 100.447 146.867 97.5847C147.978 94.7225 149.643 92.107 151.767 89.8873C153.891 87.6676 156.432 85.8873 159.245 84.648C162.058 83.4088 165.088 82.7348 168.162 82.6646C171.236 82.5944 174.294 83.1293 177.161 84.2389C180.027 85.3484 182.647 87.0109 184.871 89.1313C187.094 91.2517 188.877 93.7885 190.118 96.5969L189.354 96.9336C188.157 94.2254 186.438 91.779 184.294 89.7342C182.15 87.6895 179.623 86.0863 176.859 85.0163C174.094 83.9463 171.146 83.4305 168.181 83.4982C165.217 83.5658 162.295 84.2158 159.582 85.4108C156.87 86.6059 154.419 88.3227 152.371 90.4632C150.323 92.6037 148.717 95.1259 147.645 97.886C146.574 100.646 146.057 103.59 146.125 106.549C146.193 109.509 146.844 112.426 148.041 115.134L147.277 115.471Z" fill="#E6E6E6"/>
<path d="M389.971 245.831C399.531 241.308 406.651 232.209 405.541 222.209C396.964 229.142 385.287 233.014 373.233 232.921C368.538 232.885 363.28 232.408 359.868 235.039C357.745 236.675 356.787 239.274 356.666 241.864C356.545 244.454 357.174 247.075 357.8 249.662L357.61 250.275C368.834 250.988 380.411 250.353 389.971 245.831Z" fill="#F2F2F2"/>
<path d="M405.306 222.184C401.608 229.387 395.198 235.39 387.231 238.904C385.485 239.717 383.627 240.262 381.718 240.521C379.774 240.724 377.81 240.468 375.983 239.773C374.252 239.153 372.545 238.345 370.709 238.099C369.81 237.974 368.895 238.031 368.018 238.267C367.142 238.503 366.322 238.913 365.608 239.472C363.911 240.789 362.899 242.612 361.982 244.431C360.963 246.45 359.943 248.565 357.949 249.941C357.708 250.107 358.044 250.454 358.285 250.288C361.754 247.894 362.255 243.564 365.012 240.665C365.66 239.933 366.466 239.357 367.369 238.98C368.272 238.603 369.249 238.435 370.227 238.488C372.1 238.626 373.861 239.458 375.609 240.099C377.387 240.8 379.294 241.112 381.203 241.015C383.127 240.846 385.012 240.368 386.783 239.599C390.635 237.998 394.201 235.783 397.341 233.04C400.81 230.045 403.674 226.415 405.779 222.347C405.907 222.098 405.432 221.937 405.305 222.184H405.306Z" fill="white"/>
<path d="M389.899 237.889C390.905 239.074 392.257 239.917 393.765 240.299C395.274 240.682 396.864 240.586 398.315 240.025C398.593 239.908 398.366 239.501 398.088 239.618C396.737 240.143 395.256 240.232 393.853 239.873C392.449 239.514 391.193 238.725 390.262 237.617C390.066 237.38 389.705 237.653 389.899 237.889V237.889Z" fill="white"/>
<path d="M376.824 240.187C377.009 238.78 377.491 237.428 378.237 236.221C378.983 235.013 379.977 233.977 381.153 233.18C381.394 233.012 381.058 232.666 380.817 232.833C379.595 233.664 378.563 234.745 377.79 236.003C377.016 237.262 376.519 238.669 376.33 240.134C376.296 240.413 376.79 240.465 376.824 240.187L376.824 240.187Z" fill="white"/>
<path d="M400.242 229.739C399.782 229.386 399.421 228.922 399.191 228.391C398.961 227.859 398.872 227.278 398.93 226.702C398.968 226.424 398.474 226.372 398.436 226.649C398.374 227.285 398.474 227.927 398.726 228.515C398.978 229.102 399.375 229.617 399.879 230.011C399.925 230.056 399.984 230.084 400.047 230.091C400.111 230.097 400.175 230.083 400.229 230.049C400.252 230.031 400.271 230.008 400.285 229.982C400.299 229.955 400.306 229.926 400.308 229.897C400.309 229.868 400.304 229.838 400.292 229.811C400.281 229.784 400.264 229.759 400.242 229.739V229.739Z" fill="white"/>
<path d="M373.999 201.066C373.97 201.239 373.941 201.411 373.907 201.586C373.498 203.902 372.873 206.174 372.04 208.374C371.979 208.545 371.914 208.718 371.847 208.887C369.741 214.213 366.539 219.039 362.447 223.052C360.78 224.691 358.983 226.193 357.071 227.541C354.407 229.423 351.333 231.262 349.647 233.797C349.468 234.059 349.308 234.332 349.168 234.616L356.763 249.959C356.8 249.987 356.832 250.017 356.868 250.046L357.141 250.669C357.247 250.605 357.355 250.537 357.46 250.473C357.522 250.436 357.581 250.396 357.643 250.359C357.683 250.334 357.724 250.308 357.762 250.287C357.775 250.279 357.789 250.27 357.799 250.263C357.837 250.242 357.87 250.219 357.904 250.199C358.508 249.82 359.109 249.436 359.709 249.047C359.712 249.046 359.712 249.046 359.714 249.041C364.27 246.067 368.555 242.706 372.075 238.829C372.181 238.712 372.291 238.594 372.393 238.47C373.958 236.728 375.36 234.846 376.58 232.848C377.238 231.761 377.832 230.637 378.359 229.482C379.713 226.498 380.516 223.294 380.727 220.025C381.156 213.477 379.211 206.705 374.373 201.463C374.249 201.329 374.127 201.199 373.999 201.066Z" fill="#F2F2F2"/>
<path d="M373.805 201.17C375.921 209.27 375.192 217.812 371.609 225.081C370.864 226.695 369.838 228.164 368.578 229.42C367.229 230.655 365.57 231.502 363.778 231.872C362.061 232.277 360.235 232.511 358.694 233.291C357.937 233.669 357.282 234.22 356.78 234.9C356.278 235.58 355.944 236.368 355.806 237.201C355.429 239.232 355.907 241.323 356.453 243.359C357.06 245.62 357.73 247.962 357.17 250.203C357.102 250.474 357.589 250.587 357.657 250.316C358.631 246.418 356.07 242.477 356.168 238.534C356.214 236.694 356.885 234.9 358.597 233.881C360.093 232.989 361.975 232.747 363.719 232.35C365.481 232.008 367.132 231.241 368.528 230.116C369.858 228.931 370.95 227.504 371.746 225.911C373.568 222.401 374.74 218.591 375.203 214.665C375.759 210.11 375.443 205.49 374.27 201.053C374.196 200.773 373.732 200.892 373.805 201.17H373.805Z" fill="white"/>
<path d="M372.919 222.783C376.044 223.761 379.358 222.592 380.669 220.065C380.798 219.816 380.352 219.593 380.222 219.842C378.995 222.209 375.928 223.271 373.007 222.357C372.699 222.261 372.614 222.688 372.919 222.783V222.783Z" fill="white"/>
<path d="M364.688 231.771C363.888 230.566 363.342 229.211 363.083 227.789C362.823 226.366 362.856 224.906 363.178 223.497C363.245 223.225 362.758 223.112 362.692 223.384C362.359 224.851 362.328 226.371 362.602 227.851C362.875 229.33 363.447 230.739 364.282 231.992C364.446 232.247 364.851 232.024 364.688 231.771Z" fill="white"/>
<path d="M375.137 210.303C374.524 210.234 373.933 210.031 373.407 209.708C372.881 209.384 372.434 208.949 372.095 208.434C371.935 208.177 371.53 208.4 371.689 208.655C372.065 209.223 372.56 209.703 373.141 210.061C373.721 210.419 374.372 210.647 375.05 210.729C375.184 210.746 375.31 210.698 375.337 210.573C375.344 210.511 375.328 210.449 375.291 210.399C375.253 210.348 375.199 210.314 375.137 210.303V210.303Z" fill="white"/>
<path d="M390.123 136.897L384.313 106.016L372.906 91.0263L364.453 96.544C365.647 103.012 374.683 115.087 374.683 115.087L382.691 138.97C382.659 139.094 382.63 139.219 382.608 139.348C382.481 140.104 382.552 140.879 382.812 141.6C383.073 142.32 383.516 142.962 384.098 143.461C384.679 143.961 385.38 144.303 386.133 144.453C386.885 144.603 387.664 144.557 388.393 144.319C389.123 144.081 389.779 143.66 390.297 143.095C390.815 142.53 391.179 141.841 391.353 141.095C391.527 140.349 391.505 139.57 391.29 138.835C391.074 138.1 390.673 137.432 390.123 136.897V136.897Z" fill="#FFB8B8"/>
<path d="M364.679 99.8068L374.249 92.0518L374.267 92.0108C376.057 87.9613 372.083 81.0175 368.434 75.9057C367.229 74.2211 365.429 73.0561 363.397 72.6461C361.364 72.236 359.252 72.6116 357.487 73.697C356.19 74.5063 355.145 75.6617 354.472 77.0326C353.798 78.4035 353.522 79.9351 353.675 81.4544L354.48 89.1906L364.679 99.8068Z" fill="#3F3D56"/>
<path d="M330.855 253.492L324.487 253.492L321.458 228.97L330.856 228.971L330.855 253.492Z" fill="#FFB8B8"/>
<path d="M332.479 251.417L330.687 251.417L323.689 248.575L319.939 251.416H319.938C317.819 251.416 315.786 252.257 314.287 253.753C312.788 255.249 311.946 257.279 311.946 259.395V259.654L332.479 259.655L332.479 251.417Z" fill="#2F2E41"/>
<path d="M359.11 253.492L352.743 253.492L349.713 228.97L359.112 228.971L359.11 253.492Z" fill="#FFB8B8"/>
<path d="M360.735 251.417L358.942 251.417L351.945 248.575L348.194 251.416H348.193C346.074 251.416 344.041 252.257 342.543 253.753C341.044 255.249 340.202 257.279 340.202 259.395V259.654L360.734 259.655L360.735 251.417Z" fill="#2F2E41"/>
<path d="M368.82 147.87C368.82 147.87 369.563 156.778 367.704 165.315C365.846 173.852 365.846 197.895 365.846 197.895L361.756 244.745L349.487 243.632L346.141 165.315L334.244 191.668L335.36 195.38L333.874 196.308C333.874 196.308 334.988 203.545 334.244 203.545C333.501 203.545 331.642 204.659 331.642 204.659L333.129 242.889L320.489 242.518L316.027 188.699L320.86 157.892L321.232 151.953L322.905 152.022L323.757 149.541L325.322 145.272L368.82 147.87Z" fill="#2F2E41"/>
<path d="M369.463 149.741L369.529 149.648C373.068 144.702 367.746 132.816 366.943 131.093L370.324 129.998L369.562 123.537L369.202 120.656L371.786 118.076L371.793 118.012L373.28 105.021L375.442 96.3928C376.257 93.131 376.188 89.7114 375.241 86.4852C374.295 83.259 372.506 80.3424 370.057 78.0347L365.059 73.33L358.985 64.3573H349.19L345.831 70.6908C342.575 71.4421 339.686 73.31 337.668 75.9692C335.649 78.6284 334.629 81.9103 334.785 85.2431L335.546 101.854L332.566 122.536L332.565 126.278L329.211 129.999L329.943 133.654L327.391 134.746L326.264 139.996C325.798 140.611 322.72 144.708 322.72 145.829C322.72 145.997 322.844 146.159 323.111 146.34C325.209 147.758 336.804 150.649 341.935 148.599C347.402 146.417 369.131 149.69 369.35 149.724L369.463 149.741Z" fill="#3F3D56"/>
<path d="M284.283 259.504C284.283 259.635 284.335 259.761 284.427 259.854C284.52 259.947 284.646 260 284.777 260H401.791C401.922 260 402.049 259.948 402.142 259.855C402.235 259.762 402.287 259.636 402.287 259.504C402.287 259.373 402.235 259.246 402.142 259.153C402.049 259.06 401.922 259.008 401.791 259.008H284.78C284.649 259.008 284.523 259.059 284.429 259.152C284.336 259.244 284.284 259.37 284.283 259.501V259.504Z" fill="#CCCCCC"/>
<path d="M352.822 61.4614C359.987 61.4614 365.794 55.663 365.794 48.5103C365.794 41.3576 359.987 35.5592 352.822 35.5592C345.658 35.5592 339.85 41.3576 339.85 48.5103C339.85 55.663 345.658 61.4614 352.822 61.4614Z" fill="#FFB8B8"/>
<path d="M351.58 61.671C353.589 61.6505 355.592 61.4587 357.569 61.0978C359.525 60.6478 363.842 57.3152 365.019 55.3465C365.893 53.8837 366.417 51.6212 366.704 49.9809C367.09 47.81 367.016 45.5822 366.485 43.4419C365.954 41.3016 364.979 39.2964 363.623 37.5562C363.1 36.8271 362.39 36.2527 361.567 35.8937C361.494 35.8674 361.419 35.8444 361.344 35.825C360.151 35.5443 359.069 34.9141 358.238 34.0152C358.076 33.8332 357.902 33.6631 357.716 33.5061C356.783 32.7605 355.687 32.2458 354.517 32.0042C352.626 31.5509 349.922 32.1189 346.479 33.6939C344.749 34.4851 342.83 34.2644 341.35 33.9837C341.267 33.9699 341.182 33.978 341.103 34.0073C341.024 34.0365 340.955 34.0859 340.901 34.1504C340.29 34.7533 339.473 35.103 338.614 35.1292C338.089 35.1658 337.556 35.9071 336.914 36.8724C336.768 37.0915 336.598 37.3472 336.474 37.5032L336.45 37.2102L336.161 37.5453C335.706 38.0719 335.393 38.7048 335.25 39.385C335.106 40.0651 335.138 40.7704 335.341 41.4352C335.544 42.1 335.912 42.7027 336.412 43.1871C336.911 43.6715 337.525 44.0219 338.196 44.2056C338.729 44.3325 339.273 44.4048 339.821 44.4213C340.152 44.4425 340.496 44.4644 340.825 44.5128C341.884 44.701 342.876 45.1601 343.704 45.8453C344.532 46.5305 345.169 47.4184 345.55 48.4222C345.64 48.6542 345.783 48.8624 345.966 49.0308C346.15 49.1991 346.37 49.3231 346.609 49.3932C346.848 49.4632 347.1 49.4775 347.346 49.4348C347.591 49.3922 347.824 49.2937 348.025 49.1472C348.36 48.8726 348.757 48.6829 349.181 48.5944C349.605 48.506 350.045 48.5212 350.462 48.639C350.825 48.8283 351.111 49.1363 351.273 49.5114C351.47 49.929 351.786 50.2787 352.182 50.516C353.533 51.1677 353.703 54.2047 353.29 56.7507C352.892 59.2048 352.025 60.995 351.183 61.1041C350.534 61.188 350.461 61.236 350.417 61.352L350.378 61.4559L350.453 61.5501C350.816 61.6708 351.2 61.7121 351.58 61.671V61.671Z" fill="#2F2E41"/>
<path d="M208.795 128.504C223.041 128.504 234.589 116.975 234.589 102.752C234.589 88.5297 223.041 77 208.795 77C194.549 77 183 88.5297 183 102.752C183 116.975 194.549 128.504 208.795 128.504Z" fill="#F9A826"/>
<path d="M205.014 106.213L193.087 99.3372C192.561 99.0214 191.999 98.8811 191.403 98.8811C189.508 98.8811 188 100.425 188 102.284C188 103.477 188.631 104.564 189.684 105.196L201.611 112.072C203.19 113.054 205.295 112.563 206.277 110.949C207.26 109.335 206.768 107.265 205.155 106.283C205.12 106.248 205.049 106.248 205.014 106.213Z" fill="white"/>
<path d="M228.765 99.3372L216.837 92.4613C215.223 91.5141 213.154 92.0754 212.206 93.6891C211.259 95.3029 211.821 97.3726 213.434 98.3198L225.362 105.196C226.976 106.143 229.045 105.582 229.993 103.968C230.94 102.354 230.378 100.284 228.765 99.3372Z" fill="white"/>
<path d="M224.905 106.038L219.362 102.81L213.468 106.213C211.855 107.16 211.293 109.23 212.241 110.844C213.188 112.457 215.258 113.019 216.871 112.072L226.448 106.529C225.887 106.494 225.361 106.318 224.905 106.038Z" fill="white"/>
<path d="M193.577 98.5303L199.155 101.758L205.049 98.3549C206.663 97.4077 207.224 95.338 206.277 93.7242C205.329 92.1105 203.26 91.5492 201.646 92.4964L192.034 98.0041C192.56 98.0743 193.086 98.2497 193.577 98.5303Z" fill="white"/>
<path d="M348.591 98.8421L340.082 93.4096C334.664 97.151 327.342 110.332 327.342 110.332L308.81 127.425C308.038 127.557 307.314 127.89 306.712 128.39C306.11 128.89 305.65 129.54 305.38 130.274C305.109 131.007 305.037 131.8 305.17 132.57C305.304 133.341 305.638 134.063 306.14 134.663C306.641 135.264 307.293 135.722 308.028 135.991C308.763 136.261 309.557 136.332 310.329 136.198C311.1 136.064 311.823 135.729 312.424 135.227C313.025 134.726 313.483 134.075 313.752 133.341L339.579 115.378L348.591 98.8421Z" fill="#FFB8B8"/>
<path d="M347.78 101.046L353.447 87.4681L351.397 79.9642C350.99 78.4926 350.178 77.1641 349.053 76.1289C347.929 75.0938 346.537 74.3932 345.035 74.1064V74.1064C342.996 73.7313 340.89 74.1431 339.144 75.2586C337.397 76.3742 336.14 78.1102 335.627 80.1156C334.075 86.1989 332.883 94.1072 336.018 97.237L336.05 97.2687L347.78 101.046Z" fill="#3F3D56"/>
<path d="M17.7665 252.143C6.67366 246.459 -1.37442 235.474 0.308191 223.736C10.1523 232.223 23.7631 237.22 37.9669 237.56C43.4991 237.692 49.7112 237.327 53.632 240.552C56.0717 242.559 57.1026 245.656 57.1482 248.712C57.1938 251.767 56.3549 254.832 55.5215 257.856L55.7225 258.586C42.4729 259.007 28.8593 257.828 17.7665 252.143Z" fill="#F2F2F2"/>
<path d="M0.586274 223.715C4.67254 232.338 11.9997 239.649 21.2534 244.085C23.2794 245.108 25.4485 245.82 27.6874 246.196C29.9697 246.507 32.2933 246.278 34.4707 245.528C36.5336 244.862 38.5745 243.974 40.7469 243.753C41.8107 243.639 42.8866 243.74 43.9103 244.051C44.934 244.361 45.8844 244.875 46.7047 245.561C48.6543 247.176 49.7784 249.361 50.7908 251.538C51.9149 253.954 53.0378 256.483 55.3354 258.178C55.6138 258.384 55.2044 258.78 54.9265 258.575C50.9291 255.625 50.5013 250.506 47.3623 246.988C45.8976 245.346 43.831 244.124 41.3006 244.229C39.0878 244.322 36.9825 245.236 34.899 245.926C32.7788 246.686 30.5202 246.983 28.2753 246.797C26.0147 246.526 23.8129 245.892 21.7547 244.92C17.2768 242.891 13.1591 240.149 9.56243 236.801C5.58759 233.143 2.34953 228.76 0.0224612 223.888C-0.118691 223.591 0.446049 223.419 0.586283 223.715H0.586274Z" fill="white"/>
<path d="M18.1476 242.79C15.7158 245.559 11.4359 246.495 8.15307 244.992C7.82967 244.844 8.11255 244.373 8.43639 244.522C10.0073 245.191 11.7487 245.351 13.4158 244.981C15.0828 244.61 16.5917 243.727 17.7301 242.456C17.9693 242.184 18.3854 242.519 18.1476 242.79V242.79Z" fill="white"/>
<path d="M33.4644 245.985C33.2989 244.321 32.7822 242.71 31.9484 241.26C31.1146 239.809 29.9825 238.551 28.6266 237.569C28.3492 237.363 28.7584 236.967 29.0356 237.173C30.4442 238.198 31.6194 239.509 32.4835 241.02C33.3476 242.532 33.8811 244.209 34.0488 245.941C34.0787 246.271 33.4941 246.313 33.4644 245.985V245.985Z" fill="white"/>
<path d="M6.268 232.804C6.82276 232.405 7.26639 231.872 7.5568 231.255C7.84722 230.637 7.97479 229.956 7.92741 229.275C7.89281 228.946 8.47741 228.904 8.51179 229.231C8.56074 229.983 8.41906 230.735 8.09987 231.418C7.78067 232.1 7.29424 232.692 6.68552 233.137C6.63029 233.188 6.55939 233.219 6.48437 233.225C6.40934 233.231 6.33461 233.211 6.2723 233.169C6.24539 233.147 6.22364 233.119 6.20857 233.088C6.19351 233.056 6.18548 233.022 6.18508 232.987C6.18467 232.952 6.19188 232.918 6.2062 232.886C6.22053 232.855 6.24162 232.826 6.268 232.804H6.268Z" fill="white"/>
<path d="M38.256 200.004C38.2842 200.209 38.3125 200.413 38.3451 200.62C38.7403 203.363 39.3916 206.064 40.2903 208.687C40.356 208.891 40.4262 209.096 40.4986 209.297C42.7802 215.651 46.3722 221.455 51.0423 226.335C52.9446 228.329 55.0065 230.164 57.2074 231.824C60.2753 234.14 63.8284 236.421 65.7196 239.471C65.9204 239.785 66.0987 240.114 66.2533 240.453L56.7319 258.244C56.6881 258.276 56.6486 258.31 56.6047 258.343L56.26 259.066C56.138 258.987 56.0136 258.903 55.8916 258.824C55.8206 258.778 55.7517 258.729 55.6807 258.683C55.634 258.652 55.5875 258.62 55.5431 258.594C55.5275 258.584 55.512 258.573 55.5009 258.564C55.4565 258.538 55.4188 258.509 55.3789 258.485C54.6818 258.015 53.9876 257.54 53.2964 257.06C53.2919 257.058 53.2919 257.058 53.2896 257.053C48.034 253.379 43.1121 249.261 39.11 244.561C38.9897 244.42 38.8648 244.277 38.7488 244.128C36.9706 242.017 35.3901 239.747 34.0271 237.348C33.293 236.043 32.6352 234.698 32.0569 233.317C30.5735 229.751 29.7483 225.947 29.6211 222.088C29.3607 214.358 31.9061 206.453 37.8008 200.459C37.9517 200.305 38.1006 200.156 38.256 200.004Z" fill="#F2F2F2"/>
<path d="M38.4806 200.134C35.6854 209.597 36.2245 219.687 40.1724 228.384C40.9897 230.313 42.1437 232.082 43.5808 233.608C45.1242 235.113 47.0467 236.173 49.1445 236.675C51.1519 237.217 53.2937 237.561 55.0804 238.537C55.9572 239.011 56.7093 239.684 57.2752 240.504C57.8411 241.323 58.2048 242.265 58.3364 243.251C58.7047 245.657 58.0631 248.103 57.3432 250.481C56.5439 253.122 55.6673 255.856 56.2431 258.517C56.3128 258.839 55.7348 258.954 55.6652 258.632C54.6635 254.004 57.8274 249.456 57.8598 244.807C57.8749 242.638 57.1508 240.5 55.1729 239.235C53.4432 238.129 51.235 237.774 49.1958 237.241C47.1333 236.773 45.2169 235.808 43.614 234.43C42.0912 232.985 40.8583 231.263 39.9811 229.357C37.9653 225.154 36.7279 220.622 36.3287 215.98C35.8438 210.593 36.3898 205.163 37.9377 199.979C38.0342 199.652 38.5766 199.81 38.4806 200.134L38.4806 200.134Z" fill="white"/>
<path d="M38.7154 225.629C34.998 226.664 31.1369 225.163 29.6881 222.138C29.5454 221.84 30.0792 221.594 30.2221 221.892C31.5795 224.726 35.1533 226.091 38.6282 225.124C38.9939 225.022 39.079 225.528 38.7154 225.629Z" fill="white"/>
<path d="M48.0755 236.523C49.0629 235.133 49.7572 233.557 50.1162 231.892C50.4751 230.226 50.4913 228.505 50.1637 226.832C50.0953 226.51 50.6732 226.395 50.7416 226.717C51.0787 228.458 51.0579 230.25 50.6804 231.983C50.303 233.716 49.5767 235.354 48.5457 236.798C48.3434 237.093 47.8743 236.816 48.0755 236.523H48.0755Z" fill="white"/>
<path d="M36.5692 210.844C37.2945 210.785 37.998 210.567 38.6294 210.206C39.2608 209.845 39.8047 209.35 40.2224 208.755C40.4205 208.458 40.8895 208.736 40.6926 209.03C40.2284 209.686 39.627 210.233 38.9301 210.633C38.2331 211.033 37.4573 211.278 36.6564 211.349C36.4974 211.363 36.3513 211.302 36.3239 211.154C36.3174 211.081 36.3392 211.008 36.3848 210.95C36.4304 210.893 36.4964 210.854 36.5692 210.844V210.844Z" fill="white"/>
<path d="M71.8135 110.841L72.6492 118.578L72.1575 128.724L94.6679 126.054L96.7831 110.841L94.088 110.867L71.8135 110.841Z" fill="#FFB6B6"/>
<path d="M60.1387 251.318H65.0601L67.4025 232.367H60.1387V251.318Z" fill="#FFB6B6"/>
<path d="M58.5324 247.953L66.3951 247.484V250.847L73.8703 256.001C74.2395 256.256 74.5176 256.622 74.6639 257.045C74.8102 257.469 74.8171 257.928 74.6836 258.355C74.5501 258.783 74.2831 259.157 73.9217 259.422C73.5603 259.688 73.1233 259.831 72.6746 259.831H63.3139L61.7004 256.504L61.0704 259.831H57.541L58.5324 247.953Z" fill="#2F2E41"/>
<path d="M87.7827 251.318H92.7042L95.0461 232.367H87.7827V251.318Z" fill="#FFB6B6"/>
<path d="M86.177 247.953L94.0396 247.484V250.847L101.515 256.001C101.884 256.256 102.162 256.622 102.309 257.045C102.455 257.469 102.462 257.928 102.328 258.355C102.195 258.783 101.928 259.157 101.566 259.422C101.205 259.688 100.768 259.831 100.319 259.831H90.9584L89.3449 256.504L88.7149 259.831H85.1855L86.177 247.953Z" fill="#2F2E41"/>
<path d="M58.0149 234.975H58.0684L59.0149 204.16C58.4024 202.981 58.0915 201.668 58.11 200.34C58.1285 199.011 58.4757 197.708 59.1208 196.546L59.2563 196.301L58.9049 194.675C58.4536 192.586 58.6607 190.409 59.4978 188.442L60.3807 159.697C57.2262 139.287 72.2599 125.976 72.2599 125.976H94.7806L99.6155 142.56C102.812 173.649 102.232 203.945 97.1597 233.297L97.298 233.366C97.7959 233.538 98.0095 234.227 97.7751 234.904C97.5408 235.582 96.9471 235.993 96.4492 235.821L84.5558 235.408C84.0579 235.237 83.8442 234.548 84.0787 233.87C84.313 233.192 84.9066 232.782 85.4045 232.953L86.2132 233.362L84.4886 203.627L84.68 198.195L84.2857 192.034L82.4626 164.319L75.5621 198.4L68.5135 235.318C68.7079 235.494 68.8444 235.724 68.9049 235.979C68.9653 236.234 68.947 236.501 68.8523 236.745C68.7576 236.989 68.591 237.199 68.3744 237.346C68.1578 237.494 67.9014 237.573 67.6392 237.572H58.0149C57.8439 237.572 57.6745 237.539 57.5164 237.474C57.3584 237.409 57.2147 237.313 57.0937 237.192C56.9727 237.072 56.8766 236.929 56.8111 236.771C56.7456 236.613 56.7119 236.444 56.7119 236.273C56.7119 236.103 56.7456 235.934 56.8111 235.776C56.8766 235.618 56.9727 235.475 57.0937 235.354C57.2147 235.234 57.3584 235.138 57.5164 235.073C57.6745 235.008 57.8439 234.975 58.0149 234.975V234.975Z" fill="#2F2E41"/>
<path d="M75.7445 71.247C82.4158 71.247 87.8239 65.8478 87.8239 59.1874C87.8239 52.5271 82.4158 47.1278 75.7445 47.1278C69.0732 47.1278 63.665 52.5271 63.665 59.1874C63.665 65.8478 69.0732 71.247 75.7445 71.247Z" fill="#FFB6B6"/>
<path d="M22.8132 114.902C24.5109 110.967 26.8422 107.337 29.7146 104.154C27.2823 108.024 25.8922 112.456 25.6789 117.02C26.5596 117.569 27.481 118.05 28.4351 118.459C31.3026 119.66 34.3598 120.345 37.4661 120.484C39.1404 114.916 42.0301 109.786 45.9275 105.466C43.1188 109.938 41.7063 115.143 41.8699 120.419C45.3346 120.12 48.7483 119.389 52.0314 118.244C56.961 116.551 61.746 114.023 65.1551 110.09C68.8447 105.834 70.6631 100.217 71.2503 94.6169C71.8375 89.0218 71.2854 83.3741 70.7288 77.7745C70.4659 75.106 72.6919 72.0349 72.429 69.3664H72.2537C71.0838 67.7653 69.8919 66.1248 69.3179 64.2262C68.7482 62.3319 68.8972 60.0965 70.2074 58.6047C70.9415 57.8253 71.8677 57.252 72.8935 56.9423C72.9899 56.8199 73.0951 56.7017 73.2046 56.5836C75.1887 54.4797 77.5239 52.7359 80.106 51.4303C78.2437 52.8345 76.9993 54.4225 76.4209 56.063C78.0334 55.7087 79.6459 55.3558 81.2585 55.0044C81.7974 54.4337 82.3648 53.8905 82.9586 53.377C83.8219 52.6289 84.1067 52.5721 85.1364 51.8677C84.3051 52.5979 83.6606 53.5158 83.2566 54.545C85.3292 54.0244 87.4018 53.2414 88.4798 51.4609C90.2676 48.5167 88.1424 44.5446 85.1759 42.7859C83.0179 41.5689 80.5315 41.0599 78.0679 41.3307C75.6044 41.6015 73.2884 42.6386 71.4475 44.2952C67.1576 41.141 61.0493 41.1936 56.2775 43.5515C53.1272 45.1778 50.4135 47.5346 48.3638 50.4241C49.5528 50.2718 50.7496 50.1885 51.9482 50.1747C50.2609 50.4213 48.6543 51.0563 47.2552 52.0296C46.6363 52.989 46.0688 53.9805 45.555 55C45.2177 55.6693 44.8992 56.3474 44.5998 57.0342C42.7638 61.2076 41.5676 65.6523 40.3275 70.0444C38.8815 75.1628 37.3303 80.3161 34.6223 84.8964C30.4703 91.861 23.9205 97.0783 16.1966 99.5734C15.5525 105.361 18.3831 111.022 22.8132 114.902Z" fill="#2F2E41"/>
<path d="M87.9088 79.3116L85.5644 78.4327L82.6081 73.6604L72.0776 74.5195L69.518 79.6366L63.3521 84.3376L66.0485 98.5157L70.2379 115.738L98.2818 112.238L98.2521 99.2735C98.2521 99.2735 103.32 89.0308 95.1338 85.1928L87.9088 79.3116Z" fill="#F9A826"/>
<path d="M131.135 124.282C130.591 124.5 130.005 124.597 129.42 124.564C128.834 124.532 128.262 124.372 127.745 124.095C127.228 123.819 126.778 123.432 126.427 122.963C126.076 122.494 125.832 121.954 125.712 121.381L94.4434 102.491L100.159 95.9077L129.098 116.546C130.076 116.409 131.07 116.635 131.892 117.182C132.714 117.728 133.307 118.557 133.559 119.51C133.81 120.464 133.702 121.476 133.255 122.356C132.809 123.235 132.054 123.921 131.135 124.282V124.282Z" fill="#FFB6B6"/>
<path d="M84.0249 93.5336C84.0249 93.5336 82.5306 95.0346 86.2801 97.5029C89.2819 99.4788 102.671 109.244 107.418 110.788C107.358 111.484 107.532 112.18 107.913 112.766C108.293 113.353 108.858 113.796 109.519 114.026L113.816 104.598C112.886 102.443 111.398 102.942 110.615 103.43L105.425 99.5335L92.6798 86.8277L85.0858 92.4294L84.0249 93.5336Z" fill="#F9A826"/>
<path d="M71.5243 44.623C70.0724 46.762 69.1344 49.2066 68.7834 51.7665C68.4323 54.3265 68.6777 56.9328 69.5004 59.3826" fill="#FD6584"/>
<path d="M10.2407 259.504C10.2405 259.569 10.2532 259.634 10.2781 259.694C10.303 259.754 10.3396 259.809 10.3858 259.855C10.432 259.901 10.4868 259.938 10.5472 259.963C10.6075 259.988 10.6722 260 10.7375 260H127.748C127.88 260 128.006 259.948 128.099 259.855C128.192 259.762 128.245 259.636 128.245 259.504C128.245 259.373 128.192 259.246 128.099 259.153C128.006 259.06 127.88 259.008 127.748 259.008H10.7375C10.6722 259.008 10.6076 259.021 10.5472 259.045C10.4868 259.07 10.432 259.107 10.3858 259.153C10.3396 259.199 10.303 259.254 10.2781 259.314C10.2532 259.374 10.2405 259.439 10.2407 259.504V259.504Z" fill="#CCCCCC"/>
<path d="M54.8221 146.777C54.5305 146.88 54.2916 147.093 54.1577 147.372C54.0238 147.65 54.0059 147.97 54.1078 148.261L70.4099 195.169C70.5126 195.46 70.7268 195.699 71.0054 195.833C71.284 195.966 71.6044 195.984 71.8962 195.882L166.752 162.656C167.044 162.554 167.283 162.34 167.417 162.062C167.551 161.783 167.568 161.463 167.466 161.172L151.164 114.264C151.062 113.973 150.847 113.734 150.569 113.6C150.29 113.467 149.97 113.449 149.678 113.551L54.8221 146.777Z" fill="#E6E6E6"/>
<path d="M78.831 189.112C76.9643 189.112 75.1435 188.534 73.6189 187.459C72.0943 186.383 70.9406 184.863 70.3165 183.107L61.3638 157.818C60.5665 155.566 60.6979 153.09 61.7293 150.934C62.7607 148.779 64.6075 147.121 66.8634 146.325L114.805 129.408C123.779 126.253 133.64 126.78 142.226 130.874C150.811 134.969 157.419 142.296 160.599 151.249C161.397 153.501 161.265 155.977 160.234 158.133C159.203 160.288 157.356 161.946 155.1 162.742L155.03 162.546L155.1 162.742L81.8289 188.597C80.8662 188.938 79.8524 189.112 78.831 189.112V189.112Z" fill="white"/>
<path d="M142.407 139.263L99.4799 154.3C98.875 154.512 98.1255 153.946 97.8056 153.035C97.4857 152.125 97.7167 151.216 98.3216 151.004L141.248 135.967C141.853 135.756 142.603 136.322 142.923 137.232C143.243 138.142 143.012 139.052 142.407 139.263Z" fill="#E6E6E6"/>
<path d="M145.727 148.712L102.8 163.748C102.195 163.96 101.446 163.394 101.126 162.484C100.806 161.574 101.037 160.664 101.642 160.452L144.569 145.416C145.174 145.204 145.923 145.77 146.243 146.68C146.563 147.59 146.332 148.5 145.727 148.712Z" fill="#E6E6E6"/>
<path d="M93.6709 159.44C94.1318 160.737 94.3558 162.106 94.3321 163.482C94.323 164.111 94.2607 164.739 94.1457 165.358C93.7798 167.358 92.8914 169.227 91.5703 170.774C90.2492 172.321 88.5422 173.493 86.6221 174.171C84.7019 174.848 82.6366 175.008 80.6349 174.633C78.6332 174.258 76.7662 173.362 75.2226 172.035C75.0668 171.902 74.915 171.765 74.7674 171.623C73.5067 170.417 72.536 168.942 71.9281 167.307C71.3202 165.673 71.0908 163.923 71.2572 162.188C71.4236 160.452 71.9815 158.777 72.8889 157.288C73.7964 155.799 75.0298 154.534 76.4968 153.589C77.9638 152.643 79.6261 152.042 81.3592 151.829C83.0922 151.617 84.8509 151.799 86.5034 152.362C88.1559 152.925 89.6592 153.854 90.9005 155.08C92.1419 156.306 93.089 157.797 93.6709 159.44V159.44Z" fill="#E4E4E4"/>
<path d="M83.2496 165.051C84.4705 165.051 85.4602 164.062 85.4602 162.844C85.4602 161.625 84.4705 160.637 83.2496 160.637C82.0288 160.637 81.0391 161.625 81.0391 162.844C81.0391 164.062 82.0288 165.051 83.2496 165.051Z" fill="#FD6584"/>
<path d="M74.7676 171.623C75.3351 170.308 76.0058 168.302 77.5596 169.032C78.3272 169.364 79.7018 170.374 80.26 169.2L84.6307 160.066C84.7135 159.895 84.8296 159.743 84.9722 159.618C85.1148 159.494 85.2809 159.398 85.4608 159.338C85.6408 159.279 85.8309 159.255 86.02 159.27C86.2091 159.284 86.3934 159.336 86.5621 159.423L94.3323 163.482C94.3232 164.111 94.2609 164.739 94.146 165.358L75.2228 172.035L74.7676 171.623Z" fill="#3F3D56"/>
<path d="M77.0237 144.648C76.4769 144.436 75.9834 144.107 75.5779 143.683C75.1724 143.26 74.8648 142.753 74.6768 142.198C74.4888 141.644 74.4248 141.055 74.4895 140.472C74.5542 139.89 74.746 139.329 75.0513 138.829L65.1592 103.704L73.8383 102.798L80.8328 137.61C81.6403 138.178 82.2112 139.022 82.4372 139.982C82.6633 140.942 82.5288 141.951 82.0593 142.818C81.5897 143.686 80.8178 144.351 79.8897 144.688C78.9616 145.026 77.9418 145.011 77.0237 144.648V144.648Z" fill="#FFB6B6"/>
<path d="M63.6955 84.4221C63.6955 84.4221 61.5771 84.4981 62.6242 88.8583C63.4625 92.3491 66.5412 114.247 68.9484 118.613C68.4285 119.081 68.0792 119.708 67.9555 120.395C67.8318 121.083 67.9407 121.792 68.2651 122.411L77.8569 118.461C78.6535 116.253 78.0367 114.248 77.1306 114.071L76.01 107.685L74.3585 86.2604L65.2258 84.34L63.6955 84.4221Z" fill="#F9A826"/>
<path d="M150.102 176.842L136.836 177.391C136.553 177.403 136.27 177.351 136.01 177.239C135.749 177.127 135.518 176.957 135.332 176.743C135.149 176.534 135.016 176.286 134.943 176.019C134.869 175.751 134.857 175.47 134.908 175.198C135.926 169.656 135.629 163.953 134.042 158.546C133.919 158.133 133.944 157.69 134.112 157.292C134.28 156.895 134.581 156.568 134.963 156.368C140.397 153.55 145.488 153.407 150.095 155.943C150.336 156.074 150.546 156.256 150.71 156.476C150.873 156.696 150.987 156.949 151.043 157.218C152.242 163.118 152.529 169.166 151.895 175.153C151.851 175.603 151.645 176.023 151.316 176.333C150.986 176.644 150.555 176.825 150.102 176.842Z" fill="#F9A826"/>
<path d="M149.54 168.174L139.397 168.593C139.272 168.599 139.147 168.579 139.029 168.536C138.912 168.493 138.804 168.428 138.712 168.343C138.62 168.259 138.545 168.157 138.493 168.044C138.44 167.93 138.41 167.808 138.405 167.683C138.4 167.558 138.419 167.433 138.463 167.316C138.506 167.199 138.571 167.091 138.656 166.999C138.741 166.907 138.843 166.833 138.957 166.781C139.07 166.728 139.193 166.699 139.318 166.694L149.461 166.274C149.586 166.269 149.711 166.288 149.828 166.331C149.945 166.374 150.053 166.44 150.145 166.525C150.237 166.609 150.312 166.711 150.364 166.824C150.417 166.937 150.447 167.06 150.452 167.185C150.457 167.309 150.438 167.434 150.394 167.551C150.351 167.668 150.286 167.776 150.201 167.868C150.116 167.96 150.014 168.034 149.901 168.087C149.787 168.139 149.665 168.169 149.54 168.174V168.174Z" fill="white"/>
<path d="M149.402 164.843L139.259 165.262C139.006 165.272 138.76 165.182 138.574 165.012C138.389 164.841 138.278 164.603 138.268 164.352C138.257 164.1 138.348 163.854 138.519 163.668C138.69 163.483 138.928 163.373 139.18 163.362L149.323 162.943C149.575 162.932 149.821 163.023 150.007 163.193C150.193 163.364 150.303 163.602 150.314 163.853C150.324 164.105 150.234 164.351 150.063 164.537C149.892 164.722 149.654 164.832 149.402 164.843V164.843Z" fill="white"/>
<path d="M392.713 73.2425L379.548 71.5188C379.267 71.4826 378.998 71.3832 378.76 71.2282C378.523 71.0731 378.324 70.8665 378.178 70.6236C378.033 70.3867 377.944 70.1201 377.918 69.8439C377.891 69.5678 377.927 69.2892 378.024 69.029C379.976 63.7426 380.66 58.073 380.022 52.475C379.972 52.0466 380.072 51.6143 380.306 51.2516C380.54 50.8889 380.892 50.6183 381.303 50.486C387.139 48.6366 392.18 49.3648 396.284 52.6497C396.5 52.8199 396.676 53.035 396.799 53.28C396.923 53.5249 396.991 53.7939 397 54.0681C397.171 60.0857 396.419 66.0941 394.769 71.8844C394.649 72.3208 394.374 72.6988 393.996 72.9485C393.618 73.1982 393.162 73.3026 392.713 73.2425V73.2425Z" fill="#F9A826"/>
<path d="M393.644 64.6065L383.578 63.2885C383.454 63.2723 383.335 63.2318 383.227 63.1694C383.118 63.107 383.023 63.024 382.947 62.925C382.871 62.826 382.815 62.7129 382.783 62.5924C382.75 62.4718 382.742 62.346 382.758 62.2222C382.774 62.0984 382.815 61.979 382.877 61.8709C382.94 61.7627 383.023 61.6679 383.122 61.5919C383.221 61.5158 383.335 61.46 383.455 61.4277C383.576 61.3953 383.702 61.387 383.826 61.4032L393.891 62.7212C394.142 62.754 394.369 62.8848 394.523 63.0847C394.677 63.2847 394.745 63.5375 394.712 63.7875C394.679 64.0375 394.548 64.2642 394.348 64.4178C394.147 64.5714 393.894 64.6393 393.644 64.6065V64.6065Z" fill="white"/>
<path d="M394.078 61.3003L384.013 59.9823C383.889 59.9663 383.769 59.926 383.66 59.8637C383.552 59.8014 383.457 59.7184 383.38 59.6193C383.304 59.5202 383.248 59.4071 383.215 59.2864C383.183 59.1657 383.174 59.0398 383.191 58.9158C383.207 58.7919 383.248 58.6724 383.31 58.5641C383.373 58.4558 383.456 58.361 383.556 58.2849C383.655 58.2089 383.768 58.1531 383.889 58.1209C384.01 58.0887 384.136 58.0806 384.261 58.0971L394.326 59.4151C394.45 59.4311 394.57 59.4714 394.678 59.5337C394.787 59.596 394.882 59.679 394.958 59.7781C395.035 59.8771 395.091 59.9903 395.123 60.111C395.156 60.2317 395.164 60.3576 395.148 60.4816C395.132 60.6055 395.091 60.725 395.029 60.8333C394.966 60.9415 394.883 61.0364 394.783 61.1125C394.684 61.1885 394.57 61.2443 394.449 61.2765C394.328 61.3087 394.202 61.3168 394.078 61.3003Z" fill="white"/>
<path d="M359.314 17.7279C361.622 17.7279 363.493 15.8597 363.493 13.5553C363.493 11.2509 361.622 9.38278 359.314 9.38278C357.005 9.38278 355.134 11.2509 355.134 13.5553C355.134 15.8597 357.005 17.7279 359.314 17.7279Z" fill="#3F3D56"/>
<path d="M102.575 135.675C104.883 135.675 106.754 133.807 106.754 131.502C106.754 129.198 104.883 127.33 102.575 127.33C100.267 127.33 98.3955 129.198 98.3955 131.502C98.3955 133.807 100.267 135.675 102.575 135.675Z" fill="#3F3D56"/>
</g>
<defs>
<clipPath id="clip0_684_3029">
<rect width="413" height="260" fill="white"/>
</clipPath>
</defs>
</svg>
