<svg width="30" height="24" viewBox="0 0 30 24" fill="none" xmlns="http://www.w3.org/2000/svg">
<path d="M26.7428 5.97432C26.7557 6.23436 26.7605 6.4976 26.7605 6.75763C26.7605 14.7673 20.6658 24 9.52134 24C6.09759 24 2.9146 22.9968 0.232422 21.2761C1.8189 21.4679 3.42763 21.3453 4.96667 20.915C6.50571 20.4848 7.94488 19.7556 9.20192 18.7689C7.93774 18.745 6.71263 18.3266 5.69787 17.5723C4.68312 16.818 3.92944 15.7655 3.54221 14.5618C4.45082 14.7317 5.38594 14.6961 6.27897 14.4575C4.90756 14.1794 3.67447 13.4357 2.78868 12.3524C1.90288 11.2692 1.41885 9.91297 1.41862 8.51365V8.43821C2.26002 8.90627 3.20106 9.16656 4.1634 9.19744C2.87909 8.34123 1.96994 7.02716 1.62153 5.52345C1.27312 4.01973 1.51171 2.43974 2.2886 1.10595C3.80993 2.97827 5.7081 4.50964 7.85983 5.60057C10.0116 6.69151 12.3687 7.31761 14.7782 7.43821C14.6739 6.98495 14.6217 6.52128 14.6225 6.05619C14.6225 5.26074 14.7792 4.47309 15.0836 3.73822C15.3881 3.00334 15.8343 2.33564 16.3968 1.77325C16.9594 1.21086 17.6272 0.764804 18.3622 0.460546C19.0971 0.156289 19.8848 -0.000202777 20.6802 8.04793e-06C21.5092 -0.00134389 22.3297 0.167648 23.0906 0.496502C23.8516 0.825355 24.5369 1.30706 25.104 1.91172C26.4606 1.64318 27.7616 1.146 28.9515 0.441421C28.4989 1.84464 27.552 3.03567 26.287 3.79294C27.488 3.65056 28.661 3.32918 29.7669 2.83949C28.9545 4.05689 27.9302 5.11865 26.7428 5.97432Z" fill="black" fill-opacity="0.4"/>
</svg>
