<svg width="30" height="24" viewBox="0 0 30 24" fill="none" xmlns="http://www.w3.org/2000/svg">
<path d="M26.5104 5.97432C26.5233 6.23436 26.5281 6.4976 26.5281 6.75763C26.5281 14.7673 20.4334 24 9.28892 24C5.86517 24 2.68218 22.9968 0 21.2761C1.58648 21.4679 3.19521 21.3453 4.73425 20.915C6.27329 20.4848 7.71246 19.7556 8.9695 18.7689C7.70532 18.745 6.48021 18.3266 5.46545 17.5723C4.45069 16.818 3.69702 15.7655 3.30979 14.5618C4.2184 14.7317 5.15351 14.6961 6.04655 14.4575C4.67514 14.1794 3.44205 13.4357 2.55625 12.3524C1.67045 11.2692 1.18643 9.91297 1.1862 8.51365V8.43821C2.0276 8.90627 2.96864 9.16656 3.93098 9.19744C2.64667 8.34123 1.73752 7.02716 1.38911 5.52345C1.0407 4.01973 1.27929 2.43974 2.05618 1.10595C3.57751 2.97827 5.47568 4.50964 7.62741 5.60057C9.77913 6.69151 12.1363 7.31761 14.5457 7.43821C14.4415 6.98495 14.3893 6.52128 14.39 6.05619C14.39 5.26074 14.5467 4.47309 14.8512 3.73822C15.1556 3.00334 15.6019 2.33564 16.1644 1.77325C16.727 1.21086 17.3948 0.764804 18.1297 0.460546C18.8647 0.156289 19.6524 -0.000202777 20.4478 8.04793e-06C21.2768 -0.00134389 22.0972 0.167648 22.8582 0.496502C23.6192 0.825355 24.3045 1.30706 24.8716 1.91172C26.2281 1.64318 27.5292 1.146 28.7191 0.441421C28.2665 1.84464 27.3196 3.03567 26.0546 3.79294C27.2556 3.65056 28.4286 3.32918 29.5345 2.83949C28.7221 4.05689 27.6978 5.11865 26.5104 5.97432Z" fill="black" fill-opacity="0.7"/>
</svg>
