<svg width="21" height="22" viewBox="0 0 21 22" fill="none" xmlns="http://www.w3.org/2000/svg">
<path d="M18.5546 4.12009L18.4818 4.37442L18.6512 4.57764C19.4842 5.57724 19.8993 6.73716 19.8993 8.07955C19.8993 10.6185 19.1804 12.1853 18.1921 13.1737C17.1929 14.173 15.8543 14.6459 14.4967 14.8649L13.784 14.9798L14.1422 15.6066C14.4426 16.1324 14.5313 16.7573 14.5313 17.4515V21.1815C14.5313 21.3092 14.4943 21.3634 14.4793 21.3798C14.467 21.3933 14.4457 21.4095 14.3943 21.4095V21.4095L14.387 21.4096C14.358 21.41 14.3291 21.4046 14.3022 21.3936C14.2753 21.3827 14.2508 21.3664 14.2301 21.3458C14.2094 21.3251 14.1931 21.3005 14.1822 21.2736C14.1712 21.2467 14.1658 21.2178 14.1663 21.1888H14.1663V21.1815V17.4813C14.2175 17.0342 14.1673 16.581 14.0195 16.1557L14.0195 16.1556C13.9049 15.8263 13.734 15.5203 13.5154 15.251L13.7538 14.6311C15.0938 14.439 16.5204 14.0893 17.6349 13.1743C18.8615 12.1674 19.6263 10.5506 19.6263 7.98854C19.6263 6.71149 19.1487 5.53805 18.3078 4.56418L18.1932 4.10631C18.5266 3.16781 18.5427 2.14396 18.2362 1.19314L18.0996 0.769534L17.6631 0.856079C17.1646 0.954903 16.2144 1.15496 14.6568 2.23666L14.3242 2.29138C12.1591 1.75919 9.89741 1.75919 7.73241 2.29138L7.38333 2.23394C5.78915 1.26785 4.79975 0.937535 4.20427 0.937535H3.83226L3.72536 1.29386C3.44333 2.23396 3.41747 3.28967 3.76941 4.20609L3.66072 4.64267C2.72354 5.63125 2.24828 6.89446 2.24828 8.07955C2.24828 10.5888 2.9629 12.2049 4.16482 13.2258C5.25749 14.154 6.68177 14.5253 8.097 14.721L8.28278 15.3248C7.78241 15.9316 7.52786 16.6982 7.61627 17.4811V21.2725H7.61623L7.61632 21.2795C7.61673 21.3087 7.61127 21.3377 7.60035 21.3645C7.58937 21.3916 7.57307 21.4162 7.55241 21.4368C7.53179 21.4575 7.50729 21.4737 7.4804 21.4846L7.48038 21.4846C7.4534 21.4956 7.42456 21.501 7.39556 21.5006L7.38826 21.5005L7.38097 21.5006C7.35199 21.501 7.32314 21.4956 7.29616 21.4846L7.29614 21.4846C7.26925 21.4737 7.24475 21.4575 7.22413 21.4368C7.20347 21.4162 7.18717 21.3916 7.17619 21.3645C7.16527 21.3377 7.15981 21.3087 7.16022 21.2795H7.16026V21.2725V19.1805V18.5633L6.55648 18.6914C5.1594 18.9878 4.24237 18.7686 3.57901 18.384C2.89193 17.9858 2.42361 17.3838 1.96146 16.7835L1.95557 16.7758L1.94939 16.7684C1.93125 16.7466 1.91305 16.7248 1.8948 16.7028C1.69289 16.4601 1.48415 16.2091 1.27158 16.0084C1.08156 15.8289 0.856187 15.6572 0.584789 15.5605C0.569261 15.5357 0.554011 15.5083 0.540724 15.4795C0.497675 15.3864 0.496217 15.3272 0.503336 15.2988C0.519558 15.2339 0.559012 15.1886 0.587405 15.1712C0.594991 15.1665 0.599637 15.1651 0.601373 15.1646C0.603396 15.165 0.607808 15.1663 0.615159 15.17L0.674832 15.1997L0.740217 15.2128C1.39378 15.3435 1.80801 15.8304 2.33658 16.4517C2.37313 16.4947 2.41022 16.5383 2.44798 16.5824C2.85053 17.1183 3.31945 17.7262 4.04218 18.1008C4.79067 18.4888 5.73727 18.5941 7.04158 18.3046L7.43326 18.2177V17.8165V17.4525V17.4217L7.42949 17.3912C7.3547 16.7862 7.5034 16.1658 7.82239 15.6076L8.16656 15.0053L7.48632 14.8692C6.16549 14.605 4.79466 14.1091 3.75567 13.1011C2.73126 12.1074 1.97428 10.562 1.97428 8.08054C1.97428 6.73841 2.39023 5.57843 3.22339 4.57863L3.37919 4.39166L3.32816 4.15369C3.08329 3.01185 3.15683 1.8037 3.52751 0.836658L3.80948 0.611087C3.83643 0.605582 3.88136 0.598189 3.94708 0.593668C4.08706 0.584037 4.30333 0.589008 4.60156 0.644575C5.19821 0.755746 6.11803 1.06865 7.39656 1.86234L7.57638 1.97397L7.78171 1.92256C9.88232 1.39661 12.0802 1.39661 14.1809 1.92256L14.3979 1.97689L14.583 1.85132C15.8137 1.0165 16.731 0.683529 17.3361 0.562436C17.6388 0.501837 17.8632 0.494294 18.0105 0.502993C18.0815 0.507187 18.1295 0.514751 18.1575 0.520237L18.4282 0.736768C18.8127 1.88119 18.8736 3.00422 18.5546 4.12009ZM0.600044 15.1645C0.600037 15.1645 0.600355 15.1645 0.601031 15.1646C0.600392 15.1646 0.600051 15.1645 0.600044 15.1645Z" fill="white" stroke="#08AD5D"/>
</svg>
