<svg width="59" height="48" viewBox="0 0 59 48" fill="none" xmlns="http://www.w3.org/2000/svg">
<path d="M19.0134 32.6958C18.7968 32.6958 18.5802 32.7275 18.3736 32.7946C17.1991 33.1761 15.9638 33.4208 14.6634 33.4208C13.3629 33.4208 12.1277 33.1761 10.9523 32.7946C10.7457 32.7275 10.53 32.6958 10.3134 32.6958C4.68922 32.6958 0.133509 37.2706 0.163415 42.902C0.176103 45.2818 2.13269 47.1958 4.5134 47.1958H24.8134C27.1941 47.1958 29.1507 45.2818 29.1633 42.902C29.1932 37.2706 24.6375 32.6958 19.0134 32.6958ZM14.6634 29.7958C19.4683 29.7958 23.3634 25.9008 23.3634 21.0959C23.3634 16.2909 19.4683 12.3959 14.6634 12.3959C9.85845 12.3959 5.9634 16.2909 5.9634 21.0959C5.9634 25.9008 9.85845 29.7958 14.6634 29.7958ZM53.8133 0.795898H19.0134C16.6145 0.795898 14.6634 2.8123 14.6634 5.28998V9.49588C16.7858 9.49588 18.7506 10.1103 20.4634 11.109V6.59589H52.3633V32.6958H46.5633V26.8958H34.9633V32.6958H28.0541C29.785 34.2084 31.0556 36.2057 31.651 38.4958H53.8133C56.2121 38.4958 58.1633 36.4794 58.1633 34.0017V5.28998C58.1633 2.8123 56.2121 0.795898 53.8133 0.795898Z" fill="#F9BB04"/>
</svg>
