<svg width="63" height="52" viewBox="0 0 63 52" fill="none" xmlns="http://www.w3.org/2000/svg">
<path d="M27.4267 51.7462L21.4286 49.983C20.7993 49.8037 20.4453 49.1363 20.6223 48.4987L34.0443 1.65886C34.2213 1.02131 34.8801 0.662693 35.5094 0.842004L41.5076 2.60522C42.1369 2.78453 42.4909 3.45197 42.3139 4.08951L28.8918 50.9294C28.705 51.5669 28.056 51.9355 27.4267 51.7462ZM16.2171 40.5692L20.4944 35.947C20.9468 35.4589 20.9173 34.6819 20.4158 34.2336L11.5071 26.2941L20.4158 18.3547C20.9173 17.9064 20.9566 17.1294 20.4944 16.6412L16.2171 12.019C15.7746 11.5409 15.0273 11.511 14.5455 11.9692L0.376113 25.4175C-0.125371 25.8857 -0.125371 26.6926 0.376113 27.1608L14.5455 40.619C15.0273 41.0773 15.7746 41.0573 16.2171 40.5692ZM48.3907 40.629L62.5601 27.1707C63.0615 26.7025 63.0615 25.8956 62.5601 25.4274L48.3907 11.9592C47.9187 11.511 47.1714 11.5309 46.7191 12.0091L42.4417 16.6313C41.9894 17.1194 42.0189 17.8964 42.5204 18.3447L51.4291 26.2941L42.5204 34.2336C42.0189 34.6819 41.9796 35.4589 42.4417 35.947L46.7191 40.5692C47.1616 41.0573 47.9089 41.0773 48.3907 40.629Z" fill="#0AAE5E"/>
</svg>
