<svg width="59" height="41" viewBox="0 0 59 41" fill="none" xmlns="http://www.w3.org/2000/svg">
<path d="M8.86327 17.4C12.0623 17.4 14.6633 14.7991 14.6633 11.6C14.6633 8.40094 12.0623 5.8 8.86327 5.8C5.66421 5.8 3.06327 8.40094 3.06327 11.6C3.06327 14.7991 5.66421 17.4 8.86327 17.4ZM49.4633 17.4C52.6623 17.4 55.2633 14.7991 55.2633 11.6C55.2633 8.40094 52.6623 5.8 49.4633 5.8C46.2642 5.8 43.6633 8.40094 43.6633 11.6C43.6633 14.7991 46.2642 17.4 49.4633 17.4ZM52.3633 20.3H46.5633C44.9683 20.3 43.5273 20.9434 42.4761 21.9856C46.1283 23.9884 48.7201 27.6044 49.282 31.9H55.2633C56.8673 31.9 58.1633 30.6041 58.1633 29V26.1C58.1633 22.9009 55.5623 20.3 52.3633 20.3ZM29.1633 20.3C34.773 20.3 39.3133 15.7597 39.3133 10.15C39.3133 4.54031 34.773 0 29.1633 0C23.5536 0 19.0133 4.54031 19.0133 10.15C19.0133 15.7597 23.5536 20.3 29.1633 20.3ZM36.1233 23.2H35.3711C33.4861 24.1062 31.3926 24.65 29.1633 24.65C26.9339 24.65 24.8495 24.1062 22.9555 23.2H22.2033C16.4395 23.2 11.7633 27.8762 11.7633 33.64V36.25C11.7633 38.6516 13.7117 40.6 16.1133 40.6H42.2133C44.6148 40.6 46.5633 38.6516 46.5633 36.25V33.64C46.5633 27.8762 41.887 23.2 36.1233 23.2ZM15.8505 21.9856C14.7992 20.9434 13.3583 20.3 11.7633 20.3H5.96327C2.76421 20.3 0.163269 22.9009 0.163269 26.1V29C0.163269 30.6041 1.45921 31.9 3.06327 31.9H9.03546C9.60639 27.6044 12.1983 23.9884 15.8505 21.9856Z" fill="#176FFF"/>
</svg>
