<svg width="58" height="58" viewBox="0 0 58 58" fill="none" xmlns="http://www.w3.org/2000/svg">
<path d="M56.943 2.39039C56.8097 1.77031 56.1966 1.15723 55.5746 1.02411C51.9651 0.249878 49.139 0.249878 46.3252 0.249878C34.7523 0.249878 27.8123 6.43845 22.6312 14.5994H10.9482C9.11551 14.6011 6.96208 15.9306 6.14034 17.5684L0.59836 28.6458C0.427093 29.0236 0.331293 29.4312 0.316345 29.8457C0.316603 30.5593 0.600241 31.2436 1.1049 31.7481C1.60956 32.2527 2.29392 32.5361 3.00753 32.5362H14.6452L12.1257 35.0551C10.8516 36.3288 10.6688 38.6714 12.1257 40.1279L17.8323 45.8347C19.083 47.0889 21.4372 47.3096 22.9082 45.8347L25.4277 43.3159V54.9573C25.4279 55.6709 25.7116 56.3552 26.2162 56.8597C26.7209 57.3643 27.4053 57.6478 28.1189 57.6478C28.5335 57.6325 28.9411 57.5367 29.3192 57.3658L40.3872 51.8289C42.0271 51.0108 43.3588 48.8581 43.3588 47.0241V35.3161C51.4974 30.1242 57.7122 23.1632 57.7122 11.6513C57.7227 8.82594 57.7227 6.00053 56.943 2.39039ZM43.3693 19.0836C42.4825 19.0834 41.6156 18.8202 40.8783 18.3273C40.1411 17.8345 39.5665 17.1341 39.2272 16.3147C38.888 15.4953 38.7994 14.5937 38.9725 13.7239C39.1456 12.8541 39.5728 12.0552 40.2 11.4282C40.8272 10.8011 41.6262 10.3742 42.496 10.2012C43.3658 10.0283 44.2674 10.1172 45.0867 10.4566C45.906 10.796 46.6063 11.3708 47.099 12.1082C47.5917 12.8456 47.8546 13.7125 47.8546 14.5994C47.8539 15.7886 47.3811 16.929 46.5401 17.7698C45.6991 18.6106 44.5586 19.0832 43.3693 19.0836Z" fill="#EA4235"/>
</svg>
