<svg width="64" height="63" viewBox="0 0 64 63" fill="none" xmlns="http://www.w3.org/2000/svg">
<g opacity="0.16">
<path d="M58.9813 11.5688C58.573 9.93735 57.7414 8.44259 56.5704 7.23546C55.3995 6.02833 53.9308 5.15157 52.3126 4.69375C46.4001 3.25 22.7501 3.25 22.7501 3.25C22.7501 3.25 -0.899926 3.25 -6.81243 4.83125C-8.43064 5.28907 -9.89938 6.16583 -11.0703 7.37296C-12.2412 8.58009 -13.0728 10.0748 -13.4812 11.7063C-14.5633 17.7066 -15.0926 23.7936 -15.0624 29.8906C-15.101 36.0336 -14.5717 42.167 -13.4812 48.2125C-13.031 49.7932 -12.1807 51.2311 -11.0126 52.3873C-9.84437 53.5434 -8.39773 54.3787 -6.81243 54.8125C-0.899926 56.3938 22.7501 56.3937 22.7501 56.3937C22.7501 56.3937 46.4001 56.3938 52.3126 54.8125C53.9308 54.3547 55.3995 53.4779 56.5704 52.2708C57.7414 51.0637 58.573 49.5689 58.9813 47.9375C60.0551 41.9823 60.5843 35.9418 60.5626 29.8906C60.6011 23.7477 60.0718 17.6143 58.9813 11.5688V11.5688Z" stroke="black" stroke-width="4.57188" stroke-linecap="round" stroke-linejoin="round"/>
<path d="M15.0156 41.1312L34.7813 29.8905L15.0156 18.6499V41.1312Z" stroke="black" stroke-width="4.57188" stroke-linecap="round" stroke-linejoin="round"/>
</g>
</svg>
