<svg id="hero_left" xmlns="http://www.w3.org/2000/svg" xmlns:xlink="http://www.w3.org/1999/xlink" viewBox="0 0 310 529.19" shape-rendering="geometricPrecision" text-rendering="geometricPrecision"><style><![CDATA[#hero_left-vector_5_tr {animation: hero_left-vector_5_tr__tr 4000ms linear infinite normal forwards}@keyframes hero_left-vector_5_tr__tr { 0% {transform: translate(228.971001px,365.6465px) rotate(0deg)} 25% {transform: translate(228.971001px,365.6465px) rotate(90.000001deg)} 50% {transform: translate(228.971001px,365.6465px) rotate(180.000001deg)} 75% {transform: translate(228.971001px,365.6465px) rotate(270.000001deg)} 100% {transform: translate(228.971001px,365.6465px) rotate(360.000001deg)}} #hero_left-ellipse_231_tr {animation: hero_left-ellipse_231_tr__tr 4000ms linear infinite normal forwards}@keyframes hero_left-ellipse_231_tr__tr { 0% {transform: translate(-0.000069px,0.017021px) rotate(0deg);animation-timing-function: cubic-bezier(0.42,0,0.58,1)} 100% {transform: translate(-0.000069px,0.017021px) rotate(360deg)}} #hero_left-group_164_tr {animation: hero_left-group_164_tr__tr 4000ms linear infinite normal forwards}@keyframes hero_left-group_164_tr__tr { 0% {transform: translate(90.140301px,184.613167px) rotate(0deg);animation-timing-function: cubic-bezier(0.42,0,0.58,1)} 50% {transform: translate(90.140301px,184.613167px) rotate(180.000001deg);animation-timing-function: cubic-bezier(0.42,0,0.58,1)} 100% {transform: translate(90.140301px,184.613167px) rotate(360.000001deg)}} #hero_left-vector_24_tr {animation: hero_left-vector_24_tr__tr 4000ms linear infinite normal forwards}@keyframes hero_left-vector_24_tr__tr { 0% {transform: translate(67.9961px,322.4705px) rotate(0deg)} 25% {transform: translate(67.9961px,322.4705px) rotate(179.999996deg)} 50% {transform: translate(67.9961px,322.4705px) rotate(359.999996deg)} 75% {transform: translate(67.9961px,322.4705px) rotate(539.999996deg)} 100% {transform: translate(67.9961px,322.4705px) rotate(719.999996deg)}} #hero_left-vector_27_to {animation: hero_left-vector_27_to__to 4000ms linear infinite normal forwards}@keyframes hero_left-vector_27_to__to { 0% {transform: translate(111.546303px,478.734482px)} 25% {transform: translate(111.546303px,508.73px)} 50% {transform: translate(111.546303px,478.73px)} 75% {transform: translate(111.546303px,508.73px)} 100% {transform: translate(111.546303px,478.73px)}}]]></style><g id="hero_left-frame-121"><g id="hero_left-frame-117"><g id="hero_left-group-156"><path id="hero_left-vector" d="M210.345,399.609c0,4.442,1.764,8.701,4.905,11.842c3.14,3.14,7.4,4.905,11.841,4.905h16.746v-33.493h-16.746c-4.441,0-8.701,1.765-11.841,4.905-3.141,3.141-4.905,7.4-4.905,11.841v0Z" fill="#156eff"/><path id="hero_left-vector_2" d="M243.838,416.356v16.747c0,4.441,1.764,8.701,4.905,11.841c3.14,3.141,7.4,4.905,11.841,4.905s8.701-1.764,11.841-4.905c3.141-3.14,4.905-7.4,4.905-11.841c0-4.442-1.764-8.701-4.905-11.842-3.14-3.14-7.4-4.904-11.841-4.904h-16.746v-.001Z" fill="#f6b804"/><path id="hero_left-vector_3" d="M243.837,349.37v-16.744c0-4.441-1.764-8.701-4.905-11.841-3.14-3.141-7.4-4.905-11.841-4.906-2.199,0-4.377.434-6.409,1.275-2.032.842-3.878,2.075-5.433,3.63-1.555,1.556-2.788,3.402-3.63,5.434-.841,2.031-1.274,4.209-1.274,6.408v0c0,2.199.433,4.377,1.274,6.409.842,2.032,2.075,3.878,3.63,5.433s3.402,2.788,5.433,3.63c2.032.842,4.21,1.275,6.409,1.274l16.746-.002Z" fill="#ea4235"/><path id="hero_left-vector_4" d="M277.33,366.117c0-4.442-1.764-8.701-4.905-11.842-3.14-3.14-7.4-4.904-11.841-4.904h-16.746v33.493h16.746c2.199,0,4.377-.433,6.409-1.275s3.878-2.075,5.433-3.63s2.788-3.402,3.63-5.433c.841-2.032,1.274-4.21,1.274-6.409v0Z" fill="#0f9d58"/></g><g id="hero_left-vector_5_tr" transform="translate(228.971001,365.6465) rotate(0)"><path id="hero_left-vector_5" d="M226.074,362.75v-2.896c0-.769.306-1.505.849-2.049.543-.543,1.28-.848,2.048-.848v0c.768,0,1.505.305,2.048.848.543.544.848,1.28.848,2.049v2.896h2.897c.768,0,1.505.305,2.048.849.543.543.849,1.279.849,2.048v0c0,.768-.306,1.505-.849,2.048s-1.28.848-2.048.848h-2.897v2.897c0,.768-.305,1.505-.848,2.048s-1.28.848-2.048.848-1.505-.305-2.048-.848-.849-1.28-.849-2.048v-2.897h-2.896c-.768,0-1.505-.305-2.048-.848-.544-.543-.849-1.28-.849-2.048c0-.769.305-1.505.849-2.048.543-.544,1.28-.849,2.048-.849h2.896Z" transform="translate(-228.971001,-365.6465)" fill="#1d2935"/></g><path id="hero_left-vector_6" d="M253.793,390.362c2.479,0,4.856.985,6.609,2.738c1.753,1.752,2.738,4.13,2.738,6.609s-.985,4.856-2.738,6.609-4.13,2.738-6.609,2.738v-18.694Z" fill="#1d2935"/></g><g id="hero_left-frame-109"><path id="hero_left-vector_7" d="M198.47,102.759c-.019-2.194.397-4.3702,1.224-6.4028s2.048-3.8813,3.592-5.4395c1.545-1.5582,3.384-2.795,5.409-3.6391s4.198-1.2786,6.392-1.2786s4.367.4346,6.392,1.2786c2.026.8441,3.864,2.0809,5.409,3.6391c1.544,1.5582,2.765,3.4069,3.592,5.4395s1.243,4.2088,1.224,6.4028h-33.234Z" fill="#1d2935"/><path id="hero_left-vector_8" d="M198.622,138.07c-.019-2.194.397-4.37,1.223-6.403.827-2.032,2.048-3.881,3.593-5.439s3.383-2.795,5.408-3.639c2.026-.844,4.198-1.279,6.392-1.279c2.195,0,4.367.435,6.393,1.279c2.025.844,3.863,2.081,5.408,3.639s2.766,3.407,3.592,5.439c.827,2.033,1.243,4.209,1.224,6.403h-33.233Z" fill="#ea4235"/><path id="hero_left-vector_9" d="M299.466,0.01709v147.16391c0,5.233-2.079,10.252-5.78,13.953s-8.72,5.78-13.953,5.78c-5.233-.002-10.251-2.082-13.951-5.782s-5.78-8.718-5.782-13.951v-147.16391h39.466Z" fill="#dbf4e5"/><g id="hero_left-group-166"><path id="hero_left-vector_10" d="M228.192,31.2159c-.358.0002-.707-.1057-1.004-.3041s-.529-.4805-.666-.8105-.172-.6933-.103-1.0438c.07-.3504.242-.6723.495-.925.252-.2526.574-.4246.925-.4943.35-.0697.713-.0338,1.043.1029s.613.3684.811.6656.304.6464.304,1.0037c0,.4788-.19.9381-.529,1.2767-.338.3386-.798.5288-1.276.5288v0Z" fill="#1d2935"/><path id="hero_left-vector_11" d="M226.381,42.6766c0,.9972.809,1.8055,1.806,1.8055s1.805-.8083,1.805-1.8055-.808-1.8055-1.805-1.8055-1.806.8084-1.806,1.8055Z" fill="#1d2935"/><path id="hero_left-vector_12" d="M226.381,55.9427c0,.9972.809,1.8056,1.806,1.8056s1.805-.8084,1.805-1.8056-.808-1.8055-1.805-1.8055-1.806.8084-1.806,1.8055Z" fill="#1d2935"/><path id="hero_left-vector_13" d="M214.922,31.2159c-.357,0-.706-.1059-1.003-.3044s-.529-.4807-.665-.8107c-.137-.3301-.173-.6933-.103-1.0437s.242-.6722.494-.9248c.253-.2526.575-.4245.925-.4942.351-.0696.714-.0337,1.044.1031s.612.3684.81.6656c.199.2971.305.6463.305,1.0036c0,.2372-.047.472-.138.6911s-.224.4182-.392.5858c-.167.1677-.366.3007-.586.3914-.219.0907-.454.1373-.691.1372v0Z" fill="#1d2935"/><path id="hero_left-vector_14" d="M213.116,42.6766c0,.9972.808,1.8055,1.805,1.8055s1.806-.8083,1.806-1.8055-.809-1.8055-1.806-1.8055-1.805.8084-1.805,1.8055Z" fill="#1d2935"/><path id="hero_left-vector_15" d="M213.116,55.9427c0,.9972.808,1.8056,1.805,1.8056s1.806-.8084,1.806-1.8056-.809-1.8055-1.806-1.8055-1.805.8084-1.805,1.8055Z" fill="#1d2935"/><path id="hero_left-vector_16" d="M201.655,31.2159c-.357.0002-.706-.1057-1.003-.3041s-.529-.4805-.666-.8105-.172-.6933-.103-1.0438c.07-.3504.242-.6723.495-.925.252-.2526.574-.4246.925-.4943.35-.0697.713-.0338,1.043.1029s.612.3684.811.6656c.198.2971.304.6464.304,1.0037c0,.4788-.19.9381-.529,1.2767s-.798.5288-1.277.5288v0Z" fill="#1d2935"/><path id="hero_left-vector_17" d="M199.849,42.6766c0,.9972.808,1.8055,1.805,1.8055.998,0,1.806-.8083,1.806-1.8055s-.808-1.8055-1.806-1.8055c-.997,0-1.805.8084-1.805,1.8055Z" fill="#1d2935"/><path id="hero_left-vector_18" d="M199.849,55.9427c0,.9972.808,1.8056,1.805,1.8056.998,0,1.806-.8084,1.806-1.8056s-.808-1.8055-1.806-1.8055c-.997,0-1.805.8084-1.805,1.8055Z" fill="#1d2935"/></g></g><g id="hero_left-frame-98"><path id="hero_left-vector_19" d="M47.9782,0.01709C47.9775,12.7412,42.9223,24.944,33.9248,33.9411s-21.2007,14.0515-33.9248,14.0515v0v54.0924c13.4038,0,26.6764-2.64,39.06-7.7693s23.6356-12.6476,33.1136-22.1254s16.9963-20.7298,22.1258-33.1133s7.7696-25.6561,7.7696-39.05991h-54.0908v0Z" fill="#fef9dc"/><g id="hero_left-ellipse_231_tr" transform="translate(-0.000069,0.017021) rotate(0)"><circle id="hero_left-ellipse_231" r="73.1034" transform="translate(0.000069,0)" fill="none" stroke="#fbbc04" stroke-width="2.06897" stroke-linecap="round" stroke-dasharray="6.9,6.9"/></g></g><g id="hero_left-frame-107"><path id="hero_left-vector_20" d="M143.832,255.734c16.878,0,30.56-13.682,30.56-30.56s-13.682-30.56-30.56-30.56-30.561,13.682-30.561,30.56s13.683,30.56,30.561,30.56Z" fill="#fae4dc"/><path id="hero_left-vector_21" d="M93.1772,249.599c34.9928-.501,62.9548-29.275,62.4538-64.268s-29.274-62.955-64.2675-62.454c-34.9931.501-62.9546,29.275-62.4537,64.268.5008,34.993,29.2743,62.954,64.2674,62.454Z" fill="#dbe5f4"/><g id="hero_left-frame_97"><g id="hero_left-group_164_tr" transform="translate(90.140301,184.613167) rotate(0)"><g id="hero_left-group_164" transform="translate(-90.140301,-184.613167)"><path id="hero_left-vector_22" d="M58.5506,149.3c.4223-9.292-6.7678-17.167-16.0596-17.589-9.2917-.422-17.1665,6.768-17.5887,16.06-.4223,9.291,6.7678,17.166,16.0596,17.588c9.2917.423,17.1665-6.768,17.5887-16.059Z" fill="#156eff"/><path id="hero_left-vector_23" d="M143.486,237.533c6.577,0,11.91-5.332,11.91-11.909c0-6.578-5.333-11.91-11.91-11.91-6.578,0-11.91,5.332-11.91,11.91c0,6.577,5.332,11.909,11.91,11.909Z" fill="#ea4235"/></g></g></g></g><g id="hero_left-frame-104"><g id="hero_left-vector_24_tr" transform="translate(67.9961,322.4705) rotate(0)"><path id="hero_left-vector_24" d="M67.935,367.611c-12.1643,0-23.8304-4.833-32.4319-13.434s-13.4338-20.268-13.4338-32.432s4.8323-23.83,13.4338-32.432c8.6015-8.601,20.2676-13.434,32.4319-13.434v91.732Z" transform="translate(-67.9961,-322.4705)" fill="#fae4dc"/></g><path id="hero_left-vector_25" d="M67.9961,296.368L41.8936,322.47l26.1025,26.103L94.0986,322.47L67.9961,296.368Z" fill="#ea4235"/></g><g id="hero_left-frame-102"><path id="hero_left-vector_26" d="M111.889,375.88c20.331,0,39.829,8.076,54.205,22.452s22.453,33.875,22.453,54.205v76.657h-153.3156v-76.657c0-20.33,8.0764-39.829,22.4525-54.205s33.8743-22.452,54.2051-22.452v0Z" fill="#dbf4e5"/><g id="hero_left-vector_27_to" transform="translate(111.546303,478.734482)"><path id="hero_left-vector_27" d="M111.547,428.275c7.799,0,15.278,3.099,20.793,8.613c5.515,5.515,8.613,12.995,8.613,20.794v71.512h-58.8134v-71.514c.0006-7.799,3.0991-15.278,8.6139-20.792c5.5148-5.515,12.9945-8.613,20.7935-8.613v0Z" transform="translate(-111.546303,-478.734482)" fill="#0f9d58"/></g><path id="hero_left-vector_28" d="M197.104,478.169h1.907c8.676.001,16.996,3.448,23.131,9.583s9.581,14.455,9.582,23.131v18.31h-67.337v-18.31c.001-8.676,3.448-16.997,9.584-23.132c6.135-6.135,14.457-9.582,23.133-9.582Z" fill="#fbbc04"/></g><g id="hero_left-frame-108"><path id="hero_left-vector_29" d="M296.671,202.168c-.554,0-1.095-.164-1.556-.471-.46-.308-.819-.745-1.031-1.257-.212-.511-.268-1.074-.16-1.617.108-.544.375-1.043.766-1.434.392-.392.891-.658,1.434-.766s1.106-.053,1.618.159.949.571,1.256,1.032c.308.46.472,1.002.472,1.556c0,.742-.295,1.454-.82,1.978-.525.525-1.237.82-1.979.82v0Z" fill="#1d2935"/><path id="hero_left-vector_30" d="M293.873,220.908c0,1.546,1.253,2.799,2.798,2.799c1.546,0,2.799-1.253,2.799-2.799c0-1.545-1.253-2.798-2.799-2.798-1.545,0-2.798,1.253-2.798,2.798Z" fill="#1d2935"/><path id="hero_left-vector_31" d="M293.873,242.448c0,1.546,1.253,2.799,2.798,2.799c1.546,0,2.799-1.253,2.799-2.799s-1.253-2.799-2.799-2.799c-1.545,0-2.798,1.253-2.798,2.799Z" fill="#1d2935"/><path id="hero_left-vector_32" d="M296.671,266.786c-.554,0-1.095-.164-1.556-.471-.46-.308-.819-.745-1.031-1.257-.212-.511-.268-1.074-.16-1.617s.375-1.042.766-1.434c.392-.392.891-.658,1.434-.766s1.106-.053,1.618.159.949.571,1.256,1.032c.308.46.472,1.002.472,1.556c0,.367-.073.731-.213,1.071-.141.339-.347.648-.607.908-.26.259-.568.466-.908.606-.339.141-.703.213-1.071.213v0Z" fill="#1d2935"/><path id="hero_left-vector_33" d="M293.873,285.527c0,1.545,1.253,2.798,2.798,2.798c1.546,0,2.799-1.253,2.799-2.798c0-1.546-1.253-2.799-2.799-2.799-1.545,0-2.798,1.253-2.798,2.799Z" fill="#1d2935"/><path id="hero_left-vector_34" d="M279.736,202.168c-.554,0-1.096-.164-1.556-.472-.46-.307-.819-.745-1.031-1.256-.212-.512-.267-1.075-.159-1.618s.375-1.042.766-1.434c.392-.391.891-.658,1.434-.765.543-.108,1.106-.053,1.618.159.511.212.948.571,1.256,1.032.307.46.471,1.002.471,1.556c0,.367-.072.731-.213,1.071-.141.339-.347.648-.607.908s-.569.466-.908.606c-.34.141-.704.213-1.071.213v0Z" fill="#1d2935"/><path id="hero_left-vector_35" d="M276.936,220.908c0,1.546,1.253,2.799,2.799,2.799c1.545,0,2.798-1.253,2.798-2.799c0-1.545-1.253-2.798-2.798-2.798-1.546,0-2.799,1.253-2.799,2.798Z" fill="#1d2935"/><path id="hero_left-vector_36" d="M276.936,242.448c0,1.546,1.253,2.799,2.799,2.799c1.545,0,2.798-1.253,2.798-2.799s-1.253-2.799-2.798-2.799c-1.546,0-2.799,1.253-2.799,2.799Z" fill="#1d2935"/><path id="hero_left-vector_37" d="M279.736,266.786c-.554,0-1.096-.164-1.556-.472-.46-.307-.819-.745-1.031-1.256-.212-.512-.267-1.075-.159-1.618s.375-1.042.766-1.433c.392-.392.891-.658,1.434-.766s1.106-.053,1.618.159c.511.213.948.571,1.256,1.032.307.461.471,1.002.471,1.556c0,.367-.072.731-.213,1.071s-.347.648-.607.908-.569.466-.908.607c-.34.14-.704.212-1.071.212v0Z" fill="#1d2935"/><path id="hero_left-vector_38" d="M276.936,285.527c0,1.545,1.253,2.798,2.799,2.798c1.545,0,2.798-1.253,2.798-2.798c0-1.546-1.253-2.799-2.798-2.799-1.546,0-2.799,1.253-2.799,2.799Z" fill="#1d2935"/><path id="hero_left-vector_39" d="M262.801,202.168c-.554,0-1.095-.164-1.556-.471-.46-.308-.819-.745-1.031-1.257-.212-.511-.268-1.074-.16-1.617.108-.544.375-1.043.766-1.434.392-.392.891-.658,1.434-.766s1.106-.053,1.618.159c.511.212.949.571,1.256,1.032.308.46.472,1.002.472,1.556c0,.742-.295,1.454-.82,1.978-.525.525-1.237.82-1.979.82v0Z" fill="#1d2935"/><path id="hero_left-vector_40" d="M260.002,220.908c0,1.546,1.253,2.799,2.799,2.799s2.799-1.253,2.799-2.799c0-1.545-1.253-2.798-2.799-2.798s-2.799,1.253-2.799,2.798Z" fill="#1d2935"/><path id="hero_left-vector_41" d="M260.002,242.448c0,1.546,1.253,2.799,2.799,2.799s2.799-1.253,2.799-2.799-1.253-2.799-2.799-2.799-2.799,1.253-2.799,2.799Z" fill="#1d2935"/><path id="hero_left-vector_42" d="M262.801,266.786c-.554,0-1.095-.164-1.556-.471-.46-.308-.819-.745-1.031-1.257-.212-.511-.268-1.074-.16-1.617s.375-1.042.766-1.434c.392-.392.891-.658,1.434-.766s1.106-.053,1.618.159c.511.212.949.571,1.256,1.032.308.46.472,1.002.472,1.556c0,.367-.073.731-.213,1.071-.141.339-.347.648-.607.908-.26.259-.568.466-.908.606-.34.141-.703.213-1.071.213v0Z" fill="#1d2935"/><path id="hero_left-vector_43" d="M260.002,285.527c0,1.545,1.253,2.798,2.799,2.798s2.799-1.253,2.799-2.798c0-1.546-1.253-2.799-2.799-2.799s-2.799,1.253-2.799,2.799Z" fill="#1d2935"/></g></g></svg>