<svg id="hero_right-1" xmlns="http://www.w3.org/2000/svg" xmlns:xlink="http://www.w3.org/1999/xlink" viewBox="0 0 297 529.19" shape-rendering="geometricPrecision" text-rendering="geometricPrecision"><style><![CDATA[#hero_right-1-hero_right-vector_4_ts {animation: hero_right-1-hero_right-vector_4_ts__ts 4000ms linear infinite normal forwards}@keyframes hero_right-1-hero_right-vector_4_ts__ts { 0% {transform: translate(77.366638px,128.364956px) scale(1,1)} 25% {transform: translate(77.366638px,128.364956px) scale(2.37,2.37)} 47.5% {transform: translate(77.366638px,128.364956px) scale(1,1)} 75% {transform: translate(77.366638px,128.364956px) scale(2.37,2.37)} 97.5% {transform: translate(77.366638px,128.364956px) scale(1,1)} 100% {transform: translate(77.366638px,128.364956px) scale(1,1)}} #hero_right-1-hero_right-vector_4 {animation: hero_right-1-hero_right-vector_4_c_o 4000ms linear infinite normal forwards}@keyframes hero_right-1-hero_right-vector_4_c_o { 0% {opacity: 1} 25% {opacity: 0} 47.5% {opacity: 0} 50% {opacity: 1} 75% {opacity: 0} 97.5% {opacity: 0} 100% {opacity: 1}} #hero_right-1-hero_right-frame-96_tr_tr {animation: hero_right-1-hero_right-frame-96_tr_tr__tr 4000ms linear infinite normal forwards}@keyframes hero_right-1-hero_right-frame-96_tr_tr__tr { 0% {transform: translate(124.888px,383.423px) rotate(0deg)} 50% {transform: translate(124.888px,383.423px) rotate(180deg)} 75% {transform: translate(124.888px,383.423px) rotate(270.000002deg)} 100% {transform: translate(124.888px,383.423px) rotate(360deg)}} #hero_right-1-hero_right-frame_110_tr_tr {animation: hero_right-1-hero_right-frame_110_tr_tr__tr 4000ms linear infinite normal forwards}@keyframes hero_right-1-hero_right-frame_110_tr_tr__tr { 0% {transform: translate(72.7685px,0px) rotate(0deg);animation-timing-function: cubic-bezier(0.42,0,0.58,1)} 47.5% {transform: translate(72.7685px,0px) rotate(-150deg);animation-timing-function: cubic-bezier(0.42,0,0.58,1)} 52.5% {transform: translate(72.7685px,0px) rotate(-150deg);animation-timing-function: cubic-bezier(0.42,0,0.58,1)} 100% {transform: translate(72.7685px,0px) rotate(0deg)}} #hero_right-1-hero_right-vector_48_tr_tr {animation: hero_right-1-hero_right-vector_48_tr_tr__tr 4000ms linear infinite normal forwards}@keyframes hero_right-1-hero_right-vector_48_tr_tr__tr { 0% {transform: translate(180.481px,101.978px) rotate(0deg)} 25% {transform: translate(180.481px,101.978px) rotate(90deg)} 50% {transform: translate(180.481px,101.978px) rotate(180deg)} 75% {transform: translate(180.481px,101.978px) rotate(270deg)} 100% {transform: translate(180.481px,101.978px) rotate(360deg)}}]]></style><g id="hero_right-1-hero_right-frame-122"><g id="hero_right-1-hero_right-frame-95_tr" transform="translate(181.245 528.529)"><g id="hero_right-1-hero_right-frame-95" transform="translate(-181.245-528.529)"><g id="hero_right-1-hero_right-group-155"><g id="hero_right-1-hero_right-vector"><path id="hero_right-1-hero_right-path1" d="M108.474,529.104h-.648c-.018-17.959,6.575-35.296,18.52-48.705c11.946-13.409,28.409-21.953,46.251-24.002c1.133-.121,2.232-.464,3.233-1.01c1-.546,1.883-1.284,2.598-2.172.715-.889,1.247-1.909,1.566-3.004.319-1.094.419-2.241.294-3.374-.126-1.133-.473-2.23-1.024-3.229-.55-.998-1.292-1.878-2.184-2.589-.891-.71-1.914-1.238-3.01-1.553-1.096-.314-2.243-.409-3.375-.279-22.082,2.51-42.464,13.066-57.255,29.653-14.791,16.586-22.953,38.041-22.9269,60.264h-.6478c-.026-22.382,8.1942-43.99,23.0907-60.695c14.896-16.706,35.424-27.338,57.663-29.866c1.215-.135,2.444-.029,3.618.312c1.173.34,2.268.909,3.222,1.672.954.764,1.748,1.708,2.337,2.779.589,1.07.962,2.246,1.096,3.461.135,1.214.029,2.444-.312,3.617-.34,1.174-.908,2.269-1.672,3.223s-1.708,1.748-2.778,2.337c-1.071.589-2.247.961-3.462,1.096-17.683,2.031-33.999,10.5-45.839,23.791-11.839,13.29-18.373,30.474-18.355,48.273Z" fill="#156eff"/><path id="hero_right-1-hero_right-path2" d="M108.474,529.177h-.648c-.018,17.959,6.575,35.295,18.52,48.705c11.946,13.409,28.409,21.953,46.251,24.002c1.133.121,2.232.464,3.233,1.01c1,.546,1.883,1.284,2.598,2.172.715.889,1.247,1.909,1.566,3.004.319,1.094.419,2.241.294,3.374-.126,1.133-.473,2.23-1.024,3.229-.55.998-1.292,1.878-2.184,2.589-.891.71-1.914,1.238-3.01,1.552-1.096.315-2.243.41-3.375.279-22.082-2.509-42.464-13.065-57.255-29.652s-22.953-38.041-22.9269-60.264h-.6478c-.026,22.382,8.1942,43.99,23.0907,60.695c14.896,16.705,35.424,27.338,57.663,29.866c1.215.135,2.444.029,3.618-.312c1.173-.34,2.268-.909,3.222-1.672.954-.764,1.748-1.708,2.337-2.779.589-1.07.962-2.247,1.096-3.461.135-1.215.029-2.444-.312-3.617-.34-1.174-.908-2.269-1.672-3.223s-1.708-1.748-2.778-2.337c-1.071-.589-2.247-.961-3.462-1.096-17.683-2.031-33.999-10.5-45.839-23.791-11.839-13.29-18.373-30.474-18.355-48.273Z" fill="#156eff"/></g><g id="hero_right-1-hero_right-vector_2"><path id="hero_right-1-hero_right-path3" d="M101.672,529.104c-.018-19.469,7.129-38.264,20.08-52.8c12.951-14.537,30.799-23.799,50.14-26.02.622-.062,1.199-.35,1.622-.81.423-.459.662-1.059.672-1.683-.001-.664-.265-1.3-.734-1.769-.469-.47-1.104-.734-1.768-.737-.1,0-.199.006-.299.017-20.578,2.341-39.572,12.18-53.355,27.639-13.783,15.458-21.3882,35.452-21.3629,56.163h5.0049Z" fill="#0f9d58"/><path id="hero_right-1-hero_right-path4" d="M101.672,528.529c-.018,19.469,7.129,38.912,20.08,53.449s30.799,23.799,50.14,26.02c.622.061,1.199.349,1.622.809s.662,1.059.672,1.683c-.001.664-.265,1.3-.734,1.769-.469.47-1.104.735-1.768.737-.1,0-.199-.005-.299-.017-20.578-2.341-39.572-12.18-53.355-27.638-13.783-15.459-21.3882-36.101-21.3629-56.812h5.0049Z" fill="#0f9d58"/></g></g></g></g><g id="hero_right-1-hero_right-frame-115"><path id="hero_right-1-hero_right-vector_3" d="M78.3017,150.793c12.3867-.518,22.0083-10.979,21.4911-23.365-.5174-12.387-10.9782-22.009-23.3648-21.491-12.3867.517-22.0085,10.978-21.4911,23.365.5174,12.386,10.9782,22.008,23.3648,21.491Z" fill="#dbf4e5"/><g id="hero_right-1-hero_right-vector_4_ts" transform="translate(77.366638,128.364956) scale(1,1)"><path id="hero_right-1-hero_right-vector_4" d="M78.527,137.761c5.1902-.641,8.8781-5.368,8.2373-10.558-.6409-5.19-5.3679-8.878-10.5581-8.237-5.1901.64-8.8781,5.367-8.2372,10.558.6408,5.19,5.3678,8.878,10.558,8.237Z" transform="translate(-77.366636,-128.364954)" fill="#0aae5e"/></g><path id="hero_right-1-hero_right-vector_4_1" d="M78.527,137.761c5.1902-.641,8.8781-5.368,8.2373-10.558-.6409-5.19-5.3679-8.878-10.5581-8.237-5.1901.64-8.8781,5.367-8.2372,10.558.6408,5.19,5.3678,8.878,10.558,8.237Z" fill="#0aae5e"/></g><g id="hero_right-1-hero_right-frame_112"><path id="hero_right-1-hero_right-vector_5" d="M126.188,207.423l6.172-6.173c.811-.81,1.454-1.773,1.893-2.832.438-1.059.664-2.194.664-3.34c0-1.147-.226-2.282-.664-3.341-.439-1.059-1.082-2.021-1.893-2.832v0c-.81-.81-1.772-1.453-2.831-1.892-1.059-.438-2.194-.664-3.341-.664-1.146,0-2.281.226-3.34.664-1.059.439-2.021,1.082-2.831,1.892l-6.173,6.173-6.172-6.173c-.811-.81-1.773-1.453-2.832-1.892s-2.194-.664-3.341-.664c-1.146,0-2.281.225-3.34.664-1.0591.439-2.0214,1.082-2.8319,1.892v0c-.8106.811-1.4535,1.773-1.8922,2.832s-.6644,2.194-.6644,3.34.2257,2.281.6644,3.34s1.0816,2.022,1.8922,2.832l6.1719,6.173-6.1719,6.172c-.8106.81-1.4536,1.773-1.8923,2.832-.4386,1.059-.6644,2.194-.6644,3.34s.2258,2.282.6644,3.341c.4387,1.059,1.0817,2.021,1.8923,2.832v0c.8105.81,1.7728,1.453,2.8319,1.892c1.059.438,2.194.664,3.34.664c1.147,0,2.282-.226,3.341-.664c1.059-.439,2.021-1.082,2.832-1.892l6.172-6.173l6.172,6.173c.81.81,1.772,1.453,2.831,1.892c1.06.438,2.195.664,3.341.664s2.281-.226,3.34-.664c1.059-.439,2.022-1.082,2.832-1.892.811-.811,1.454-1.773,1.893-2.832.438-1.059.664-2.195.664-3.341s-.226-2.281-.664-3.34c-.439-1.059-1.082-2.022-1.893-2.832l-6.172-6.171Z" fill="#f9bb04"/><path id="hero_right-1-hero_right-vector_6" d="M105.756,352.134v-73.93c0-2.629,1.044-5.151,2.903-7.01s4.38-2.903,7.009-2.903v0c1.302,0,2.591.256,3.794.754s2.296,1.229,3.216,2.149c.921.92,1.651,2.013,2.149,3.216.499,1.203.755,2.492.755,3.794v73.93h-19.826Z" fill="#dbe5f4"/><path id="hero_right-1-hero_right-vector_7" d="M141.696,352.134v-40.467c.001-2.629,1.045-5.15,2.904-7.009s4.381-2.903,7.01-2.903v0c2.629,0,5.15,1.044,7.009,2.903s2.903,4.38,2.903,7.009v40.467h-19.826Z" fill="#156eff"/></g><g id="hero_right-1-hero_right-frame-100" transform="translate(-10.525 0)"><g id="hero_right-1-hero_right-frame-99"><path id="hero_right-1-hero_right-vector_8" d="M255.273,264.222h52.252v-52.265c-13.859.003-27.149,5.512-36.948,15.313s-15.304,23.093-15.304,36.952v0Z" fill="#fae4dc"/></g><path id="hero_right-1-hero_right-vector_9" d="M307.525,330.434v-1.436c-17.175-.019-33.641-6.85-45.786-18.995s-18.976-28.612-18.995-45.788c.02-17.174,6.851-33.64,18.996-45.785c12.144-12.144,28.61-18.975,45.785-18.994v-1.436c-17.555.02-34.386,7.002-46.8,19.416-12.413,12.413-19.396,29.244-19.417,46.799.019,17.557,7.002,34.388,19.416,46.802c12.414,12.415,29.245,19.397,46.801,19.417v0Zm0-36.026v-1.436c-7.624-.008-14.933-3.041-20.324-8.432s-8.424-12.7-8.433-20.325c.009-7.624,3.042-14.933,8.433-20.324s12.7-8.424,20.324-8.432v-1.436c-8.004.009-15.679,3.193-21.339,8.853s-8.844,13.335-8.853,21.339c.008,8.005,3.192,15.68,8.852,21.34c5.661,5.661,13.335,8.845,21.34,8.853v0Z" fill="#ea4235"/></g><g id="hero_right-1-hero_right-frame-101"><path id="hero_right-1-hero_right-vector_10" d="M131.618,528.747c.056-12.948,5.238-25.346,14.414-34.482C155.207,485.129,167.627,480,180.575,480s25.369,5.129,34.544,14.265s14.358,21.534,14.413,34.482h-97.914Z" fill="#dbe5f4"/><path id="hero_right-1-hero_right-vector_11" d="M160.255,528.747c0-5.39,2.141-10.56,5.953-14.371c3.811-3.812,8.981-5.953,14.371-5.953s10.56,2.141,14.372,5.953c3.811,3.811,5.952,8.981,5.952,14.371h-40.648Z" fill="#156eff"/></g><g id="hero_right-1-hero_right-frame-105" transform="translate(-.524986 0)"><path id="hero_right-1-hero_right-vector_12" d="M107.276,414.415h190.249v-.867h-190.249c-8.0612,0-15.7925-3.202-21.4927-8.902-5.7003-5.701-8.9027-13.432-8.9027-21.493c0-8.062,3.2024-15.793,8.9027-21.493s13.4315-8.903,21.4927-8.903h190.249v-.866h-190.249c-8.291,0-16.2427,3.293-22.1055,9.156s-9.1565,13.815-9.1565,22.106s3.2937,16.243,9.1565,22.106c5.8628,5.862,13.8145,9.156,22.1055,9.156v0Z" fill="#1d2935"/><g id="hero_right-1-hero_right-group-159"><path id="hero_right-1-hero_right-vector_13" d="M277.594,368.691c0,.448.133.887.382,1.261.249.373.604.664,1.018.836.415.172.872.217,1.312.129.44-.087.845-.303,1.162-.621.318-.317.534-.722.621-1.162.088-.44.043-.897-.129-1.311-.172-.415-.463-.77-.836-1.019-.374-.249-.813-.382-1.262-.382-.601,0-1.178.239-1.604.664-.425.426-.664,1.003-.664,1.605v0Z" fill="#1d2935"/><path id="hero_right-1-hero_right-vector_14" d="M262.4,370.959c-1.253,0-2.268-1.015-2.268-2.268s1.015-2.269,2.268-2.269s2.269,1.016,2.269,2.269-1.016,2.268-2.269,2.268Z" fill="#1d2935"/><path id="hero_right-1-hero_right-vector_15" d="M244.939,370.959c-1.253,0-2.268-1.015-2.268-2.268s1.015-2.269,2.268-2.269s2.269,1.016,2.269,2.269-1.016,2.268-2.269,2.268Z" fill="#1d2935"/><path id="hero_right-1-hero_right-vector_16" d="M227.478,370.959c-1.253,0-2.268-1.015-2.268-2.268s1.015-2.269,2.268-2.269s2.269,1.016,2.269,2.269-1.016,2.268-2.269,2.268Z" fill="#1d2935"/><path id="hero_right-1-hero_right-vector_17" d="M277.594,382.419c0,.449.133.888.382,1.261.25.374.604.665,1.019.836.415.172.871.217,1.311.129.441-.087.845-.304,1.162-.621.318-.318.534-.722.621-1.162.088-.441.043-.897-.129-1.312-.172-.414-.463-.769-.836-1.018-.374-.249-.813-.382-1.262-.382-.298,0-.593.059-.868.173s-.525.281-.736.492c-.211.21-.378.461-.492.736s-.172.57-.172.868v0Z" fill="#1d2935"/><path id="hero_right-1-hero_right-vector_18" d="M262.4,384.688c-1.253,0-2.268-1.016-2.268-2.268c0-1.253,1.015-2.269,2.268-2.269s2.269,1.016,2.269,2.269c0,1.252-1.016,2.268-2.269,2.268Z" fill="#1d2935"/><path id="hero_right-1-hero_right-vector_19" d="M244.939,384.688c-1.253,0-2.268-1.016-2.268-2.268c0-1.253,1.015-2.269,2.268-2.269s2.269,1.016,2.269,2.269c0,1.252-1.016,2.268-2.269,2.268Z" fill="#1d2935"/><path id="hero_right-1-hero_right-vector_20" d="M227.478,384.688c-1.253,0-2.268-1.016-2.268-2.268c0-1.253,1.015-2.269,2.268-2.269s2.269,1.016,2.269,2.269c0,1.252-1.016,2.268-2.269,2.268Z" fill="#1d2935"/><path id="hero_right-1-hero_right-vector_21" d="M277.594,396.148c0,.449.133.887.382,1.261.249.373.604.664,1.018.836.415.172.872.217,1.312.129.44-.087.845-.303,1.162-.621.318-.317.534-.722.621-1.162.088-.44.043-.897-.129-1.311-.172-.415-.463-.77-.836-1.019-.374-.249-.813-.382-1.262-.382-.601,0-1.178.239-1.604.664-.425.426-.664,1.003-.664,1.605v0Z" transform="translate(0 0.000001)" fill="#1d2935"/><path id="hero_right-1-hero_right-vector_22" d="M262.4,398.416c-1.253,0-2.268-1.015-2.268-2.268s1.015-2.269,2.268-2.269s2.269,1.016,2.269,2.269-1.016,2.268-2.269,2.268Z" fill="#1d2935"/><path id="hero_right-1-hero_right-vector_23" d="M244.939,398.416c-1.253,0-2.268-1.015-2.268-2.268s1.015-2.269,2.268-2.269s2.269,1.016,2.269,2.269-1.016,2.268-2.269,2.268Z" fill="#1d2935"/><path id="hero_right-1-hero_right-vector_24" d="M227.478,398.416c-1.253,0-2.268-1.015-2.268-2.268s1.015-2.269,2.268-2.269s2.269,1.016,2.269,2.269-1.016,2.268-2.269,2.268Z" fill="#1d2935"/></g><g id="hero_right-1-hero_right-frame-96_tr_tr" transform="translate(124.888,383.423) rotate(0)"><g id="hero_right-1-hero_right-frame-96_tr" transform="translate(0,0)"><g id="hero_right-1-hero_right-frame-96" transform="translate(-124.888-383.423)"><path id="hero_right-1-hero_right-vector_25" d="M113.852,383.423c0,1.449.286,2.884.841,4.223.554,1.339,1.367,2.556,2.392,3.581c1.025,1.024,2.241,1.837,3.58,2.392s2.774.84,4.224.84c1.449,0,2.884-.285,4.223-.84s2.556-1.368,3.58-2.392c1.025-1.025,1.838-2.242,2.393-3.581.554-1.339.84-2.774.84-4.223h-22.073Z" fill="#1d2935"/></g></g></g><path id="hero_right-1-hero_right-vector_26" d="M189.649,375.696h7.566c.994,0,1.978.195,2.896.575.918.381,1.753.938,2.455,1.641.703.702,1.26,1.537,1.64,2.455.381.918.576,1.902.576,2.896v0c0,2.006-.797,3.931-2.216,5.35s-3.344,2.216-5.351,2.216h-7.566v7.566c0,2.007-.797,3.932-2.216,5.351s-3.344,2.216-5.35,2.216c-.994,0-1.978-.195-2.896-.576-.918-.38-1.753-.937-2.455-1.64-.703-.702-1.26-1.537-1.641-2.455-.38-.918-.575-1.902-.575-2.896v-7.566h-7.567c-2.007,0-3.932-.797-5.351-2.216s-2.216-3.344-2.216-5.35c0-.994.196-1.978.576-2.896s.937-1.753,1.64-2.455c.703-.703,1.537-1.26,2.455-1.641.918-.38,1.902-.575,2.896-.575h7.567v-7.567c0-2.007.797-3.932,2.216-5.351s3.344-2.216,5.351-2.216c2.006,0,3.931.798,5.35,2.217s2.216,3.343,2.216,5.35v7.567Z" fill="#fbbc04"/></g><g id="hero_right-1-hero_right-frame_110_tr_tr" transform="translate(72.7685,0) rotate(0)"><g id="hero_right-1-hero_right-frame_110_tr" transform="translate(0,0)"><g id="hero_right-1-hero_right-frame_110" transform="translate(-72.7685 0.000012)"><g id="hero_right-1-hero_right-vector_1001"><path id="hero_right-1-hero_right-path5" d="M61.0704,71.0987c-.7675-.0003-1.5331-.0758-2.2859-.2254-16.3428-3.2859-31.0461-12.123-41.6168-25.0128s-16.357981-29.0387-16.380578-45.708598h.704428C1.51378,16.6589,7.24444,32.6501,17.7118,45.4139s25.027,21.5146,41.2101,24.7684c2.859.5666,5.826-.0257,8.2483-1.6466c2.4222-1.621,4.1014-4.1377,4.668-6.9967.5667-2.859-.0256-5.826-1.6466-8.2483-1.6209-2.4223-4.1377-4.1014-6.9967-4.668-11.1969-2.2575-21.2693-8.3163-28.5105-17.1498-7.2413-8.8336-11.2063-19.8988-11.2233-31.321002h.7045C24.1825,11.411,28.0909,22.3182,35.2287,31.0257c7.1377,8.7075,17.0659,14.6801,28.1029,16.9059c2.8509.5607,5.391,2.1626,7.1253,4.4938c1.7343,2.3311,2.5387,5.2244,2.2563,8.1161-.2823,2.8918-1.6311,5.5749-3.7836,7.5265-2.1525,1.9517-4.9537,3.0321-7.8592,3.0307Z" fill="#0f9d58"/><path id="hero_right-1-hero_right-path6" d="M61.0704,-70.7949c-.7675.0003-1.5331.0758-2.2859.2254-16.3428,3.2859-31.0462,12.123-41.6168,25.0128C6.59702,-32.667,0.809714,-16.5179,0.787122,0.151902h.704428C1.51377,-16.355,7.24443,-32.3463,17.7118,-45.1101s25.027-21.5146,41.2101-24.7684c2.859-.5666,5.8259.0257,8.2482,1.6466s4.1015,4.1377,4.6681,6.9967-.0256,5.826-1.6466,8.2483c-1.6209,2.4222-4.1377,4.1014-6.9967,4.668-11.1969,2.2575-21.2693,8.3162-28.5106,17.1498-7.2412,8.8336-11.2062,19.8988-11.2232,31.320998h.7045c.0169-11.259098,3.9253-22.166298,11.063-30.873798c7.1378-8.7075,17.066-14.6801,28.103-16.9059c2.8509-.5607,5.3909-2.1626,7.1253-4.4938c1.7343-2.3311,2.5386-5.2244,2.2563-8.1162-.2823-2.8917-1.6311-5.5748-3.7836-7.5264-2.1525-1.9517-4.9537-3.0321-7.8592-3.0307Z" fill="#0f9d58"/></g><g id="hero_right-1-hero_right-vector_28"><path id="hero_right-1-hero_right-path7" d="M8.1836,0.152144C8.20314,15.1108,13.3955,29.6024,22.8804,41.1695c9.4848,11.5672,22.6783,19.498,37.3433,22.4478.2839.0567.5727.0855.8622.0859c1.1351-.0119,2.2196-.4709,3.0183-1.2775s1.247-1.8956,1.2477-3.0308c-.0031-.9933-.3495-1.9551-.9804-2.7224-.631-.7673-1.5078-1.293-2.4818-1.4879-12.7138-2.5624-24.1509-9.4409-32.3739-19.4702s-12.7261-22.5929-12.7467-35.562257l-8.5855.000001Z" fill="#fbbc04"/><path id="hero_right-1-hero_right-path8" d="M8.1836,0.152144C8.20313,-14.8065,13.3955,-29.2981,22.8804,-40.8652c9.4848-11.5672,22.6783-19.4981,37.3433-22.4478.2839-.0567.5727-.0855.8622-.0859c1.135.0118,2.2196.4709,3.0183,1.2775s1.247,1.8956,1.2477,3.0307c-.0031.9934-.3495,1.9552-.9804,2.7225-.631.7673-1.5078,1.2929-2.4819,1.4879-12.7137,2.5623-24.1508,9.4408-32.3738,19.4702-8.2229,10.0293-12.7261,22.5929-12.7467,35.562243l-8.5855.000001Z" fill="#fbbc04"/></g></g></g></g><g id="hero_right-1-hero_right-frame-111"><path id="hero_right-1-hero_right-vector_29" d="M100.902,0.151947C100.869,7.899,97.7394,15.3174,92.1993,20.7836s-13.0399,8.5352-20.8581,8.5352c-7.8181,0-15.3179-3.0689-20.858-8.5352s-8.6695-12.8846-8.7031-20.631658" fill="none" stroke="#0f9d58" stroke-width="0.788297"/><path id="hero_right-1-hero_right-vector_30" d="M89.6201,0.075844c0,4.795226-1.9223,9.394036-5.3442,12.784756-3.4218,3.3907-8.0628,5.2956-12.902,5.2956s-9.4801-1.9049-12.9019-5.2956c-3.4219-3.39073-5.3442-7.98954-5.3442-12.784759l36.4923.000003Z" fill="#dbf4e5"/></g><g id="hero_right-1-hero_right-frame-106" transform="translate(-2.75549 0)"><path id="hero_right-1-hero_right-vector_31" d="M299.685,0.151855v110.456145c-29.316-.001-57.434-11.6308-78.185-32.3386C200.749,57.5615,189.061,29.4675,189,0.151855h110.685Z" fill="#fef9dc"/><path id="hero_right-1-hero_right-vector_32" d="M250.524,32.8811c1.247,3.8213,3.38,7.2935,6.225,10.133c2.845,2.8396,6.322,4.966,10.145,6.2058c2.248.6921,4.217,2.0813,5.623,3.9665s2.175,4.1688,2.198,6.5204v.4968c.007,1.7189-.388,3.4157-1.154,4.9547s-1.881,2.8773-3.256,3.9082c-1.376,1.0308-2.974,1.7254-4.666,2.0283s-3.431.2056-5.079-.284c-7.438-2.3053-14.206-6.383-19.72-11.8824-5.513-5.4994-9.609-12.256-11.934-19.6884-.493-1.6486-.594-3.3899-.293-5.0844.3-1.6944.994-3.2949,2.025-4.673c1.03-1.3781,2.369-2.4956,3.91-3.2628c1.54-.7673,3.239-1.1629,4.96-1.1552h.511c2.354.0218,4.639.7906,6.527,2.1955s3.281,3.3732,3.978,5.621v0Z" fill="#fbbc04"/></g><g id="hero_right-1-hero_right-frame-113"><g id="hero_right-1-hero_right-group-157" transform="translate(-3.00088 0)"><path id="hero_right-1-hero_right-vector_33" d="M295.872,131.52c0,.408.121.807.347,1.147.227.34.55.604.927.761.377.156.792.197,1.193.118.401-.08.769-.277,1.057-.566.289-.288.486-.656.565-1.057.08-.4.039-.816-.117-1.193-.157-.377-.421-.7-.761-.926-.34-.227-.739-.348-1.147-.348-.548,0-1.073.218-1.46.605s-.604.911-.604,1.459v0Z" fill="#1d2935"/><path id="hero_right-1-hero_right-vector_34" d="M282.051,133.584c-1.139,0-2.063-.924-2.063-2.064s.924-2.064,2.063-2.064c1.14,0,2.064.924,2.064,2.064s-.924,2.064-2.064,2.064Z" fill="#1d2935"/><path id="hero_right-1-hero_right-vector_35" d="M266.169,133.584c-1.14,0-2.064-.924-2.064-2.064s.924-2.064,2.064-2.064c1.139,0,2.063.924,2.063,2.064s-.924,2.064-2.063,2.064Z" fill="#1d2935"/><path id="hero_right-1-hero_right-vector_36" d="M248.22,131.52c-.001.408.12.807.347,1.147s.549.604.927.761c.377.156.792.197,1.193.118.4-.08.768-.277,1.057-.566.289-.288.485-.656.565-1.057.08-.4.039-.816-.118-1.193-.156-.377-.421-.7-.76-.926-.34-.227-.739-.348-1.148-.348-.271,0-.539.053-.789.157-.251.104-.478.256-.67.448-.192.191-.344.419-.447.669-.104.25-.157.519-.157.79v0Z" fill="#1d2935"/><path id="hero_right-1-hero_right-vector_37" d="M234.4,133.584c-1.14,0-2.064-.924-2.064-2.064s.924-2.064,2.064-2.064s2.064.924,2.064,2.064-.924,2.064-2.064,2.064Z" fill="#1d2935"/><path id="hero_right-1-hero_right-vector_38" d="M295.872,144.008c0,.409.121.808.348,1.147.227.34.549.605.927.761.377.156.792.197,1.192.117.401-.08.769-.276,1.058-.565.288-.289.485-.657.564-1.057.08-.401.039-.816-.117-1.193-.157-.377-.422-.7-.761-.927-.34-.226-.739-.347-1.147-.347-.271,0-.54.053-.79.157-.251.104-.478.256-.67.448-.192.191-.344.419-.447.669-.104.251-.157.519-.157.79v0Z" fill="#1d2935"/><path id="hero_right-1-hero_right-vector_39" d="M282.051,146.072c-1.139,0-2.063-.924-2.063-2.063c0-1.14.924-2.064,2.063-2.064c1.14,0,2.064.924,2.064,2.064c0,1.139-.924,2.063-2.064,2.063Z" fill="#1d2935"/><path id="hero_right-1-hero_right-vector_40" d="M266.169,146.072c-1.14,0-2.064-.924-2.064-2.063c0-1.14.924-2.064,2.064-2.064c1.139,0,2.063.924,2.063,2.064c0,1.139-.924,2.063-2.063,2.063Z" fill="#1d2935"/><path id="hero_right-1-hero_right-vector_41" d="M248.22,144.008c0,.409.121.808.348,1.147.226.34.549.605.926.761s.793.197,1.193.117c.401-.08.769-.276,1.057-.565.289-.289.485-.657.565-1.057.08-.401.039-.816-.118-1.193-.156-.377-.421-.7-.76-.927-.34-.226-.739-.347-1.148-.347-.271,0-.539.053-.79.157-.25.104-.478.256-.669.448-.192.191-.344.419-.448.669-.103.251-.157.519-.156.79v0Z" fill="#1d2935"/><path id="hero_right-1-hero_right-vector_42" d="M234.4,146.072c-1.14,0-2.064-.924-2.064-2.063c0-1.14.924-2.064,2.064-2.064s2.064.924,2.064,2.064c0,1.139-.924,2.063-2.064,2.063Z" fill="#1d2935"/><path id="hero_right-1-hero_right-vector_43" d="M295.872,156.497c0,.408.121.808.347,1.147.227.34.55.605.927.761s.792.197,1.193.118c.401-.08.769-.277,1.057-.565.289-.289.486-.657.565-1.058.08-.4.039-.815-.117-1.193-.157-.377-.421-.699-.761-.926s-.739-.348-1.147-.348c-.548,0-1.073.218-1.46.605s-.604.912-.604,1.459v0Z" fill="#1d2935"/><path id="hero_right-1-hero_right-vector_44" d="M282.051,158.561c-1.139,0-2.063-.924-2.063-2.064s.924-2.064,2.063-2.064c1.14,0,2.064.924,2.064,2.064s-.924,2.064-2.064,2.064Z" fill="#1d2935"/><path id="hero_right-1-hero_right-vector_45" d="M266.169,158.561c-1.14,0-2.064-.924-2.064-2.064s.924-2.064,2.064-2.064c1.139,0,2.063.924,2.063,2.064s-.924,2.064-2.063,2.064Z" fill="#1d2935"/><path id="hero_right-1-hero_right-vector_46" d="M248.22,156.497c-.001.408.12.808.347,1.147.227.34.549.605.927.761.377.156.792.197,1.193.118.4-.08.768-.277,1.057-.565.289-.289.485-.657.565-1.058.08-.4.039-.815-.118-1.193-.156-.377-.421-.699-.76-.926-.34-.227-.739-.348-1.148-.348-.271,0-.539.054-.789.157-.251.104-.478.256-.67.448-.192.191-.344.419-.447.669-.104.25-.157.519-.157.79v0Z" fill="#1d2935"/><path id="hero_right-1-hero_right-vector_47" d="M234.4,158.561c-1.14,0-2.064-.924-2.064-2.064s.924-2.064,2.064-2.064s2.064.924,2.064,2.064-.924,2.064-2.064,2.064Z" fill="#1d2935"/></g><g id="hero_right-1-hero_right-vector_48_tr_tr" transform="translate(180.481,101.978) rotate(0)"><g id="hero_right-1-hero_right-vector_48_tr" transform="translate(0,0)"><path id="hero_right-1-hero_right-vector_48" d="M183.792,105.289v3.311c0,.878-.348,1.72-.969,2.341s-1.463.969-2.341.969c-.879,0-1.721-.348-2.342-.969-.62-.621-.969-1.463-.969-2.341v-3.311h-3.311c-.878,0-1.72-.349-2.341-.97s-.97-1.463-.97-2.341.349-1.72.97-2.3412c.621-.6209,1.463-.9697,2.341-.9697h3.311v-3.3108c0-.8781.349-1.7203.969-2.3412.621-.6209,1.463-.9697,2.342-.9697v0c.878,0,1.72.3488,2.341.9697s.969,1.4631.969,2.3412v3.3108h3.311c.878,0,1.72.3488,2.341.9697.621.6212.97,1.4632.97,2.3412s-.349,1.72-.97,2.341-1.463.97-2.341.97h-3.311Z" transform="translate(-180.482-101.978)" fill="#1d2935"/></g></g><path id="hero_right-1-hero_right-vector_49" d="M181.245,140.728c0-2.833-1.125-5.551-3.129-7.554-2.004-2.004-4.721-3.13-7.555-3.13-2.833,0-5.551,1.126-7.554,3.13-2.004,2.003-3.129,4.721-3.129,7.554h21.367Z" fill="#0f9d58"/><path id="hero_right-1-hero_right-vector_50" d="M202.503,140.728c0-2.833-1.126-5.551-3.129-7.554-2.004-2.004-4.721-3.13-7.555-3.13-2.833,0-5.551,1.126-7.554,3.13-2.004,2.003-3.13,4.721-3.13,7.554h21.368Z" fill="#ea4235"/><path id="hero_right-1-hero_right-vector_51" d="M181.245,156.011c0-2.833-1.125-5.551-3.129-7.554-2.004-2.004-4.721-3.129-7.555-3.129-2.833,0-5.551,1.125-7.554,3.129-2.004,2.003-3.129,4.721-3.129,7.554h21.367Z" fill="#fbbc04"/><path id="hero_right-1-hero_right-vector_52" d="M202.503,156.011c0-2.833-1.126-5.551-3.129-7.554-2.004-2.004-4.721-3.129-7.555-3.129-2.833,0-5.551,1.125-7.554,3.129-2.004,2.003-3.13,4.721-3.13,7.554h21.368Z" fill="#156eff"/></g></g></svg>